<svg xmlns="http://www.w3.org/2000/svg" xmlns:xlink="http://www.w3.org/1999/xlink" width="113.842" height="101.604" viewBox="0 0 113.842 101.604">
  <defs>
    <clipPath id="clip-path">
      <rect id="Rectangle_412382" data-name="Rectangle 412382" width="95" height="83" transform="translate(329 10199)" fill="#fff" stroke="#707070" stroke-width="1"/>
    </clipPath>
  </defs>
  <g id="Group_1202340" data-name="Group 1202340" transform="translate(-322.781 -10188.876)">
    <g id="Group_1200727" data-name="Group 1200727" transform="translate(322.781 10188.876)">
      <ellipse id="Ellipse_12411" data-name="Ellipse 12411" cx="28.658" cy="28.658" rx="28.658" ry="28.658" transform="translate(56.527 44.289)" fill="#e6e51d"/>
      <ellipse id="Ellipse_12412" data-name="Ellipse 12412" cx="20.842" cy="20.842" rx="20.842" ry="20.842" fill="#e6e51d"/>
    </g>
    <g id="Mask_Group_1099583" data-name="Mask Group 1099583" clip-path="url(#clip-path)">
      <g id="Layer_x0020_1" transform="translate(327.849 10191.849)">
        <path id="Path_1286517" data-name="Path 1286517" d="M73.124,44.176H24.18a.973.973,0,1,1,0-1.946H73.124A.973.973,0,0,1,73.124,44.176Zm5.741,15.812H75.8V77.746h8.174V31.186H79.838V59.015A.976.976,0,0,1,78.865,59.988Zm-57.36,0H18.439a.976.976,0,0,1-.973-.973V31.186H13.331v46.56H21.5ZM17.466,29.24V8.125a.976.976,0,0,1,.973-.973H63.345l.681.292,15.52,15.52a.807.807,0,0,1,.292.778v5.5h5.108a.946.946,0,0,1,.973.973V77.746h3.26a.976.976,0,0,1,.973.973v10.46a.976.976,0,0,1-.973.973H8.125a.976.976,0,0,1-.973-.973V78.719a.976.976,0,0,1,.973-.973h3.26V30.213a.946.946,0,0,1,.973-.973Zm60.426.973V24.618H63.345a.976.976,0,0,1-.973-.973V9.1H19.412V58.042H77.892ZM64.318,22.672H76.529L64.318,10.46Zm8.806,26.564H24.18a.973.973,0,1,1,0-1.946H73.124A.973.973,0,0,1,73.124,49.236Zm0,5.011H24.18a.973.973,0,1,1,0-1.946H73.124A.973.973,0,0,1,73.124,54.247ZM9.1,88.206H88.206V79.74H61.447v4.233a.976.976,0,0,1-.973.973H36.829a.976.976,0,0,1-.973-.973V79.74H9.1ZM59.5,79.74H37.8V83H59.5ZM23.45,77.746h50.4V59.988H23.45ZM30.6,27.2A.935.935,0,0,1,30.018,27l-6.471-5.3a.912.912,0,0,1,0-1.46l6.471-5.3a.969.969,0,0,1,1.216,1.508l-5.5,4.525,5.5,4.525A.956.956,0,0,1,30.6,27.2Zm11.676,0a.964.964,0,0,1-.632-1.7l5.546-4.525-5.546-4.525a.984.984,0,0,1,1.265-1.508l6.422,5.254a.962.962,0,0,1,0,1.508L42.911,27A1.07,1.07,0,0,1,42.278,27.2Zm-7.492.876a.964.964,0,0,1-.924-1.216L37.17,14.547a.987.987,0,0,1,1.9.535L35.759,27.391A1.058,1.058,0,0,1,34.786,28.072ZM27.05,74.681a.976.976,0,0,1-.973-.973V64.464a.973.973,0,0,1,1.946,0v3.649h5.4V64.464a.973.973,0,0,1,1.946,0v9.244a.973.973,0,0,1-1.946,0V70.059h-5.4v3.649A.976.976,0,0,1,27.05,74.681Zm15.763-.146a.976.976,0,0,1-.973-.973V65.339H38.192a.973.973,0,0,1,0-1.946h9.244a.973.973,0,0,1,0,1.946H43.787v8.222A.976.976,0,0,1,42.814,74.535Zm17.9-.1a.976.976,0,0,1-.973-.973V66.556l-3.065,3.114a1.1,1.1,0,0,1-1.411,0L52.2,66.556v6.909a.973.973,0,1,1-1.946,0V64.22a.969.969,0,0,1,1.654-.681l4.038,4.038,4.087-4.038a.973.973,0,0,1,1.654.681v9.244A.976.976,0,0,1,60.717,74.437Zm9.536-.146H64.512a.976.976,0,0,1-.973-.973V64.074a.973.973,0,0,1,1.946,0v8.271h4.768A.973.973,0,1,1,70.253,74.291ZM73.124,34.1H24.18a.973.973,0,0,1,0-1.946H73.124A.973.973,0,1,1,73.124,34.1Zm0,5.011H24.18a.973.973,0,1,1,0-1.946H73.124A.973.973,0,0,1,73.124,39.116Z" fill-rule="evenodd"/>
        <path id="Path_1286518" data-name="Path 1286518" d="M64.318,22.672H76.529L64.318,10.46Z" fill="#ffa721" fill-rule="evenodd"/>
        <path id="Path_1286519" data-name="Path 1286519" d="M77.892,24.618H63.345a.976.976,0,0,1-.973-.973V9.1H19.412V58.042H77.892V24.618ZM24.18,32.159H73.124a.973.973,0,1,1,0,1.946H24.18A.973.973,0,0,1,24.18,32.159Zm0,5.011H73.124a.973.973,0,0,1,0,1.946H24.18A.973.973,0,1,1,24.18,37.17Zm0,5.06H73.124a.973.973,0,0,1,0,1.946H24.18A.973.973,0,1,1,24.18,42.23Zm0,5.06H73.124a.973.973,0,0,1,0,1.946H24.18A.973.973,0,1,1,24.18,47.29Zm0,5.011H73.124a.973.973,0,0,1,0,1.946H24.18A.973.973,0,1,1,24.18,52.3ZM49.333,21.7,42.911,27a1.07,1.07,0,0,1-.632.195.964.964,0,0,1-.632-1.7l5.546-4.525-5.546-4.525a.984.984,0,0,1,1.265-1.508l6.422,5.254A.962.962,0,0,1,49.333,21.7ZM39.067,15.082,35.759,27.391a1.058,1.058,0,0,1-.973.681.964.964,0,0,1-.924-1.216L37.17,14.547A.987.987,0,0,1,39.067,15.082ZM31.234,25.494a.956.956,0,0,1-.632,1.7A.935.935,0,0,1,30.018,27l-6.471-5.3a.912.912,0,0,1,0-1.46l6.471-5.3a.969.969,0,0,1,1.216,1.508l-5.5,4.525Z" fill="#ffe4af" fill-rule="evenodd"/>
        <path id="Path_1286520" data-name="Path 1286520" d="M73.853,59.988H23.45V77.746h50.4ZM63.539,64.074a.973.973,0,0,1,1.946,0v8.271h4.768a.973.973,0,1,1,0,1.946H64.512a.976.976,0,0,1-.973-.973Zm-1.849.146v9.244a.973.973,0,0,1-1.946,0V66.556l-3.065,3.114a1.1,1.1,0,0,1-1.411,0L52.2,66.556v6.909a.973.973,0,1,1-1.946,0V64.22a.969.969,0,0,1,1.654-.681l4.038,4.038,4.087-4.038A.973.973,0,0,1,61.691,64.22Zm-17.9,1.119v8.222a.973.973,0,1,1-1.946,0V65.339H38.192a.973.973,0,0,1,0-1.946h9.244a.973.973,0,0,1,0,1.946Zm-8.417-.876v9.244a.973.973,0,0,1-1.946,0V70.059h-5.4v3.649a.973.973,0,1,1-1.946,0V64.464a.973.973,0,0,1,1.946,0v3.649h5.4V64.464A.973.973,0,0,1,35.37,64.464Z" fill="#ffa721" fill-rule="evenodd"/>
        <path id="Path_1286521" data-name="Path 1286521" d="M75.8,59.988V77.746h8.174V31.186H79.838V59.015a.976.976,0,0,1-.973.973Z" fill="#ededff" fill-rule="evenodd"/>
        <path id="Path_1286522" data-name="Path 1286522" d="M88.206,79.74H61.447v4.233a.976.976,0,0,1-.973.973H36.829a.976.976,0,0,1-.973-.973V79.74H9.1v8.465H88.206Z" fill="#25738b" fill-rule="evenodd"/>
        <path id="Path_1286523" data-name="Path 1286523" d="M59.5,83V79.74H37.8V83Z" fill="#e6e6e6" fill-rule="evenodd"/>
        <path id="Path_1286524" data-name="Path 1286524" d="M21.5,77.746V59.988H18.439a.976.976,0,0,1-.973-.973V31.186H13.331v46.56Z" fill="#ededff" fill-rule="evenodd"/>
      </g>
    </g>
  </g>
</svg>
