<svg xmlns="http://www.w3.org/2000/svg" xmlns:xlink="http://www.w3.org/1999/xlink" width="113.842" height="101.604" viewBox="0 0 113.842 101.604">
  <defs>
    <clipPath id="clip-path">
      <rect id="Rectangle_412156" data-name="Rectangle 412156" width="97" height="83" transform="translate(752.296 10199)" fill="#fff" stroke="#707070" stroke-width="1"/>
    </clipPath>
  </defs>
  <g id="Group_1200863" data-name="Group 1200863" transform="translate(-743.078 -10188.876)">
    <g id="Group_1200728" data-name="Group 1200728" transform="translate(743.078 10188.876)">
      <ellipse id="Ellipse_12411" data-name="Ellipse 12411" cx="28.658" cy="28.658" rx="28.658" ry="28.658" transform="translate(56.527 44.289)" fill="#e6e51d"/>
      <ellipse id="Ellipse_12412" data-name="Ellipse 12412" cx="20.842" cy="20.842" rx="20.842" ry="20.842" fill="#e6e51d"/>
    </g>
    <g id="Mask_Group_1099564" data-name="Mask Group 1099564" clip-path="url(#clip-path)">
      <g id="email_912124" transform="translate(752.296 10192)">
        <path id="Path_1276350" data-name="Path 1276350" d="M73.218,35.787a2.212,2.212,0,0,0-2.231-2.155H3.653a2.212,2.212,0,0,0-2.231,2.155c0,.009,0,.017,0,.026V81.247a2.7,2.7,0,0,0,2.7,2.7h66.4a2.7,2.7,0,0,0,2.7-2.7V35.787Z" fill="#00aaf0"/>
        <path id="Path_1276351" data-name="Path 1276351" d="M5.756,81.247V35.813c0-.009,0-.017,0-.026a2.212,2.212,0,0,1,2.231-2.155H3.653a2.212,2.212,0,0,0-2.231,2.155c0,.009,0,.017,0,.026V81.247a2.7,2.7,0,0,0,2.7,2.7H8.453A2.7,2.7,0,0,1,5.756,81.247Z" fill="#009aef"/>
        <path id="Path_1276352" data-name="Path 1276352" d="M38.6,61.555a2.152,2.152,0,0,1-2.568,0l-2.565-1.907L4.119,83.944h66.4l-29.352-24.3Z" fill="#5bddfc"/>
        <g id="Group_1200858" data-name="Group 1200858">
          <path id="Path_1276353" data-name="Path 1276353" d="M6.008,82.38,4.119,83.943H8.453A2.7,2.7,0,0,1,6.008,82.38Z" fill="#00c3ff"/>
          <path id="Path_1276354" data-name="Path 1276354" d="M1.423,35.813h0V81.247a2.7,2.7,0,0,0,2.7,2.7l29.352-24.3Z" fill="#00c3ff"/>
        </g>
        <path id="Path_1276355" data-name="Path 1276355" d="M5.756,81.247V39.036L1.423,35.813h0V81.247a2.7,2.7,0,0,0,2.7,2.7L6.008,82.38A2.685,2.685,0,0,1,5.756,81.247Z" fill="#00aaf0"/>
        <path id="Path_1276356" data-name="Path 1276356" d="M41.169,59.648l29.352,24.3a2.7,2.7,0,0,0,2.7-2.7V35.813h0Z" fill="#00c3ff"/>
        <path id="Path_1276357" data-name="Path 1276357" d="M95.488,48.635,73.733,13.328a.6.6,0,0,0-1.03,0h0L50.948,48.635a.605.605,0,0,0,.515.922H94.973A.6.6,0,0,0,95.488,48.635Z" fill="#ffc850"/>
        <path id="Path_1276358" data-name="Path 1276358" d="M55.368,48.635l20.06-32.556-1.7-2.751a.6.6,0,0,0-1.03,0L50.948,48.635a.605.605,0,0,0,.515.922h4.421A.605.605,0,0,1,55.368,48.635Z" fill="#f9b428"/>
        <g id="Group_1200859" data-name="Group 1200859">
          <path id="Path_1276359" data-name="Path 1276359" d="M75.678,42.589a2.513,2.513,0,0,1-2.444,2.476,2.476,2.476,0,1,1,2.444-2.476Z" fill="#707487"/>
          <path id="Path_1276360" data-name="Path 1276360" d="M73.2,24.213c-1.206,0-2.443.574-2.39,1.768.14,3.154.376,6.642.376,9.31,0,.988.921,1.4,2.013,1.4.819,0,1.979-.414,1.979-1.4,0-2.668.236-6.155.376-9.309C75.607,24.808,74.381,24.213,73.2,24.213Z" fill="#707487"/>
        </g>
        <g id="Group_1200860" data-name="Group 1200860">
          <path id="Path_1276361" data-name="Path 1276361" d="M73.506,42.589a2.471,2.471,0,0,1,1.076-2.052,2.384,2.384,0,0,0-1.347-.424,2.476,2.476,0,0,0,0,4.952,2.361,2.361,0,0,0,1.347-.433A2.493,2.493,0,0,1,73.506,42.589Z" fill="#5e6377"/>
          <path id="Path_1276362" data-name="Path 1276362" d="M73.933,35.291c0-2.668-.236-6.156-.376-9.31A1.436,1.436,0,0,1,74,24.865a2.123,2.123,0,0,1,.549-.365,3.148,3.148,0,0,0-1.354-.286c-1.206,0-2.443.574-2.39,1.768.14,3.154.376,6.642.376,9.31,0,.988.921,1.4,2.013,1.4a2.689,2.689,0,0,0,1.314-.342A1.194,1.194,0,0,1,73.933,35.291Z" fill="#5e6377"/>
        </g>
        <path id="Path_1276363" data-name="Path 1276363" d="M73.233,38.7a3.855,3.855,0,0,0-3.9,3.9,3.88,3.88,0,1,0,3.9-3.9Zm0,4.951A1.057,1.057,0,0,1,72.178,42.6a1.031,1.031,0,0,1,1.055-1.054A1.066,1.066,0,0,1,74.255,42.6,1.094,1.094,0,0,1,73.233,43.652Z"/>
        <path id="Path_1276364" data-name="Path 1276364" d="M69.763,35.3c0,1.4,1.062,2.823,3.434,2.823,1.648,0,3.4-.989,3.4-2.823,0-2.62.237-6.139.375-9.246.09-2-1.734-3.253-3.775-3.253-2.11,0-3.9,1.25-3.809,3.252C69.525,29.147,69.763,32.677,69.763,35.3Zm2.465-9.391a1.48,1.48,0,0,1,.969-.266,1.393,1.393,0,0,1,.936.275s0,.006,0,.01c-.135,3.047-.369,6.534-.378,9.228a1.334,1.334,0,0,1-.558.124,1.775,1.775,0,0,1-.592-.083c-.006-2.688-.239-6.167-.378-9.271A.1.1,0,0,1,72.229,25.909Z"/>
        <path id="Path_1276365" data-name="Path 1276365" d="M73.216,59.754a1.421,1.421,0,0,0,1.421-1.421V50.987H94.972A2.028,2.028,0,0,0,96.7,47.9L74.942,12.591a2.026,2.026,0,0,0-3.45,0L59.4,32.219H40.634a1.421,1.421,0,0,0,0,2.842H57.646L49.737,47.9a2.027,2.027,0,0,0,.927,2.925l-12.909,9.6a.735.735,0,0,1-.872,0L3.083,35.286a.858.858,0,0,1,.569-.225H34a1.421,1.421,0,1,0,0-2.842H3.652A3.633,3.633,0,0,0,0,35.765v45.49a4.122,4.122,0,0,0,4.118,4.118h66.4a4.122,4.122,0,0,0,4.118-4.118V64.964a1.421,1.421,0,1,0-2.842,0V81.255a1.28,1.28,0,0,1-.853,1.2L43.469,59.715l11.736-8.729H71.8v7.346A1.421,1.421,0,0,0,73.216,59.754Zm0-44.545L93.511,48.145H52.922ZM66.574,82.531H8.063L33.517,61.461l1.67,1.242a3.551,3.551,0,0,0,4.264,0l1.67-1.242ZM2.842,38.649,31.169,59.715,3.695,82.457a1.279,1.279,0,0,1-.853-1.2Z"/>
      </g>
    </g>
  </g>
</svg>
