<svg xmlns="http://www.w3.org/2000/svg" xmlns:xlink="http://www.w3.org/1999/xlink" width="98.993" height="88.353" viewBox="0 0 98.993 88.353">
  <defs>
    <clipPath id="clip-path">
      <rect id="Rectangle_412234" data-name="Rectangle 412234" width="87" height="75" transform="translate(254 12260)" fill="#fff" stroke="#707070" stroke-width="1"/>
    </clipPath>
  </defs>
  <g id="Group_1200872" data-name="Group 1200872" transform="translate(-248.627 -12252.778)">
    <g id="Group_1200740" data-name="Group 1200740" transform="translate(248.627 12252.778)">
      <g id="Group_1200739" data-name="Group 1200739">
        <ellipse id="Ellipse_12413" data-name="Ellipse 12413" cx="24.92" cy="24.92" rx="24.92" ry="24.92" transform="translate(49.154 38.512)" fill="#c8a0e6"/>
        <ellipse id="Ellipse_12414" data-name="Ellipse 12414" cx="18.123" cy="18.123" rx="18.123" ry="18.123" fill="#c8a0e6"/>
      </g>
    </g>
    <g id="Mask_Group_1099566" data-name="Mask Group 1099566" clip-path="url(#clip-path)">
      <g id="write_11234354" transform="translate(254 12254)">
        <g id="Group_1200869" data-name="Group 1200869">
          <g id="Group_1200866" data-name="Group 1200866">
            <path id="Path_1276384" data-name="Path 1276384" d="M59.377,22.851H4.69a2.579,2.579,0,0,0-2.569,2.583v5.832H61.947V25.447A2.582,2.582,0,0,0,59.377,22.851ZM31.47,29.471H7.8a2.413,2.413,0,1,1,0-4.826h23.68a2.413,2.413,0,0,1,2.42,2.406,2.446,2.446,0,0,1-2.433,2.42Zm9.176.666a3.065,3.065,0,1,1,3.072-3.072A3.066,3.066,0,0,1,40.645,30.137Zm7.49,0a3.065,3.065,0,1,1,3.072-3.072A3.066,3.066,0,0,1,48.135,30.137Zm7.477,0a3.065,3.065,0,1,1,3.072-3.072A3.069,3.069,0,0,1,55.612,30.137Z" fill="#ffc064"/>
            <g id="Group_1200865" data-name="Group 1200865">
              <path id="Path_1276385" data-name="Path 1276385" d="M31.769,27.065a.287.287,0,0,1-.285.285H7.8a.287.287,0,0,1-.285-.285.276.276,0,0,1,.285-.272h23.68A.267.267,0,0,1,31.769,27.065Z" fill="#e1e9ff"/>
              <path id="Path_1276386" data-name="Path 1276386" d="M41.61,27.065a.945.945,0,1,1-.952-.952A.946.946,0,0,1,41.61,27.065Z" fill="#e1e9ff"/>
              <path id="Path_1276387" data-name="Path 1276387" d="M49.087,27.065a.945.945,0,1,1-.952-.952A.946.946,0,0,1,49.087,27.065Z" fill="#e1e9ff"/>
              <path id="Path_1276388" data-name="Path 1276388" d="M56.564,27.065a.952.952,0,1,1-1.9,0,.963.963,0,0,1,.952-.952A.946.946,0,0,1,56.564,27.065Z" fill="#e1e9ff"/>
            </g>
          </g>
          <g id="Group_1200867" data-name="Group 1200867">
            <path id="Path_1276389" data-name="Path 1276389" d="M84.811,28.492l-1.726,1.726-3.793-3.874,1.686-1.686Z" fill="#d3dcfb"/>
            <path id="Path_1276390" data-name="Path 1276390" d="M57.053,55.395,52.3,57.107l1.781-4.69Z" fill="#d3dcfb"/>
            <path id="Path_1276391" data-name="Path 1276391" d="M81.59,31.714,58.983,54.334,55.163,50.5,63.7,41.964l.122-.122L77.783,27.867Z" fill="#ea526c"/>
          </g>
          <g id="Group_1200868" data-name="Group 1200868">
            <path id="Path_1276392" data-name="Path 1276392" d="M49.889,57.461l2.76-7.327c0-.014.014-.027.027-.041a1.158,1.158,0,0,1,.231-.34l9.04-9.04V33.386H2.121V61.539a2.591,2.591,0,0,0,2.569,2.6H59.377a2.591,2.591,0,0,0,2.569-2.6V54.348l-2.216,2.216a1.161,1.161,0,0,1-.394.258c-.054.014-.109.041-.177.054l-7.1,2.556a.284.284,0,0,1-.082.054l-1.142.408a.918.918,0,0,1-.367.068.975.975,0,0,1-.394-.082,1.063,1.063,0,0,1-.353-.231v-.014a1.086,1.086,0,0,1-.245-1.115ZM39.5,59.377H24.55a10.678,10.678,0,1,1,0-21.356H39.5a10.678,10.678,0,1,1,0,21.356Z" fill="#e1e9ff"/>
            <path id="Path_1276393" data-name="Path 1276393" d="M39.5,40.142H24.55a8.557,8.557,0,1,0,0,17.115H39.5a8.557,8.557,0,1,0,0-17.115ZM26.44,53.831a1.054,1.054,0,0,1-.761,1.794,1.117,1.117,0,0,1-.761-.313l-5.791-5.859a1.067,1.067,0,0,1,0-1.5L24.917,42.1a1.054,1.054,0,0,1,1.5-.014,1.067,1.067,0,0,1,.014,1.5l-5.07,5.125Zm8.5,1.577a1.121,1.121,0,0,1-.421.1,1.063,1.063,0,0,1-.965-.652L28.6,43.391A1.052,1.052,0,0,1,29.159,42a1.032,1.032,0,0,1,1.387.557l4.948,11.46A1.085,1.085,0,0,1,34.936,55.408Zm9.991-5.954-5.791,5.859a1.037,1.037,0,0,1-.761.313,1.108,1.108,0,0,1-.748-.3,1.054,1.054,0,0,1-.014-1.5l5.07-5.138-5.07-5.125a1.057,1.057,0,1,1,1.509-1.482l5.791,5.859a1.047,1.047,0,0,1,.014,1.509Z" fill="#42c3fc"/>
          </g>
        </g>
        <path id="Path_1276394" data-name="Path 1276394" d="M40.645,30.137a3.065,3.065,0,1,0-3.059-3.072A3.069,3.069,0,0,0,40.645,30.137Zm0-4.037a.952.952,0,0,1,0,1.9.943.943,0,0,1-.938-.952A.961.961,0,0,1,40.645,26.1Z"/>
        <path id="Path_1276395" data-name="Path 1276395" d="M48.135,30.137a3.065,3.065,0,1,0-3.059-3.072A3.069,3.069,0,0,0,48.135,30.137Zm0-4.037a.952.952,0,1,1,0,1.9.952.952,0,0,1,0-1.9Z"/>
        <path id="Path_1276396" data-name="Path 1276396" d="M55.612,30.137a3.065,3.065,0,1,0-3.072-3.072A3.069,3.069,0,0,0,55.612,30.137Zm0-4.037a.952.952,0,1,1-.952.952A.972.972,0,0,1,55.612,26.1Z"/>
        <path id="Path_1276397" data-name="Path 1276397" d="M7.8,29.471h23.68a2.413,2.413,0,1,0,0-4.826H7.8a2.413,2.413,0,1,0,0,4.826Zm0-2.692h23.68a.276.276,0,0,1,.285.272.287.287,0,0,1-.285.285H7.8a.287.287,0,0,1-.285-.285A.268.268,0,0,1,7.8,26.78Z"/>
        <path id="Path_1276398" data-name="Path 1276398" d="M82.378,23.055a2,2,0,0,0-2.773,0L77.063,25.6,64.081,38.579V25.434a4.7,4.7,0,0,0-4.69-4.7H4.69A4.705,4.705,0,0,0,0,25.448v36.1A4.714,4.714,0,0,0,4.69,66.27H59.377a4.714,4.714,0,0,0,4.69-4.717V52.241L86.429,29.879a1.953,1.953,0,0,0,0-2.76Zm-77.688-.2H59.377a2.579,2.579,0,0,1,2.569,2.583v5.832H2.121V25.447a2.582,2.582,0,0,1,2.569-2.6ZM61.947,61.539a2.591,2.591,0,0,1-2.569,2.6H4.69a2.591,2.591,0,0,1-2.569-2.6V33.386H61.947v7.327l-9.04,9.04a1.673,1.673,0,0,0-.231.34c-.014.014-.027.027-.027.041l-2.76,7.327-.408,1.074a1.038,1.038,0,0,0,.245,1.115v.014a1.437,1.437,0,0,0,.353.231,1.024,1.024,0,0,0,.394.082.841.841,0,0,0,.367-.068l1.142-.408a.284.284,0,0,0,.082-.054l7.1-2.556c.068-.014.122-.041.177-.054a1.045,1.045,0,0,0,.394-.258l2.216-2.216ZM52.3,57.107l1.781-4.69,2.991,2.977Zm9.964-6.049-3.276,3.276L55.163,50.5,63.7,41.964l.122-.122L77.783,27.867l3.806,3.861ZM83.085,30.219l-3.793-3.874,1.686-1.686,3.833,3.833Z"/>
        <path id="Path_1276399" data-name="Path 1276399" d="M39.5,38.022H24.55a10.678,10.678,0,1,0,0,21.356H39.5a10.678,10.678,0,1,0,0-21.356Zm0,19.235H24.55a8.557,8.557,0,1,1,0-17.115H39.5a8.557,8.557,0,1,1,0,17.115Z"/>
        <path id="Path_1276400" data-name="Path 1276400" d="M26.426,42.073a1.054,1.054,0,0,0-1.5.014L19.14,47.945a1.067,1.067,0,0,0,0,1.5L24.931,55.3a1.037,1.037,0,0,0,.761.313,1.134,1.134,0,0,0,.748-.3,1.067,1.067,0,0,0,.014-1.5l-5.07-5.138,5.07-5.125a1.039,1.039,0,0,0-.027-1.482Z"/>
        <path id="Path_1276401" data-name="Path 1276401" d="M39.136,42.086a1.057,1.057,0,0,0-1.509,1.482l5.07,5.125-5.07,5.138a1.054,1.054,0,0,0,.761,1.794,1.117,1.117,0,0,0,.761-.313l5.791-5.859a1.067,1.067,0,0,0,0-1.5Z"/>
        <path id="Path_1276402" data-name="Path 1276402" d="M30.545,42.548a1.037,1.037,0,0,0-1.387-.557,1.057,1.057,0,0,0-.557,1.387l4.948,11.46a1.077,1.077,0,0,0,.965.653,1.121,1.121,0,0,0,.421-.1,1.068,1.068,0,0,0,.557-1.387Z"/>
      </g>
    </g>
  </g>
</svg>
