<svg xmlns="http://www.w3.org/2000/svg" xmlns:xlink="http://www.w3.org/1999/xlink" width="113.842" height="101.604" viewBox="0 0 113.842 101.604">
  <defs>
    <clipPath id="clip-path">
      <rect id="Rectangle_412157" data-name="Rectangle 412157" width="97" height="83" transform="translate(1171.499 10199)" fill="#fff" stroke="#707070" stroke-width="1"/>
    </clipPath>
  </defs>
  <g id="Group_1200862" data-name="Group 1200862" transform="translate(-1163.078 -10188.876)">
    <g id="Group_1200729" data-name="Group 1200729" transform="translate(1163.078 10188.876)">
      <ellipse id="Ellipse_12411" data-name="Ellipse 12411" cx="28.658" cy="28.658" rx="28.658" ry="28.658" transform="translate(56.527 44.289)" fill="#e6e51d"/>
      <ellipse id="Ellipse_12412" data-name="Ellipse 12412" cx="20.842" cy="20.842" rx="20.842" ry="20.842" fill="#e6e51d"/>
    </g>
    <g id="Mask_Group_1099565" data-name="Mask Group 1099565" clip-path="url(#clip-path)">
      <g id="touch_1673888" transform="translate(1178.564 10199)">
        <path id="Path_1276366" data-name="Path 1276366" d="M55.546,67.619H5.6a4.383,4.383,0,0,1-4.383-4.383V5.6A4.383,4.383,0,0,1,5.6,1.214H51.163A4.383,4.383,0,0,1,55.546,5.6Zm0,0" fill="#9eebfc"/>
        <path id="Path_1276367" data-name="Path 1276367" d="M51.162,1.215H44.037A4.383,4.383,0,0,1,48.42,5.6V67.619h7.125V5.6a4.383,4.383,0,0,0-4.383-4.383Zm0,0" fill="#77e4fc"/>
        <path id="Path_1276368" data-name="Path 1276368" d="M45.014,56.58,40.757,48.7A3.094,3.094,0,1,1,46.2,45.756l4.257,7.882" fill="#fec7a2"/>
        <path id="Path_1276369" data-name="Path 1276369" d="M46.2,45.757a3.093,3.093,0,0,0-5.471.051,3.089,3.089,0,0,1,2.4,1.607L47.388,55.3l3.071-1.657Zm0,0" fill="#f4b085"/>
        <path id="Path_1276370" data-name="Path 1276370" d="M50.459,53.639l-3.7-6.85A3.094,3.094,0,0,1,52.2,43.849L55.9,50.7" fill="#fec7a2"/>
        <path id="Path_1276371" data-name="Path 1276371" d="M52.2,43.848a3.093,3.093,0,0,0-5.471.051,3.089,3.089,0,0,1,2.4,1.607l3.7,6.849L55.9,50.7Zm0,0" fill="#f4b085"/>
        <path id="Path_1276372" data-name="Path 1276372" d="M55.9,50.7,53.32,45.914a3.094,3.094,0,0,1,5.445-2.941l4.166,7.713,3.19,5.906A16.82,16.82,0,0,1,67.967,67l3.007,5.566-17.429,9.4,0,.011-2.848-5.274a9.559,9.559,0,0,1-9.307-.123l-3.5-2.009L26.82,67.885a1.888,1.888,0,0,1-.593-2.663A4.548,4.548,0,0,1,32.434,63.9L40.3,68.852a2.025,2.025,0,0,0,2.86-2.676l-1.142-2.114L27.5,37.181a3.094,3.094,0,0,1,5.445-2.941L45.014,56.58" fill="#fec7a2"/>
        <g id="Group_1200861" data-name="Group 1200861">
          <path id="Path_1276373" data-name="Path 1276373" d="M29.364,65.556l7.868,4.953a2.023,2.023,0,0,0,3.1-1.64l-.029-.017L32.434,63.9a4.548,4.548,0,0,0-5.956.98,4.527,4.527,0,0,1,2.885.676Zm0,0" fill="#f4b085"/>
          <path id="Path_1276374" data-name="Path 1276374" d="M29.877,35.9l12.065,22.34,3.071-1.658L32.948,34.24a3.093,3.093,0,0,0-5.471.051,3.093,3.093,0,0,1,2.4,1.607Zm0,0" fill="#f4b085"/>
          <path id="Path_1276375" data-name="Path 1276375" d="M53.542,81.982l0-.011-.007,0Zm0,0" fill="#f4b085"/>
          <path id="Path_1276376" data-name="Path 1276376" d="M66.121,56.593l-3.19-5.906-4.166-7.713a3.093,3.093,0,0,0-5.471.051,3.089,3.089,0,0,1,2.4,1.606l4.166,7.713,3.19,5.907A16.817,16.817,0,0,1,64.9,68.658L67.9,74.224l3.071-1.657L67.967,67a16.817,16.817,0,0,0-1.846-10.408Zm0,0" fill="#f4b085"/>
        </g>
        <path id="Path_1276377" data-name="Path 1276377" d="M43.17,35.631a1.214,1.214,0,0,0,1.215-1.215A16,16,0,1,0,23.524,49.667a1.215,1.215,0,0,0,.737-2.314,13.553,13.553,0,1,1,17.7-12.936,1.214,1.214,0,0,0,1.215,1.215Zm0,0"/>
        <path id="Path_1276378" data-name="Path 1276378" d="M28.38,26.418a8.084,8.084,0,0,1,7.643,5.653,1.215,1.215,0,0,0,2.32-.722,10.425,10.425,0,0,0-20.39,3.068,10.38,10.38,0,0,0,4,8.21,1.215,1.215,0,0,0,1.5-1.911,8,8,0,0,1,4.923-14.3Zm0,0"/>
        <path id="Path_1276379" data-name="Path 1276379" d="M51.7,75.991a1.214,1.214,0,0,0-1.645-.494,8.218,8.218,0,0,1-8.05-.12L38.55,73.385,28.075,67.03a1.214,1.214,0,0,0-.741-.581.662.662,0,0,1-.046-.135.652.652,0,0,1,.1-.508,3.279,3.279,0,0,1,4.5-.95l7.8,4.926a3.245,3.245,0,0,0,4.561-4.252l-4.2-7.81a1.215,1.215,0,0,0-2.139,1.151l4.2,7.809a.8.8,0,0,1-1.124,1.049l-7.8-4.925a5.7,5.7,0,0,0-7.819,1.651,3.054,3.054,0,0,0-.511,1.951H5.6a3.172,3.172,0,0,1-3.169-3.169V5.6A3.172,3.172,0,0,1,5.6,2.429h5.9A1.215,1.215,0,0,0,11.5,0H5.6A5.6,5.6,0,0,0,0,5.6V63.236a5.6,5.6,0,0,0,5.6,5.6H26.366L37.3,75.468l.023.014,3.466,2a10.623,10.623,0,0,0,9.313.671l2.273,4.226a1.215,1.215,0,0,0,2.139-1.151Zm0,0"/>
        <path id="Path_1276380" data-name="Path 1276380" d="M69.039,66.736a18.027,18.027,0,0,0-2-10.676L63.883,50.2l-4.12-7.66a4.314,4.314,0,0,0-3-2.185V19.136l10.977-7.829H81.694a1.215,1.215,0,0,0,0-2.428H67.606a1.207,1.207,0,0,0-.616.169,1.211,1.211,0,0,0-.575.218L56.76,16.153V5.6a5.6,5.6,0,0,0-5.6-5.6H19.432a1.215,1.215,0,0,0,0,2.429H51.162A3.172,3.172,0,0,1,54.331,5.6V17.885l-7.753,5.53a1.215,1.215,0,0,0,1.411,1.977l6.342-4.524V40.615a4.311,4.311,0,0,0-1.957,1.651,4.328,4.328,0,0,0-6.759,1.306,4.331,4.331,0,0,0-5.559,1.211L34.164,33.829a4.284,4.284,0,1,0-7.546,4.059L34.77,53.041a1.215,1.215,0,0,0,2.139-1.151L28.758,36.738c-1.143-2.123,2.145-3.846,3.268-1.758L43.959,57.163A1.215,1.215,0,0,0,46.1,56.012l-4.21-7.827c-1.142-2.12,2.14-3.852,3.268-1.758l.552,1.025,3.659,6.8A1.215,1.215,0,0,0,51.505,53.1l-3.659-6.8c-1.14-2.12,2.141-3.852,3.268-1.757l3.658,6.8A1.215,1.215,0,0,0,56.912,50.2l-2.555-4.751A1.876,1.876,0,0,1,55.433,42.8a1.251,1.251,0,0,0,.574-.085,1.87,1.87,0,0,1,1.617.976l4.12,7.66L64.9,57.211a15.576,15.576,0,0,1,1.683,9.577,1.216,1.216,0,0,0,.132.752l2.973,5.527a1.215,1.215,0,0,0,2.139-1.151Zm0,0"/>
        <path id="Path_1276381" data-name="Path 1276381" d="M81.694,14.383H69.387a1.215,1.215,0,0,0,0,2.428H81.694A1.215,1.215,0,0,0,81.694,14.383Zm0,0"/>
        <path id="Path_1276382" data-name="Path 1276382" d="M81.694,19.889H69.387a1.215,1.215,0,0,0,0,2.429H81.694a1.215,1.215,0,0,0,0-2.429Zm0,0"/>
        <path id="Path_1276383" data-name="Path 1276383" d="M74.569,25.395H69.387a1.215,1.215,0,0,0,0,2.428h5.182A1.215,1.215,0,0,0,74.569,25.395Zm0,0"/>
      </g>
    </g>
  </g>
</svg>
