<svg xmlns="http://www.w3.org/2000/svg" xmlns:xlink="http://www.w3.org/1999/xlink" width="315.034" height="281.168" viewBox="0 0 315.034 281.168">
  <defs>
    <clipPath id="clip-path">
      <rect id="Rectangle_412135" data-name="Rectangle 412135" width="271" height="240" transform="translate(13477.983 -5115.729)" fill="#fff" stroke="#707070" stroke-width="1"/>
    </clipPath>
  </defs>
  <g id="Group_1202338" data-name="Group 1202338" transform="translate(-13453.983 5136.313)">
    <g id="Group_1200704" data-name="Group 1200704" transform="translate(13453.983 -5136.313)">
      <g id="Group_1200628" data-name="Group 1200628">
        <ellipse id="Ellipse_12399" data-name="Ellipse 12399" cx="79.304" cy="79.304" rx="79.304" ry="79.304" transform="translate(156.426 122.56)" fill="#c8a0e6"/>
        <ellipse id="Ellipse_12400" data-name="Ellipse 12400" cx="57.676" cy="57.676" rx="57.676" ry="57.676" fill="#c8a0e6"/>
      </g>
    </g>
    <g id="Mask_Group_1099581" data-name="Mask Group 1099581" clip-path="url(#clip-path)">
      <g id="positivity_555703" transform="translate(13493.483 -5115.729)">
        <path id="Path_1286482" data-name="Path 1286482" d="M215.278,136.3a5.945,5.945,0,0,0,4.306-8.752l-17.27-31.26c0-.087,0-.173,0-.261,0-2.321-.088-15.323-.258-17.6l-.723-6.5c-6.447-43.85-44.014-66.877-89.571-67.231C61.714,4.3,20.32,44.784,19.683,94.833a91.352,91.352,0,0,0,60.625,87.22l-9.245,43.514,73.514,9.745L155.3,195.466c.139.175,39.318,3.464,40.072,3.464a7.725,7.725,0,0,0,7.987-7.987V138.324Z" fill="#ffdaae"/>
        <path id="Path_1286483" data-name="Path 1286483" d="M135.649,197.484a4.609,4.609,0,0,1-.914-.089,4.733,4.733,0,0,1-.877-.267,4.638,4.638,0,0,1-.81-.431,4.763,4.763,0,0,1-.713-.586,4.486,4.486,0,0,1-.581-.712,4.789,4.789,0,0,1-.431-.806,4.96,4.96,0,0,1-.267-.877,4.7,4.7,0,0,1-.094-.919,4.618,4.618,0,0,1,.094-.914,4.732,4.732,0,0,1,.267-.877,4.658,4.658,0,0,1,.431-.811,4.549,4.549,0,0,1,1.294-1.294,4.64,4.64,0,0,1,.81-.431,4.69,4.69,0,0,1,5.691,1.725,4.636,4.636,0,0,1,.426.811,4.746,4.746,0,0,1,.272.877,4.992,4.992,0,0,1,.089.914,5.084,5.084,0,0,1-.089.919,4.98,4.98,0,0,1-.272.877,4.547,4.547,0,0,1-1.012,1.519A4.7,4.7,0,0,1,135.649,197.484Z"/>
        <path id="Path_1286484" data-name="Path 1286484" d="M223.687,125.276,207,95.076c-.015-3.667-.1-14.722-.268-17,0-.057-.01-.113-.016-.17L206,71.4c-.006-.055-.013-.109-.021-.164-3.256-22.147-14.337-40.5-32.044-53.067C157.451,6.474,135.968.191,111.8,0l-.757,0C58.68,0,15.663,42.36,15,94.773A96.053,96.053,0,0,0,74.889,185l-8.411,39.59a4.687,4.687,0,0,0,3.969,5.621l73.514,9.746a4.682,4.682,0,0,0,5.142-3.428l9.685-35.991c.7.065,1.471.135,2.306.21,4.328.389,9.792.859,13.613,1.185,3.3.281,19.8,1.683,20.665,1.683a12.719,12.719,0,0,0,9.285-3.878,12.134,12.134,0,0,0,3.389-8.883V142.281l7.986-1.359a10.633,10.633,0,0,0,7.655-15.645Zm-8.178,5.7a1.213,1.213,0,0,1-.939.688l-.078.013L202.573,133.7a4.687,4.687,0,0,0-3.9,4.621v52.618q0,.1,0,.2a2.805,2.805,0,0,1-.785,2.111,3.411,3.411,0,0,1-2.423.991c-2.67-.167-36.172-2.986-39.264-3.375a4.688,4.688,0,0,0-5.43,3.382l-9.655,35.878L76.7,221.585l7.234-34.049,32.372,6.321a4.687,4.687,0,1,0,1.8-9.2l-36.529-7.133A86.651,86.651,0,0,1,111.046,9.375l.682,0c46.7.364,79.246,24.556,84.959,63.146l.7,6.321c.093,1.423.166,7.087.206,11.625H187.545a4.687,4.687,0,0,0,0,9.375h11.382l16.554,29.965A1.212,1.212,0,0,1,215.508,130.973Z"/>
        <path id="Path_1286485" data-name="Path 1286485" d="M105.454,159.7a67.077,67.077,0,1,1,67.078-67.077A67.154,67.154,0,0,1,105.454,159.7Z" fill="#a4cdff"/>
        <path id="Path_1286486" data-name="Path 1286486" d="M105.454,164.389a71.765,71.765,0,1,1,71.765-71.765A71.846,71.846,0,0,1,105.454,164.389Zm0-134.155a62.39,62.39,0,1,0,62.39,62.39A62.461,62.461,0,0,0,105.454,30.234Z"/>
        <path id="Path_1286487" data-name="Path 1286487" d="M134.845,60.647,96.056,99.436,76.063,79.443,58.426,97.08l37.415,37.845,56.641-56.641Z" fill="#f4ba64"/>
        <path id="Path_1286488" data-name="Path 1286488" d="M95.841,139.613h-.013a4.688,4.688,0,0,1-3.32-1.392L55.093,100.376a4.688,4.688,0,0,1,.019-6.61L72.749,76.128a4.688,4.688,0,0,1,6.63,0L96.057,92.807l35.474-35.474a4.687,4.687,0,0,1,6.629,0L155.8,74.97a4.688,4.688,0,0,1,0,6.629L99.156,138.24A4.688,4.688,0,0,1,95.841,139.613ZM65.036,97.1,95.86,128.277l49.993-49.993L134.845,67.277,99.371,102.751a4.688,4.688,0,0,1-6.63,0L76.063,86.072Z"/>
      </g>
    </g>
  </g>
</svg>
