<svg xmlns="http://www.w3.org/2000/svg" xmlns:xlink="http://www.w3.org/1999/xlink" width="100" height="100" viewBox="0 0 100 100">
  <defs>
    <clipPath id="clip-path">
      <rect id="Rectangle_410741" data-name="Rectangle 410741" width="100" height="100" fill="#e8bad8" opacity="0.41"/>
    </clipPath>
    <clipPath id="clip-path-2">
      <path id="path6129" d="M0-682.665H95.943v95.943H0Z" transform="translate(0 682.665)"/>
    </clipPath>
  </defs>
  <g id="Mask_Group_1099378" data-name="Mask Group 1099378" clip-path="url(#clip-path)">
    <g id="Group_1200551" data-name="Group 1200551" transform="translate(0.87 6.087)">
      <g id="Group_1200550" data-name="Group 1200550">
        <ellipse id="Ellipse_12395" data-name="Ellipse 12395" cx="24.92" cy="24.92" rx="24.92" ry="24.92" transform="translate(49.154 38.512)" fill="#a09f14"/>
        <ellipse id="Ellipse_12396" data-name="Ellipse 12396" cx="18.123" cy="18.123" rx="18.123" ry="18.123" fill="#a09f14"/>
      </g>
    </g>
    <g id="g6123" transform="translate(2.774 2.291)">
      <g id="g6125" transform="translate(0)">
        <g id="g6127" clip-path="url(#clip-path-2)">
          <g id="g6133" transform="translate(18.918 1.405)">
            <path id="path6135" d="M-294.424-569.532h-42.524a5.622,5.622,0,0,1-5.622-5.622v-81.889a5.622,5.622,0,0,1,5.622-5.622h42.524a5.622,5.622,0,0,1,5.622,5.622v81.889a5.622,5.622,0,0,1-5.622,5.622" transform="translate(342.57 662.665)" fill="#8379c1"/>
          </g>
          <g id="g6137" transform="translate(18.918 1.405)">
            <path id="path6139" d="M-48.182-535.154v-81.889a5.622,5.622,0,0,1,5.622-5.622H-50.44a5.622,5.622,0,0,0-5.622,5.622v81.889a5.622,5.622,0,0,0,5.622,5.622h7.879a5.622,5.622,0,0,1-5.622-5.622" transform="translate(56.061 622.665)" fill="#6e61b6"/>
          </g>
          <g id="g6141" transform="translate(18.918 1.405)">
            <path id="path6143" d="M-294.424-569.532h-42.524a5.622,5.622,0,0,1-5.622-5.622v-81.889a5.622,5.622,0,0,1,5.622-5.622h42.524a5.622,5.622,0,0,1,5.622,5.622v81.889A5.622,5.622,0,0,1-294.424-569.532Z" transform="translate(342.57 662.665)" fill="none" stroke="#000" stroke-linecap="round" stroke-linejoin="round" stroke-miterlimit="10" stroke-width="1"/>
          </g>
          <g id="g6145" transform="translate(23.982 6.469)">
            <path id="path6147" d="M-253.8,0h-9.537a2.137,2.137,0,0,0-2.032,1.477l-.667,2.052a1.874,1.874,0,0,1-1.782,1.295h-11.329a1.874,1.874,0,0,1-1.782-1.295l-.667-2.052A2.137,2.137,0,0,0-283.628,0h-9.537A2.137,2.137,0,0,0-295.3,2.137V80.868A2.137,2.137,0,0,0-293.165,83H-253.8a2.137,2.137,0,0,0,2.137-2.137V2.137A2.137,2.137,0,0,0-253.8,0" transform="translate(295.302)" fill="#fff"/>
          </g>
          <g id="g6149" transform="translate(23.982 6.469)">
            <path id="path6151" d="M-37.979-494.529V-573.26a2.137,2.137,0,0,1,2.137-2.137h-6.21a2.137,2.137,0,0,0-2.137,2.137v78.731a2.137,2.137,0,0,0,2.137,2.137h6.21a2.137,2.137,0,0,1-2.137-2.137" transform="translate(44.189 575.397)" fill="#eaf6ff"/>
          </g>
          <g id="g6153" transform="translate(23.982 6.469)">
            <path id="path6155" d="M-253.8,0h-9.537a2.137,2.137,0,0,0-2.032,1.477l-.667,2.052a1.874,1.874,0,0,1-1.782,1.295h-11.329a1.874,1.874,0,0,1-1.782-1.295l-.667-2.052A2.137,2.137,0,0,0-283.628,0h-9.537A2.137,2.137,0,0,0-295.3,2.137V80.868A2.137,2.137,0,0,0-293.165,83H-253.8a2.137,2.137,0,0,0,2.137-2.137V2.137A2.137,2.137,0,0,0-253.8,0Z" transform="translate(295.302)" fill="none" stroke="#000" stroke-linecap="round" stroke-linejoin="round" stroke-miterlimit="10" stroke-width="1"/>
          </g>
          <g id="g6157" transform="translate(43.553 6.559)">
            <path id="path6159" d="M0,0H4.5" fill="none" stroke="#000" stroke-linecap="round" stroke-linejoin="round" stroke-miterlimit="10" stroke-width="1"/>
          </g>
          <g id="g6161" transform="translate(29.405 17.802)">
            <path id="path6163" d="M-194.81-182.2h-30.919a.937.937,0,0,1-.937-.937v-27.921a.937.937,0,0,1,.937-.937h30.919a.937.937,0,0,1,.937.937v27.921a.937.937,0,0,1-.937.937" transform="translate(226.666 211.999)" fill="#d8ecfe"/>
          </g>
          <g id="g6165" transform="translate(29.405 17.802)">
            <path id="path6167" d="M-36.764-176.475V-204.4a.937.937,0,0,1,.937-.937h-6.012a.937.937,0,0,0-.937.937v27.921a.937.937,0,0,0,.937.937h6.012a.937.937,0,0,1-.937-.937" transform="translate(42.776 205.333)" fill="#c4e2ff"/>
          </g>
          <g id="g6169" transform="translate(29.405 17.802)">
            <path id="path6171" d="M-194.81-182.2h-30.919a.937.937,0,0,1-.937-.937v-27.921a.937.937,0,0,1,.937-.937h30.919a.937.937,0,0,1,.937.937v27.921A.937.937,0,0,1-194.81-182.2Z" transform="translate(226.666 211.999)" fill="none" stroke="#000" stroke-linecap="round" stroke-linejoin="round" stroke-miterlimit="10" stroke-width="1"/>
          </g>
          <g id="g6173" transform="translate(34.371 33.277)">
            <path id="path6175" d="M-58.932-2.468l-9.637,13.916h20.814L-57.392-2.468a.937.937,0,0,0-1.541,0" transform="translate(68.569 2.872)" fill="#0ed290"/>
          </g>
          <g id="g6177" transform="translate(34.371 33.277)">
            <path id="path6179" d="M-68.353-2.468a.937.937,0,0,0-1.541,0L-79.53,11.448h4.78L-66.733-.13Z" transform="translate(79.53 2.872)" fill="#00c285"/>
          </g>
          <g id="g6181" transform="translate(34.371 33.277)">
            <path id="path6183" d="M-58.932-2.468l-9.637,13.916h20.814L-57.392-2.468A.937.937,0,0,0-58.932-2.468Z" transform="translate(68.569 2.872)" fill="none" stroke="#000" stroke-linecap="round" stroke-linejoin="round" stroke-miterlimit="10" stroke-width="1"/>
          </g>
          <g id="g6185" transform="translate(46.358 36.868)">
            <path id="path6187" d="M-43.722-2.467l-7.15,10.325h15.84l-7.15-10.325a.937.937,0,0,0-1.541,0" transform="translate(50.872 2.871)" fill="#00c285"/>
          </g>
          <g id="g6189" transform="translate(46.358 36.868)">
            <path id="path6191" d="M-53.144-2.467a.937.937,0,0,0-1.541,0l-7.15,10.325h4.7l5.57-8.044Z" transform="translate(61.835 2.871)" fill="#07b17b"/>
          </g>
          <g id="g6193" transform="translate(46.358 36.868)">
            <path id="path6195" d="M-43.722-2.467l-7.15,10.325h15.84l-7.15-10.325A.937.937,0,0,0-43.722-2.467Z" transform="translate(50.872 2.871)" fill="none" stroke="#000" stroke-linecap="round" stroke-linejoin="round" stroke-miterlimit="10" stroke-width="1"/>
          </g>
          <g id="g6197" transform="translate(34.183 22.487)">
            <path id="path6199" d="M-48.13-24.065a3.935,3.935,0,0,1-3.935,3.935A3.935,3.935,0,0,1-56-24.065,3.935,3.935,0,0,1-52.065-28a3.935,3.935,0,0,1,3.935,3.935" transform="translate(56 28)" fill="#fed402"/>
          </g>
          <g id="g6201" transform="translate(34.183 22.487)">
            <path id="path6203" d="M-48.13-24.065a3.935,3.935,0,0,1-3.935,3.935A3.935,3.935,0,0,1-56-24.065,3.935,3.935,0,0,1-52.065-28,3.935,3.935,0,0,1-48.13-24.065Z" transform="translate(56 28)" fill="none" stroke="#000" stroke-linecap="round" stroke-linejoin="round" stroke-miterlimit="10" stroke-width="1"/>
          </g>
          <g id="g6205" transform="translate(60.98 9.369)">
            <path id="path6207" d="M-17.189-8.595a1.405,1.405,0,0,1-1.405,1.405A1.405,1.405,0,0,1-20-8.595,1.405,1.405,0,0,1-18.595-10a1.405,1.405,0,0,1,1.405,1.405" transform="translate(20 10)"/>
          </g>
          <g id="g6209" transform="translate(32.122 9.369)">
            <path id="path6211" d="M-17.189-8.595a1.405,1.405,0,0,1-1.405,1.405A1.405,1.405,0,0,1-20-8.595,1.405,1.405,0,0,1-18.595-10a1.405,1.405,0,0,1,1.405,1.405" transform="translate(20 10)"/>
          </g>
          <g id="g6213" transform="translate(27.812 9.369)">
            <path id="path6215" d="M-17.189-8.595a1.405,1.405,0,0,1-1.405,1.405A1.405,1.405,0,0,1-20-8.595,1.405,1.405,0,0,1-18.595-10a1.405,1.405,0,0,1,1.405,1.405" transform="translate(20 10)"/>
          </g>
          <g id="g6217" transform="translate(57.988 33.168)">
            <path id="path6219" d="M-128.326-61.874a2.983,2.983,0,0,0-3.086,2.982,2.983,2.983,0,0,0-2.983-2.983,2.983,2.983,0,0,0-2.983,2.983,2.983,2.983,0,0,0-2.983-2.983,2.983,2.983,0,0,0-2.983,2.983V-69.009a2.983,2.983,0,0,0-3.085-2.981,3.034,3.034,0,0,0-2.881,3.06v22.682a4.943,4.943,0,0,0,4.943,4.943v5.214h13.7v-5.214h.274a4.943,4.943,0,0,0,4.943-4.943V-58.814a3.035,3.035,0,0,0-2.881-3.06" transform="translate(149.31 71.992)" fill="#ffe5c2"/>
          </g>
          <g id="g6221" transform="translate(57.987 33.168)">
            <path id="path6223" d="M-51.487-219.541V-226.7a.928.928,0,0,0-.772-.922,4.944,4.944,0,0,1-4.171-4.883v-22.682c0-.07.005-.139.01-.208a3,3,0,0,0-1,0,3.039,3.039,0,0,0-2.486,3.02V-229.7a4.943,4.943,0,0,0,4.943,4.943v5.214Z" transform="translate(59.907 255.441)" fill="#fed2a4"/>
          </g>
          <g id="g6225" transform="translate(57.988 33.168)">
            <path id="path6227" d="M-145.944-104.281v-3.875a3.034,3.034,0,0,0-2.881-3.06,2.983,2.983,0,0,0-3.086,2.982,2.983,2.983,0,0,0-2.983-2.983,2.983,2.983,0,0,0-2.983,2.983,2.983,2.983,0,0,0-2.983-2.983,2.983,2.983,0,0,0-2.983,2.983V-118.35a2.983,2.983,0,0,0-3.085-2.981,3.034,3.034,0,0,0-2.881,3.06V-95.59a4.943,4.943,0,0,0,4.943,4.943v5.214h13.7v-5.214h.274a4.943,4.943,0,0,0,4.943-4.943v-2.132" transform="translate(169.809 121.333)" fill="none" stroke="#000" stroke-linecap="round" stroke-linejoin="round" stroke-miterlimit="10" stroke-width="1"/>
          </g>
          <g id="g6229" transform="translate(60.524 67.094)">
            <path id="path6231" d="M-109.19-38.637h-16.918a.937.937,0,0,1-.937-.937v-4.444a.937.937,0,0,1,.937-.937h16.918a.937.937,0,0,1,.937.937v4.444a.937.937,0,0,1-.937.937" transform="translate(127.045 44.955)" fill="#60b8fe"/>
          </g>
          <g id="g6233" transform="translate(60.524 67.094)">
            <path id="path6235" d="M-38.651-32.906V-37.35a.937.937,0,0,1,.937-.937h-6.32a.937.937,0,0,0-.937.937v4.444a.937.937,0,0,0,.937.937h6.32a.937.937,0,0,1-.937-.937" transform="translate(44.972 38.287)" fill="#27a5fe"/>
          </g>
          <g id="g6237" transform="translate(60.524 67.094)">
            <path id="path6239" d="M-109.19-38.637h-16.918a.937.937,0,0,1-.937-.937v-4.444a.937.937,0,0,1,.937-.937h16.918a.937.937,0,0,1,.937.937v4.444A.937.937,0,0,1-109.19-38.637Z" transform="translate(127.045 44.955)" fill="none" stroke="#000" stroke-linecap="round" stroke-linejoin="round" stroke-miterlimit="10" stroke-width="1"/>
          </g>
          <g id="g6241" transform="translate(15.903 52.282)">
            <path id="path6243" d="M-5.73-182.2H29.687a.937.937,0,0,0,.937-.937v-27.921a.937.937,0,0,0-.937-.937H-5.73a.937.937,0,0,0-.937.937v27.921a.937.937,0,0,0,.937.937" transform="translate(6.667 211.999)" fill="#fed402"/>
          </g>
          <g id="g6245" transform="translate(15.903 52.282)">
            <path id="path6247" d="M-36.821-176.475V-204.4a.937.937,0,0,1,.937-.937h-6.021a.937.937,0,0,0-.937.937v27.921a.937.937,0,0,0,.937.937h6.021a.937.937,0,0,1-.937-.937" transform="translate(42.843 205.333)" fill="#fac600"/>
          </g>
          <g id="g6249" transform="translate(15.903 52.282)">
            <path id="path6251" d="M-228.042-107.718V-124.4a.937.937,0,0,0-.937-.937H-264.4a.937.937,0,0,0-.937.937v27.921a.937.937,0,0,0,.937.937h35.417a.937.937,0,0,0,.937-.937v-4.685" transform="translate(265.333 125.333)" fill="none" stroke="#000" stroke-linecap="round" stroke-linejoin="round" stroke-miterlimit="10" stroke-width="1"/>
          </g>
          <g id="g6253" transform="translate(27.075 57.341)">
            <path id="path6255" d="M-40.567-3.194-42.151.015a.938.938,0,0,1-.706.513l-3.541.515a.937.937,0,0,0-.519,1.6l2.563,2.5a.937.937,0,0,1,.269.829l-.6,3.527a.937.937,0,0,0,1.36.988l3.167-1.665a.937.937,0,0,1,.872,0l3.167,1.665a.937.937,0,0,0,1.36-.988l-.605-3.527a.937.937,0,0,1,.27-.829l2.562-2.5a.937.937,0,0,0-.519-1.6L-36.6.528A.938.938,0,0,1-37.3.015l-1.584-3.209a.937.937,0,0,0-1.681,0" transform="translate(47.201 3.716)" fill="#fe7701"/>
          </g>
          <g id="g6257" transform="translate(27.075 61.395)">
            <path id="path6259" d="M-44.6-46.421l.6-3.527a.937.937,0,0,0-.269-.829l-2.563-2.5a.92.92,0,0,1-.28-.737.935.935,0,0,1-.441.19l-3.541.515a.937.937,0,0,0-.519,1.6l2.562,2.5a.937.937,0,0,1,.269.829l-.6,3.527a.937.937,0,0,0,1.36.988l3.167-1.665a.933.933,0,0,1,.482-.1.919.919,0,0,1-.227-.783" transform="translate(51.889 54.012)" fill="#f46700"/>
          </g>
          <g id="g6261" transform="translate(27.075 57.341)">
            <path id="path6263" d="M-40.567-3.194-42.151.015a.938.938,0,0,1-.706.513l-3.541.515a.937.937,0,0,0-.519,1.6l2.563,2.5a.937.937,0,0,1,.269.829l-.6,3.527a.937.937,0,0,0,1.36.988l3.167-1.665a.937.937,0,0,1,.872,0l3.167,1.665a.937.937,0,0,0,1.36-.988l-.605-3.527a.937.937,0,0,1,.27-.829l2.562-2.5a.937.937,0,0,0-.519-1.6L-36.6.528A.938.938,0,0,1-37.3.015l-1.584-3.209A.937.937,0,0,0-40.567-3.194Z" transform="translate(47.201 3.716)" fill="none" stroke="#000" stroke-linecap="round" stroke-linejoin="round" stroke-miterlimit="10" stroke-width="1"/>
          </g>
          <g id="g6265" transform="translate(29.395 76.642)">
            <path id="path6267" d="M-63.027,0H-73.333" transform="translate(73.333)" fill="none" stroke="#000" stroke-linecap="round" stroke-linejoin="round" stroke-miterlimit="10" stroke-width="1"/>
          </g>
          <g id="g6269" transform="translate(2.648 64.275)">
            <path id="path6271" d="M-69.741-1.657-71.857,2a.543.543,0,0,1-.655.239L-76.481.8a.543.543,0,0,0-.72.6l.726,4.158a.543.543,0,0,1-.349.6l-3.964,1.45a.543.543,0,0,0-.163.926l3.229,2.718a.544.544,0,0,1,.121.687l-2.1,3.659a.543.543,0,0,0,.47.814l4.221.007a.544.544,0,0,1,.534.448l.74,4.156a.543.543,0,0,0,.884.322l3.238-2.708a.543.543,0,0,1,.7,0l3.238,2.708a.543.543,0,0,0,.884-.322l.74-4.156a.543.543,0,0,1,.534-.448l4.221-.007a.543.543,0,0,0,.47-.814l-2.1-3.659a.544.544,0,0,1,.121-.687l3.229-2.718a.544.544,0,0,0-.163-.926l-3.964-1.45a.543.543,0,0,1-.349-.6l.726-4.158A.544.544,0,0,0-62.06.8l-3.969,1.437A.543.543,0,0,1-66.684,2L-68.8-1.657a.543.543,0,0,0-.94,0" transform="translate(81.145 1.928)" fill="#0ed290"/>
          </g>
          <g id="g6273" transform="translate(2.648 66.966)">
            <path id="path6275" d="M-46.832-27.662a12.473,12.473,0,0,1,.431-3.25l-3.425-1.241a.544.544,0,0,0-.721.6l.726,4.158a.543.543,0,0,1-.349.6l-3.964,1.45a.543.543,0,0,0-.163.926l3.229,2.718a.543.543,0,0,1,.121.687l-2.1,3.659a.544.544,0,0,0,.47.814l4.221.007a.543.543,0,0,1,.534.448l.74,4.156a.543.543,0,0,0,.884.322l3.238-2.708a.543.543,0,0,1,.7,0l3.238,2.708a.543.543,0,0,0,.884-.322l.654-3.675a12.466,12.466,0,0,1-9.341-12.067" transform="translate(54.49 32.186)" fill="#00c285"/>
          </g>
          <g id="g6277" transform="translate(2.648 64.275)">
            <path id="path6279" d="M-69.741-1.657-71.857,2a.543.543,0,0,1-.655.239L-76.481.8a.543.543,0,0,0-.72.6l.726,4.158a.543.543,0,0,1-.349.6l-3.964,1.45a.543.543,0,0,0-.163.926l3.229,2.718a.544.544,0,0,1,.121.687l-2.1,3.659a.543.543,0,0,0,.47.814l4.221.007a.544.544,0,0,1,.534.448l.74,4.156a.543.543,0,0,0,.884.322l3.238-2.708a.543.543,0,0,1,.7,0l3.238,2.708a.543.543,0,0,0,.884-.322l.74-4.156a.543.543,0,0,1,.534-.448l4.221-.007a.543.543,0,0,0,.47-.814l-2.1-3.659a.544.544,0,0,1,.121-.687l3.229-2.718a.544.544,0,0,0-.163-.926l-3.964-1.45a.543.543,0,0,1-.349-.6l.726-4.158A.544.544,0,0,0-62.06.8l-3.969,1.437A.543.543,0,0,1-66.684,2L-68.8-1.657A.543.543,0,0,0-69.741-1.657Z" transform="translate(81.145 1.928)" fill="none" stroke="#000" stroke-linecap="round" stroke-linejoin="round" stroke-miterlimit="10" stroke-width="1"/>
          </g>
          <g id="g6281" transform="translate(11.993 73.772)">
            <path id="path6283" d="M0,0H5.06" transform="translate(0 0)" fill="none" stroke="#000" stroke-linecap="round" stroke-linejoin="round" stroke-miterlimit="10" stroke-width="1"/>
          </g>
          <g id="g6285" transform="translate(10.732 78.116)">
            <path id="path6287" d="M-46.357,0h-7.58" transform="translate(53.937 0)" fill="none" stroke="#000" stroke-linecap="round" stroke-linejoin="round" stroke-miterlimit="10" stroke-width="1"/>
          </g>
          <g id="g6289" transform="translate(66.777 12.012)">
            <path id="path6291" d="M-162.165-127.54v-19.993a.863.863,0,0,0-.863-.863h-19.993a.862.862,0,0,0-.863.863v6.4a.862.862,0,0,1-.431.747l-4.087,2.36a.562.562,0,0,0,0,.974l4.087,2.36a.862.862,0,0,1,.431.747v6.4a.862.862,0,0,0,.863.863h19.993a.863.863,0,0,0,.863-.863" transform="translate(188.683 148.396)" fill="#fff3de"/>
          </g>
          <g id="g6293" transform="translate(66.777 12.012)">
            <path id="path6295" d="M-64.912-127.54v-19.993a.863.863,0,0,1,.863-.863h-5.815a.863.863,0,0,0-.862.863v6.4a.862.862,0,0,1-.431.747l-4.087,2.36a.562.562,0,0,0,0,.974l4.087,2.36a.862.862,0,0,1,.431.747v6.4a.863.863,0,0,0,.862.863h5.815a.863.863,0,0,1-.863-.863" transform="translate(75.526 148.396)" fill="#ffe5c2"/>
          </g>
          <g id="g6297" transform="translate(66.777 12.012)">
            <path id="path6299" d="M-95.852,0h-10.012a.863.863,0,0,0-.862.863v6.4a.862.862,0,0,1-.431.747l-4.087,2.36a.562.562,0,0,0,0,.974l4.087,2.36a.862.862,0,0,1,.431.747v6.4a.863.863,0,0,0,.862.863h19.994a.863.863,0,0,0,.862-.863V.863A.863.863,0,0,0-85.871,0h-3.423" transform="translate(111.526)" fill="none" stroke="#000" stroke-linecap="round" stroke-linejoin="round" stroke-miterlimit="10" stroke-width="1"/>
          </g>
          <g id="g6301" transform="translate(76.553 18.317)">
            <path id="path6303" d="M-67.832-4.866h0a2.717,2.717,0,0,0-3.842,0L-72.981-3.56l-1.306-1.306a2.717,2.717,0,0,0-3.842,0,2.717,2.717,0,0,0,0,3.842l5.148,5.148,5.148-5.148a2.717,2.717,0,0,0,0-3.842" transform="translate(78.924 5.662)" fill="#fd4755"/>
          </g>
          <g id="g6305" transform="translate(76.553 18.317)">
            <path id="path6307" d="M-67.832-4.866h0a2.717,2.717,0,0,0-3.842,0L-72.981-3.56l-1.306-1.306a2.717,2.717,0,0,0-3.842,0,2.717,2.717,0,0,0,0,3.842l5.148,5.148,5.148-5.148A2.717,2.717,0,0,0-67.832-4.866Z" transform="translate(78.924 5.662)" fill="none" stroke="#000" stroke-linecap="round" stroke-linejoin="round" stroke-miterlimit="10" stroke-width="1"/>
          </g>
        </g>
      </g>
    </g>
  </g>
</svg>
