<svg xmlns="http://www.w3.org/2000/svg" xmlns:xlink="http://www.w3.org/1999/xlink" width="295" height="241" viewBox="0 0 295 241">
  <defs>
    <clipPath id="clip-path">
      <path id="Rectangle_412327" data-name="Rectangle 412327" d="M15,0H280a15,15,0,0,1,15,15V241a0,0,0,0,1,0,0H0a0,0,0,0,1,0,0V15A15,15,0,0,1,15,0Z" transform="translate(652.051 4515)" fill="#f5f5f5" stroke="#707070" stroke-width="1"/>
    </clipPath>
  </defs>
  <g id="Mask_Group_1099573" data-name="Mask Group 1099573" transform="translate(-652.051 -4515)" clip-path="url(#clip-path)">
    <g id="_4740090_2437443" data-name="4740090_2437443" transform="translate(637.967 4515)">
      <g id="BACKGROUND" transform="translate(0.084)">
        <rect id="XMLID_1_" width="309" height="263" fill="#e9d8f5"/>
      </g>
      <g id="OBJECTS" transform="translate(90.427 52.658)">
        <g id="XMLID_820_" transform="translate(93.979 86.773)">
          <g id="XMLID_440_" transform="translate(1.435)">
            <line id="XMLID_449_" y1="18.155" transform="translate(27.238 0.643)" fill="none" stroke="#283456" stroke-linecap="round" stroke-linejoin="round" stroke-miterlimit="10" stroke-width="3.856"/>
            <line id="XMLID_450_" y1="52.924" transform="translate(5.416)" fill="none" stroke="#283456" stroke-linecap="round" stroke-linejoin="round" stroke-miterlimit="10" stroke-width="3.856"/>
            <line id="XMLID_448_" x1="5.496" transform="translate(5.416 52.924)" fill="none" stroke="#283456" stroke-linecap="round" stroke-linejoin="round" stroke-miterlimit="10" stroke-width="3.856"/>
            <path id="XMLID_447_" d="M168.838,147.948c-6.781,0-8.2.591-8.2,16.242" transform="translate(-144.308 -132.604)" fill="none" stroke="#283456" stroke-linecap="round" stroke-linejoin="round" stroke-miterlimit="10" stroke-width="3.856"/>
            <path id="XMLID_446_" d="M179.75,138.308c-5.643,0-8.2.562-8.2,13.094" transform="translate(-144.308 -132.604)" fill="none" stroke="#283456" stroke-linecap="round" stroke-linejoin="round" stroke-miterlimit="10" stroke-width="3.856"/>
            <g id="XMLID_437_" transform="translate(0 34.852)">
              <path id="XMLID_159_" d="M149.724,185.529h-5.416V170.164a2.708,2.708,0,0,1,2.708-2.708h0a2.708,2.708,0,0,1,2.708,2.708v15.364Z" transform="translate(-144.308 -167.456)" fill="none" stroke="#eb6ffe" stroke-linecap="round" stroke-linejoin="round" stroke-width="3.856" opacity="0.18"/>
              <path id="XMLID_158_" d="M149.724,185.529h-5.416V170.164a2.708,2.708,0,0,1,2.708-2.708h0a2.708,2.708,0,0,1,2.708,2.708v15.364Z" transform="translate(-144.308 -167.456)" fill="none" stroke="#eb6ffe" stroke-linecap="round" stroke-linejoin="round" stroke-width="3.374" opacity="0.18"/>
              <path id="XMLID_156_" d="M149.724,185.529h-5.416V170.164a2.708,2.708,0,0,1,2.708-2.708h0a2.708,2.708,0,0,1,2.708,2.708v15.364Z" transform="translate(-144.308 -167.456)" fill="none" stroke="#eb6ffe" stroke-linecap="round" stroke-linejoin="round" stroke-width="2.892" opacity="0.18"/>
              <path id="XMLID_155_" d="M149.724,185.529h-5.416V170.164a2.708,2.708,0,0,1,2.708-2.708h0a2.708,2.708,0,0,1,2.708,2.708v15.364Z" transform="translate(-144.308 -167.456)" fill="none" stroke="#eb6ffe" stroke-linecap="round" stroke-linejoin="round" stroke-width="2.41" opacity="0.18"/>
              <path id="XMLID_151_" d="M149.724,185.529h-5.416V170.164a2.708,2.708,0,0,1,2.708-2.708h0a2.708,2.708,0,0,1,2.708,2.708v15.364Z" transform="translate(-144.308 -167.456)" fill="none" stroke="#eb6ffe" stroke-linecap="round" stroke-linejoin="round" stroke-width="0.964"/>
            </g>
            <g id="XMLID_441_" transform="translate(10.912 25.098)">
              <path id="XMLID_153_" d="M160.635,185.529h-5.416V160.411a2.708,2.708,0,0,1,2.708-2.708h0a2.708,2.708,0,0,1,2.708,2.708v25.118Z" transform="translate(-155.219 -157.703)" fill="none" stroke="#eb6ffe" stroke-linecap="round" stroke-linejoin="round" stroke-width="3.856" opacity="0.18"/>
              <path id="XMLID_152_" d="M160.635,185.529h-5.416V160.411a2.708,2.708,0,0,1,2.708-2.708h0a2.708,2.708,0,0,1,2.708,2.708v25.118Z" transform="translate(-155.219 -157.703)" fill="none" stroke="#eb6ffe" stroke-linecap="round" stroke-linejoin="round" stroke-width="3.374" opacity="0.18"/>
              <path id="XMLID_150_" d="M160.635,185.529h-5.416V160.411a2.708,2.708,0,0,1,2.708-2.708h0a2.708,2.708,0,0,1,2.708,2.708v25.118Z" transform="translate(-155.219 -157.703)" fill="none" stroke="#eb6ffe" stroke-linecap="round" stroke-linejoin="round" stroke-width="2.892" opacity="0.18"/>
              <path id="XMLID_149_" d="M160.635,185.529h-5.416V160.411a2.708,2.708,0,0,1,2.708-2.708h0a2.708,2.708,0,0,1,2.708,2.708v25.118Z" transform="translate(-155.219 -157.703)" fill="none" stroke="#eb6ffe" stroke-linecap="round" stroke-linejoin="round" stroke-width="2.41" opacity="0.18"/>
              <path id="XMLID_145_" d="M160.635,185.529h-5.416V160.411a2.708,2.708,0,0,1,2.708-2.708h0a2.708,2.708,0,0,1,2.708,2.708v25.118Z" transform="translate(-155.219 -157.703)" fill="none" stroke="#eb6ffe" stroke-linecap="round" stroke-linejoin="round" stroke-width="0.964"/>
            </g>
            <g id="XMLID_442_" transform="translate(21.823 15.344)">
              <path id="XMLID_147_" d="M171.546,185.529H166.13V150.656a2.708,2.708,0,0,1,2.708-2.708h0a2.708,2.708,0,0,1,2.708,2.708v34.872Z" transform="translate(-166.13 -147.948)" fill="none" stroke="#eb6ffe" stroke-linecap="round" stroke-linejoin="round" stroke-width="3.856" opacity="0.18"/>
              <path id="XMLID_146_" d="M171.546,185.529H166.13V150.656a2.708,2.708,0,0,1,2.708-2.708h0a2.708,2.708,0,0,1,2.708,2.708v34.872Z" transform="translate(-166.13 -147.948)" fill="none" stroke="#eb6ffe" stroke-linecap="round" stroke-linejoin="round" stroke-width="3.374" opacity="0.18"/>
              <path id="XMLID_144_" d="M171.546,185.529H166.13V150.656a2.708,2.708,0,0,1,2.708-2.708h0a2.708,2.708,0,0,1,2.708,2.708v34.872Z" transform="translate(-166.13 -147.948)" fill="none" stroke="#eb6ffe" stroke-linecap="round" stroke-linejoin="round" stroke-width="2.892" opacity="0.18"/>
              <path id="XMLID_143_" d="M171.546,185.529H166.13V150.656a2.708,2.708,0,0,1,2.708-2.708h0a2.708,2.708,0,0,1,2.708,2.708v34.872Z" transform="translate(-166.13 -147.948)" fill="none" stroke="#eb6ffe" stroke-linecap="round" stroke-linejoin="round" stroke-width="2.41" opacity="0.18"/>
              <path id="XMLID_139_" d="M171.546,185.529H166.13V150.656a2.708,2.708,0,0,1,2.708-2.708h0a2.708,2.708,0,0,1,2.708,2.708v34.872Z" transform="translate(-166.13 -147.948)" fill="none" stroke="#eb6ffe" stroke-linecap="round" stroke-linejoin="round" stroke-width="0.964"/>
            </g>
            <g id="XMLID_443_" transform="translate(32.734 5.704)">
              <path id="XMLID_141_" d="M182.458,185.529h-5.416V141.016a2.708,2.708,0,0,1,2.708-2.708h0a2.708,2.708,0,0,1,2.708,2.708v44.512Z" transform="translate(-177.042 -138.308)" fill="none" stroke="#eb6ffe" stroke-linecap="round" stroke-linejoin="round" stroke-width="3.856" opacity="0.18"/>
              <path id="XMLID_140_" d="M182.458,185.529h-5.416V141.016a2.708,2.708,0,0,1,2.708-2.708h0a2.708,2.708,0,0,1,2.708,2.708v44.512Z" transform="translate(-177.042 -138.308)" fill="none" stroke="#eb6ffe" stroke-linecap="round" stroke-linejoin="round" stroke-width="3.374" opacity="0.18"/>
              <path id="XMLID_138_" d="M182.458,185.529h-5.416V141.016a2.708,2.708,0,0,1,2.708-2.708h0a2.708,2.708,0,0,1,2.708,2.708v44.512Z" transform="translate(-177.042 -138.308)" fill="none" stroke="#eb6ffe" stroke-linecap="round" stroke-linejoin="round" stroke-width="2.892" opacity="0.18"/>
              <path id="XMLID_137_" d="M182.458,185.529h-5.416V141.016a2.708,2.708,0,0,1,2.708-2.708h0a2.708,2.708,0,0,1,2.708,2.708v44.512Z" transform="translate(-177.042 -138.308)" fill="none" stroke="#eb6ffe" stroke-linecap="round" stroke-linejoin="round" stroke-width="2.41" opacity="0.18"/>
              <path id="XMLID_133_" d="M182.458,185.529h-5.416V141.016a2.708,2.708,0,0,1,2.708-2.708h0a2.708,2.708,0,0,1,2.708,2.708v44.512Z" transform="translate(-177.042 -138.308)" fill="none" stroke="#eb6ffe" stroke-linecap="round" stroke-linejoin="round" stroke-width="0.964"/>
            </g>
          </g>
          <g id="XMLID_2104_" transform="translate(37.765 30.184)">
            <path id="XMLID_2121_" d="M181.476,172.941a1.162,1.162,0,1,1,1.144,1.179A1.162,1.162,0,0,1,181.476,172.941Z" transform="translate(-180.637 -162.789)" fill="#ecddf6"/>
            <path id="XMLID_2120_" d="M182.588,176.3a.718.718,0,1,1,.707.729A.717.717,0,0,1,182.588,176.3Z" transform="translate(-180.637 -162.789)" fill="#ecddf6"/>
            <path id="XMLID_2119_" d="M181.522,169.878a.718.718,0,1,1,.707.729A.717.717,0,0,1,181.522,169.878Z" transform="translate(-180.637 -162.789)" fill="#ecddf6"/>
            <path id="XMLID_2117_" d="M180.637,175.555a.444.444,0,1,1,.437.45A.444.444,0,0,1,180.637,175.555Z" transform="translate(-180.637 -162.789)" fill="#ecddf6"/>
            <path id="XMLID_2116_" d="M183.689,169.022a.169.169,0,1,1,.167.172A.17.17,0,0,1,183.689,169.022Z" transform="translate(-180.637 -162.789)" fill="#ecddf6"/>
            <path id="XMLID_2115_" d="M181.992,175.131a.169.169,0,1,1,.167.172A.17.17,0,0,1,181.992,175.131Z" transform="translate(-180.637 -162.789)" fill="#ecddf6"/>
            <path id="XMLID_2114_" d="M183.72,178.32a.169.169,0,1,1,.167.172A.17.17,0,0,1,183.72,178.32Z" transform="translate(-180.637 -162.789)" fill="#ecddf6"/>
            <path id="XMLID_2113_" d="M182.014,185.1a.169.169,0,1,1,.167.172A.17.17,0,0,1,182.014,185.1Z" transform="translate(-180.637 -162.789)" fill="#ecddf6"/>
            <path id="XMLID_2112_" d="M180.864,178.749a.169.169,0,1,1,.167.172A.17.17,0,0,1,180.864,178.749Z" transform="translate(-180.637 -162.789)" fill="#ecddf6"/>
            <path id="XMLID_2111_" d="M182.891,162.956a.169.169,0,1,1,.167.172A.17.17,0,0,1,182.891,162.956Z" transform="translate(-180.637 -162.789)" fill="#ecddf6"/>
            <path id="XMLID_2110_" d="M182.313,183.44a.169.169,0,1,1,.167.172A.17.17,0,0,1,182.313,183.44Z" transform="translate(-180.637 -162.789)" fill="#ecddf6"/>
            <path id="XMLID_2109_" d="M182.623,181.021a.444.444,0,1,1,.437.45A.444.444,0,0,1,182.623,181.021Z" transform="translate(-180.637 -162.789)" fill="#ecddf6"/>
            <path id="XMLID_2108_" d="M182.322,164.327a.444.444,0,1,1,.437.45A.444.444,0,0,1,182.322,164.327Z" transform="translate(-180.637 -162.789)" fill="#ecddf6"/>
            <path id="XMLID_2107_" d="M183.39,170.624a.444.444,0,1,1,.437.45A.444.444,0,0,1,183.39,170.624Z" transform="translate(-180.637 -162.789)" fill="#ecddf6"/>
            <path id="XMLID_2106_" d="M182.728,166.9a.274.274,0,1,1,.27.278A.275.275,0,0,1,182.728,166.9Z" transform="translate(-180.637 -162.789)" fill="#ecddf6"/>
            <path id="XMLID_2105_" d="M182.273,179.044a.274.274,0,1,1,.27.278A.275.275,0,0,1,182.273,179.044Z" transform="translate(-180.637 -162.789)" fill="#ecddf6"/>
          </g>
          <g id="XMLID_2122_" transform="translate(38.129 5.704)">
            <path id="XMLID_2155_" d="M181.84,148.46a1.162,1.162,0,1,1,1.144,1.179A1.162,1.162,0,0,1,181.84,148.46Z" transform="translate(-181.001 -138.308)" fill="#ecddf6"/>
            <path id="XMLID_2154_" d="M182.952,151.822a.718.718,0,1,1,.707.729A.717.717,0,0,1,182.952,151.822Z" transform="translate(-181.001 -138.308)" fill="#ecddf6"/>
            <path id="XMLID_2152_" d="M181.886,145.4a.718.718,0,1,1,.707.729A.717.717,0,0,1,181.886,145.4Z" transform="translate(-181.001 -138.308)" fill="#ecddf6"/>
            <path id="XMLID_2151_" d="M181,151.075a.444.444,0,1,1,.437.45A.444.444,0,0,1,181,151.075Z" transform="translate(-181.001 -138.308)" fill="#ecddf6"/>
            <path id="XMLID_2150_" d="M184.053,144.542a.169.169,0,1,1,.167.173A.17.17,0,0,1,184.053,144.542Z" transform="translate(-181.001 -138.308)" fill="#ecddf6"/>
            <path id="XMLID_2149_" d="M182.357,150.651a.169.169,0,1,1,.167.172A.17.17,0,0,1,182.357,150.651Z" transform="translate(-181.001 -138.308)" fill="#ecddf6"/>
            <path id="XMLID_2148_" d="M184.084,153.839a.169.169,0,1,1,.167.172A.17.17,0,0,1,184.084,153.839Z" transform="translate(-181.001 -138.308)" fill="#ecddf6"/>
            <path id="XMLID_2147_" d="M182.378,160.616a.169.169,0,1,1,.167.172A.17.17,0,0,1,182.378,160.616Z" transform="translate(-181.001 -138.308)" fill="#ecddf6"/>
            <path id="XMLID_2145_" d="M181.228,154.268a.17.17,0,1,1,.167.172A.17.17,0,0,1,181.228,154.268Z" transform="translate(-181.001 -138.308)" fill="#ecddf6"/>
            <path id="XMLID_2144_" d="M183.255,138.475a.169.169,0,1,1,.167.172A.17.17,0,0,1,183.255,138.475Z" transform="translate(-181.001 -138.308)" fill="#ecddf6"/>
            <path id="XMLID_2143_" d="M182.677,158.959a.169.169,0,1,1,.167.172A.169.169,0,0,1,182.677,158.959Z" transform="translate(-181.001 -138.308)" fill="#ecddf6"/>
            <path id="XMLID_2142_" d="M182.987,156.541a.444.444,0,1,1,.437.45A.444.444,0,0,1,182.987,156.541Z" transform="translate(-181.001 -138.308)" fill="#ecddf6"/>
            <path id="XMLID_2141_" d="M182.686,139.847a.444.444,0,1,1,.437.45A.444.444,0,0,1,182.686,139.847Z" transform="translate(-181.001 -138.308)" fill="#ecddf6"/>
            <path id="XMLID_2140_" d="M183.755,146.144a.444.444,0,1,1,.437.45A.444.444,0,0,1,183.755,146.144Z" transform="translate(-181.001 -138.308)" fill="#ecddf6"/>
            <path id="XMLID_2138_" d="M183.092,142.424a.274.274,0,1,1,.27.278A.275.275,0,0,1,183.092,142.424Z" transform="translate(-181.001 -138.308)" fill="#ecddf6"/>
            <path id="XMLID_2137_" d="M182.637,154.564a.274.274,0,1,1,.27.278A.275.275,0,0,1,182.637,154.564Z" transform="translate(-181.001 -138.308)" fill="#ecddf6"/>
          </g>
          <g id="XMLID_2156_" transform="translate(31.965 20.045)">
            <path id="XMLID_2176_" d="M175.677,162.8a1.162,1.162,0,1,1,1.144,1.179A1.162,1.162,0,0,1,175.677,162.8Z" transform="translate(-174.838 -152.65)" fill="#ecddf6"/>
            <path id="XMLID_2175_" d="M176.789,166.163a.718.718,0,1,1,.707.729A.717.717,0,0,1,176.789,166.163Z" transform="translate(-174.838 -152.65)" fill="#ecddf6"/>
            <path id="XMLID_2174_" d="M175.722,159.739a.718.718,0,1,1,.707.729A.717.717,0,0,1,175.722,159.739Z" transform="translate(-174.838 -152.65)" fill="#ecddf6"/>
            <path id="XMLID_2173_" d="M174.838,165.416a.444.444,0,1,1,.437.45A.444.444,0,0,1,174.838,165.416Z" transform="translate(-174.838 -152.65)" fill="#ecddf6"/>
            <path id="XMLID_2172_" d="M177.889,158.884a.169.169,0,1,1,.167.172A.17.17,0,0,1,177.889,158.884Z" transform="translate(-174.838 -152.65)" fill="#ecddf6"/>
            <path id="XMLID_2168_" d="M176.193,164.992a.169.169,0,1,1,.167.172A.17.17,0,0,1,176.193,164.992Z" transform="translate(-174.838 -152.65)" fill="#ecddf6"/>
            <path id="XMLID_2166_" d="M177.921,168.181a.169.169,0,1,1,.167.172A.17.17,0,0,1,177.921,168.181Z" transform="translate(-174.838 -152.65)" fill="#ecddf6"/>
            <path id="XMLID_2165_" d="M176.214,174.958a.169.169,0,1,1,.167.172A.17.17,0,0,1,176.214,174.958Z" transform="translate(-174.838 -152.65)" fill="#ecddf6"/>
            <path id="XMLID_2164_" d="M175.065,168.61a.169.169,0,1,1,.167.172A.17.17,0,0,1,175.065,168.61Z" transform="translate(-174.838 -152.65)" fill="#ecddf6"/>
            <path id="XMLID_2163_" d="M177.092,152.817a.169.169,0,1,1,.167.172A.17.17,0,0,1,177.092,152.817Z" transform="translate(-174.838 -152.65)" fill="#ecddf6"/>
            <path id="XMLID_2162_" d="M176.513,173.3a.17.17,0,1,1,.167.172A.17.17,0,0,1,176.513,173.3Z" transform="translate(-174.838 -152.65)" fill="#ecddf6"/>
            <path id="XMLID_2161_" d="M176.824,170.882a.444.444,0,1,1,.437.45A.444.444,0,0,1,176.824,170.882Z" transform="translate(-174.838 -152.65)" fill="#ecddf6"/>
            <path id="XMLID_2160_" d="M176.523,154.188a.444.444,0,1,1,.437.45A.444.444,0,0,1,176.523,154.188Z" transform="translate(-174.838 -152.65)" fill="#ecddf6"/>
            <path id="XMLID_2159_" d="M177.591,160.485a.444.444,0,1,1,.437.45A.444.444,0,0,1,177.591,160.485Z" transform="translate(-174.838 -152.65)" fill="#ecddf6"/>
            <path id="XMLID_2158_" d="M176.928,156.765a.274.274,0,1,1,.27.279A.274.274,0,0,1,176.928,156.765Z" transform="translate(-174.838 -152.65)" fill="#ecddf6"/>
            <path id="XMLID_2157_" d="M176.474,168.905a.274.274,0,1,1,.27.279A.274.274,0,0,1,176.474,168.905Z" transform="translate(-174.838 -152.65)" fill="#ecddf6"/>
          </g>
          <g id="XMLID_2178_" transform="translate(20.638 18.855)">
            <path id="XMLID_2194_" d="M164.35,161.612a1.162,1.162,0,1,1,1.144,1.179A1.162,1.162,0,0,1,164.35,161.612Z" transform="translate(-163.511 -151.46)" fill="#ecddf6"/>
            <path id="XMLID_2193_" d="M165.462,164.973a.718.718,0,1,1,.707.729A.717.717,0,0,1,165.462,164.973Z" transform="translate(-163.511 -151.46)" fill="#ecddf6"/>
            <path id="XMLID_2192_" d="M164.4,158.549a.718.718,0,1,1,.707.729A.717.717,0,0,1,164.4,158.549Z" transform="translate(-163.511 -151.46)" fill="#ecddf6"/>
            <path id="XMLID_2191_" d="M163.511,164.226a.444.444,0,1,1,.437.45A.444.444,0,0,1,163.511,164.226Z" transform="translate(-163.511 -151.46)" fill="#ecddf6"/>
            <path id="XMLID_2190_" d="M166.562,157.694a.169.169,0,1,1,.167.172A.17.17,0,0,1,166.562,157.694Z" transform="translate(-163.511 -151.46)" fill="#ecddf6"/>
            <path id="XMLID_2189_" d="M164.866,163.8a.169.169,0,1,1,.167.172A.17.17,0,0,1,164.866,163.8Z" transform="translate(-163.511 -151.46)" fill="#ecddf6"/>
            <path id="XMLID_2188_" d="M166.594,166.991a.169.169,0,1,1,.167.172A.17.17,0,0,1,166.594,166.991Z" transform="translate(-163.511 -151.46)" fill="#ecddf6"/>
            <path id="XMLID_2187_" d="M164.887,173.767a.169.169,0,1,1,.167.172A.17.17,0,0,1,164.887,173.767Z" transform="translate(-163.511 -151.46)" fill="#ecddf6"/>
            <path id="XMLID_2186_" d="M163.738,167.42a.169.169,0,1,1,.167.172A.17.17,0,0,1,163.738,167.42Z" transform="translate(-163.511 -151.46)" fill="#ecddf6"/>
            <path id="XMLID_2185_" d="M165.765,151.627a.169.169,0,1,1,.167.172A.17.17,0,0,1,165.765,151.627Z" transform="translate(-163.511 -151.46)" fill="#ecddf6"/>
            <path id="XMLID_2184_" d="M165.186,172.111a.17.17,0,1,1,.167.172A.17.17,0,0,1,165.186,172.111Z" transform="translate(-163.511 -151.46)" fill="#ecddf6"/>
            <path id="XMLID_2183_" d="M165.5,169.692a.444.444,0,1,1,.437.45A.444.444,0,0,1,165.5,169.692Z" transform="translate(-163.511 -151.46)" fill="#ecddf6"/>
            <path id="XMLID_2182_" d="M165.2,153a.444.444,0,1,1,.437.45A.443.443,0,0,1,165.2,153Z" transform="translate(-163.511 -151.46)" fill="#ecddf6"/>
            <path id="XMLID_2181_" d="M166.264,159.295a.444.444,0,1,1,.437.45A.444.444,0,0,1,166.264,159.295Z" transform="translate(-163.511 -151.46)" fill="#ecddf6"/>
            <path id="XMLID_2180_" d="M165.6,155.575a.274.274,0,1,1,.27.278A.275.275,0,0,1,165.6,155.575Z" transform="translate(-163.511 -151.46)" fill="#ecddf6"/>
            <path id="XMLID_2179_" d="M165.147,167.715a.274.274,0,1,1,.27.278A.275.275,0,0,1,165.147,167.715Z" transform="translate(-163.511 -151.46)" fill="#ecddf6"/>
          </g>
          <g id="XMLID_2195_" transform="translate(16.272 35.578)">
            <path id="XMLID_2215_" d="M159.663,174.457a.718.718,0,1,1,.707.729A.717.717,0,0,1,159.663,174.457Z" transform="translate(-159.145 -168.183)" fill="#ecddf6"/>
            <path id="XMLID_2214_" d="M160.351,176.535a.444.444,0,1,1,.437.45A.444.444,0,0,1,160.351,176.535Z" transform="translate(-159.145 -168.183)" fill="#ecddf6"/>
            <path id="XMLID_2213_" d="M159.692,172.565a.444.444,0,1,1,.437.45A.444.444,0,0,1,159.692,172.565Z" transform="translate(-159.145 -168.183)" fill="#ecddf6"/>
            <path id="XMLID_2212_" d="M159.145,176.073a.274.274,0,1,1,.27.279A.274.274,0,0,1,159.145,176.073Z" transform="translate(-159.145 -168.183)" fill="#ecddf6"/>
            <path id="XMLID_2210_" d="M161.031,172.036a.1.1,0,1,1,.1.107A.1.1,0,0,1,161.031,172.036Z" transform="translate(-159.145 -168.183)" fill="#ecddf6"/>
            <path id="XMLID_2209_" d="M159.983,175.811a.1.1,0,1,1,.1.106A.1.1,0,0,1,159.983,175.811Z" transform="translate(-159.145 -168.183)" fill="#ecddf6"/>
            <path id="XMLID_2208_" d="M161.051,177.782a.1.1,0,1,1,.1.107A.1.1,0,0,1,161.051,177.782Z" transform="translate(-159.145 -168.183)" fill="#ecddf6"/>
            <path id="XMLID_2207_" d="M160,181.97a.1.1,0,1,1,.1.106A.1.1,0,0,1,160,181.97Z" transform="translate(-159.145 -168.183)" fill="#ecddf6"/>
            <path id="XMLID_2205_" d="M159.285,178.047a.1.1,0,1,1,.1.106A.1.1,0,0,1,159.285,178.047Z" transform="translate(-159.145 -168.183)" fill="#ecddf6"/>
            <path id="XMLID_2203_" d="M160.538,168.286a.1.1,0,1,1,.1.107A.1.1,0,0,1,160.538,168.286Z" transform="translate(-159.145 -168.183)" fill="#ecddf6"/>
            <path id="XMLID_2202_" d="M160.181,180.946a.1.1,0,1,1,.1.107A.1.1,0,0,1,160.181,180.946Z" transform="translate(-159.145 -168.183)" fill="#ecddf6"/>
            <path id="XMLID_2201_" d="M160.372,179.451a.274.274,0,1,1,.27.278A.275.275,0,0,1,160.372,179.451Z" transform="translate(-159.145 -168.183)" fill="#ecddf6"/>
            <path id="XMLID_2200_" d="M160.186,169.133a.274.274,0,1,1,.27.278A.275.275,0,0,1,160.186,169.133Z" transform="translate(-159.145 -168.183)" fill="#ecddf6"/>
            <path id="XMLID_2199_" d="M160.847,173.025a.274.274,0,1,1,.27.279A.274.274,0,0,1,160.847,173.025Z" transform="translate(-159.145 -168.183)" fill="#ecddf6"/>
            <path id="XMLID_2198_" d="M160.437,170.726a.169.169,0,1,1,.167.173A.17.17,0,0,1,160.437,170.726Z" transform="translate(-159.145 -168.183)" fill="#ecddf6"/>
            <path id="XMLID_2196_" d="M160.156,178.23a.169.169,0,1,1,.167.172A.17.17,0,0,1,160.156,178.23Z" transform="translate(-159.145 -168.183)" fill="#ecddf6"/>
          </g>
          <g id="XMLID_2216_" transform="translate(10.295 29.632)">
            <path id="XMLID_2237_" d="M153.686,168.511a.718.718,0,1,1,.707.729A.717.717,0,0,1,153.686,168.511Z" transform="translate(-153.167 -162.237)" fill="#ecddf6"/>
            <path id="XMLID_2233_" d="M154.373,170.589a.444.444,0,1,1,.437.45A.444.444,0,0,1,154.373,170.589Z" transform="translate(-153.167 -162.237)" fill="#ecddf6"/>
            <path id="XMLID_2231_" d="M153.714,166.618a.444.444,0,1,1,.437.45A.444.444,0,0,1,153.714,166.618Z" transform="translate(-153.167 -162.237)" fill="#ecddf6"/>
            <path id="XMLID_2230_" d="M153.167,170.127a.274.274,0,1,1,.27.279A.274.274,0,0,1,153.167,170.127Z" transform="translate(-153.167 -162.237)" fill="#ecddf6"/>
            <path id="XMLID_2229_" d="M155.053,166.089a.1.1,0,1,1,.1.107A.1.1,0,0,1,155.053,166.089Z" transform="translate(-153.167 -162.237)" fill="#ecddf6"/>
            <path id="XMLID_2228_" d="M154,169.865a.1.1,0,1,1,.1.106A.1.1,0,0,1,154,169.865Z" transform="translate(-153.167 -162.237)" fill="#ecddf6"/>
            <path id="XMLID_2227_" d="M155.072,171.835a.1.1,0,1,1,.1.107A.1.1,0,0,1,155.072,171.835Z" transform="translate(-153.167 -162.237)" fill="#ecddf6"/>
            <path id="XMLID_2226_" d="M154.018,176.024a.1.1,0,1,1,.1.106A.1.1,0,0,1,154.018,176.024Z" transform="translate(-153.167 -162.237)" fill="#ecddf6"/>
            <path id="XMLID_2225_" d="M153.307,172.1a.1.1,0,1,1,.1.106A.1.1,0,0,1,153.307,172.1Z" transform="translate(-153.167 -162.237)" fill="#ecddf6"/>
            <path id="XMLID_2224_" d="M154.56,162.34a.1.1,0,1,1,.1.107A.1.1,0,0,1,154.56,162.34Z" transform="translate(-153.167 -162.237)" fill="#ecddf6"/>
            <path id="XMLID_2223_" d="M154.2,175a.1.1,0,1,1,.1.107A.1.1,0,0,1,154.2,175Z" transform="translate(-153.167 -162.237)" fill="#ecddf6"/>
            <path id="XMLID_2222_" d="M154.394,173.506a.274.274,0,1,1,.27.278A.275.275,0,0,1,154.394,173.506Z" transform="translate(-153.167 -162.237)" fill="#ecddf6"/>
            <path id="XMLID_2221_" d="M154.208,163.187a.274.274,0,1,1,.27.278A.275.275,0,0,1,154.208,163.187Z" transform="translate(-153.167 -162.237)" fill="#ecddf6"/>
            <path id="XMLID_2220_" d="M154.869,167.08a.274.274,0,1,1,.27.278A.275.275,0,0,1,154.869,167.08Z" transform="translate(-153.167 -162.237)" fill="#ecddf6"/>
            <path id="XMLID_2219_" d="M154.459,164.78a.17.17,0,1,1,.167.172A.17.17,0,0,1,154.459,164.78Z" transform="translate(-153.167 -162.237)" fill="#ecddf6"/>
            <path id="XMLID_2217_" d="M154.178,172.284a.17.17,0,1,1,.167.172A.17.17,0,0,1,154.178,172.284Z" transform="translate(-153.167 -162.237)" fill="#ecddf6"/>
          </g>
          <g id="XMLID_2238_" transform="translate(0 38.85)">
            <path id="XMLID_2255_" d="M143.391,177.729a.718.718,0,1,1,.707.729A.717.717,0,0,1,143.391,177.729Z" transform="translate(-142.872 -171.455)" fill="#ecddf6"/>
            <path id="XMLID_2254_" d="M144.078,179.807a.444.444,0,1,1,.437.45A.444.444,0,0,1,144.078,179.807Z" transform="translate(-142.872 -171.455)" fill="#ecddf6"/>
            <path id="XMLID_2253_" d="M143.419,175.836a.444.444,0,1,1,.437.45A.443.443,0,0,1,143.419,175.836Z" transform="translate(-142.872 -171.455)" fill="#ecddf6"/>
            <path id="XMLID_2252_" d="M142.872,179.345a.274.274,0,1,1,.27.278A.275.275,0,0,1,142.872,179.345Z" transform="translate(-142.872 -171.455)" fill="#ecddf6"/>
            <path id="XMLID_2251_" d="M144.759,175.308a.1.1,0,1,1,.1.106A.1.1,0,0,1,144.759,175.308Z" transform="translate(-142.872 -171.455)" fill="#ecddf6"/>
            <path id="XMLID_2250_" d="M143.71,179.083a.1.1,0,1,1,.1.107A.1.1,0,0,1,143.71,179.083Z" transform="translate(-142.872 -171.455)" fill="#ecddf6"/>
            <path id="XMLID_2249_" d="M144.778,181.054a.1.1,0,1,1,.1.107A.1.1,0,0,1,144.778,181.054Z" transform="translate(-142.872 -171.455)" fill="#ecddf6"/>
            <path id="XMLID_2248_" d="M143.723,185.242a.1.1,0,1,1,.1.107A.1.1,0,0,1,143.723,185.242Z" transform="translate(-142.872 -171.455)" fill="#ecddf6"/>
            <path id="XMLID_2247_" d="M143.013,181.319a.1.1,0,1,1,.1.107A.1.1,0,0,1,143.013,181.319Z" transform="translate(-142.872 -171.455)" fill="#ecddf6"/>
            <path id="XMLID_2246_" d="M144.265,171.558a.1.1,0,1,1,.1.107A.1.1,0,0,1,144.265,171.558Z" transform="translate(-142.872 -171.455)" fill="#ecddf6"/>
            <path id="XMLID_2245_" d="M143.908,184.218a.1.1,0,1,1,.1.107A.1.1,0,0,1,143.908,184.218Z" transform="translate(-142.872 -171.455)" fill="#ecddf6"/>
            <path id="XMLID_2244_" d="M144.1,182.723a.274.274,0,1,1,.27.278A.275.275,0,0,1,144.1,182.723Z" transform="translate(-142.872 -171.455)" fill="#ecddf6"/>
            <path id="XMLID_2243_" d="M143.914,172.406a.274.274,0,1,1,.27.279A.274.274,0,0,1,143.914,172.406Z" transform="translate(-142.872 -171.455)" fill="#ecddf6"/>
            <path id="XMLID_2241_" d="M144.574,176.3a.274.274,0,1,1,.27.278A.275.275,0,0,1,144.574,176.3Z" transform="translate(-142.872 -171.455)" fill="#ecddf6"/>
            <path id="XMLID_2240_" d="M144.165,174a.169.169,0,1,1,.167.172A.169.169,0,0,1,144.165,174Z" transform="translate(-142.872 -171.455)" fill="#ecddf6"/>
            <path id="XMLID_2239_" d="M143.884,181.5a.169.169,0,1,1,.167.172A.17.17,0,0,1,143.884,181.5Z" transform="translate(-142.872 -171.455)" fill="#ecddf6"/>
          </g>
        </g>
        <g id="XMLID_2256_" transform="translate(86.514)">
          <g id="XMLID_445_">
            <g id="XMLID_256_" transform="translate(17.478)">
              <line id="XMLID_444_" y1="12.638" fill="none" stroke="#283456" stroke-linecap="round" stroke-linejoin="round" stroke-miterlimit="10" stroke-width="3.856"/>
              <line id="XMLID_406_" y1="12.638" transform="translate(21.743)" fill="none" stroke="#283456" stroke-linecap="round" stroke-linejoin="round" stroke-miterlimit="10" stroke-width="3.856"/>
            </g>
            <path id="XMLID_255_" d="M154.159,82.742s-3.617,3.174-.195,6.322c2.008,1.847,4.717,0,4.717,0" transform="translate(-135.408 -45.832)" fill="none" stroke="#283456" stroke-linecap="round" stroke-linejoin="round" stroke-miterlimit="10" stroke-width="3.856"/>
            <path id="XMLID_254_" d="M182.116,76.179s1.893,3.006-.437,5.012c-2.168,1.866-4.669,0-4.669,0" transform="translate(-135.408 -45.832)" fill="none" stroke="#283456" stroke-linecap="round" stroke-linejoin="round" stroke-miterlimit="10" stroke-width="3.856"/>
            <path id="XMLID_253_" d="M137.336,68.774s-1.527,2.777.4,4.7,5.368,0,5.368,0" transform="translate(-135.408 -45.832)" fill="none" stroke="#283456" stroke-linecap="round" stroke-linejoin="round" stroke-miterlimit="10" stroke-width="3.856"/>
            <g id="XMLID_438_" transform="translate(0 8.161)">
              <path id="XMLID_135_" d="M137.336,68.774a1.928,1.928,0,0,1-1.364-3.291,39.338,39.338,0,0,1,55.569,0,1.928,1.928,0,0,1-2.726,2.727,35.477,35.477,0,0,0-50.115,0A1.924,1.924,0,0,1,137.336,68.774Z" transform="translate(-135.408 -53.993)" fill="none" stroke="#0cd7f2" stroke-linecap="round" stroke-linejoin="round" stroke-width="3.856" opacity="0.18"/>
              <path id="XMLID_134_" d="M137.336,68.774a1.928,1.928,0,0,1-1.364-3.291,39.338,39.338,0,0,1,55.569,0,1.928,1.928,0,0,1-2.726,2.727,35.477,35.477,0,0,0-50.115,0A1.924,1.924,0,0,1,137.336,68.774Z" transform="translate(-135.408 -53.993)" fill="none" stroke="#0cd7f2" stroke-linecap="round" stroke-linejoin="round" stroke-width="3.374" opacity="0.18"/>
              <path id="XMLID_132_" d="M137.336,68.774a1.928,1.928,0,0,1-1.364-3.291,39.338,39.338,0,0,1,55.569,0,1.928,1.928,0,0,1-2.726,2.727,35.477,35.477,0,0,0-50.115,0A1.924,1.924,0,0,1,137.336,68.774Z" transform="translate(-135.408 -53.993)" fill="none" stroke="#0cd7f2" stroke-linecap="round" stroke-linejoin="round" stroke-width="2.892" opacity="0.18"/>
              <path id="XMLID_131_" d="M137.336,68.774a1.928,1.928,0,0,1-1.364-3.291,39.338,39.338,0,0,1,55.569,0,1.928,1.928,0,0,1-2.726,2.727,35.477,35.477,0,0,0-50.115,0A1.924,1.924,0,0,1,137.336,68.774Z" transform="translate(-135.408 -53.993)" fill="none" stroke="#0cd7f2" stroke-linecap="round" stroke-linejoin="round" stroke-width="2.41" opacity="0.18"/>
              <path id="XMLID_127_" d="M137.336,68.774a1.928,1.928,0,0,1-1.364-3.291,39.338,39.338,0,0,1,55.569,0,1.928,1.928,0,0,1-2.726,2.727,35.477,35.477,0,0,0-50.115,0A1.924,1.924,0,0,1,137.336,68.774Z" transform="translate(-135.408 -53.993)" fill="none" stroke="#0cd7f2" stroke-linecap="round" stroke-linejoin="round" stroke-width="0.964"/>
            </g>
            <g id="XMLID_435_" transform="translate(7.493 18.751)">
              <path id="XMLID_129_" d="M144.829,76.267a1.928,1.928,0,0,1-1.364-3.291,28.727,28.727,0,0,1,40.583,0,1.928,1.928,0,0,1-2.726,2.726,24.869,24.869,0,0,0-35.13,0A1.923,1.923,0,0,1,144.829,76.267Z" transform="translate(-142.901 -64.583)" fill="none" stroke="#0cd7f2" stroke-linecap="round" stroke-linejoin="round" stroke-width="3.856" opacity="0.18"/>
              <path id="XMLID_128_" d="M144.829,76.267a1.928,1.928,0,0,1-1.364-3.291,28.727,28.727,0,0,1,40.583,0,1.928,1.928,0,0,1-2.726,2.726,24.869,24.869,0,0,0-35.13,0A1.923,1.923,0,0,1,144.829,76.267Z" transform="translate(-142.901 -64.583)" fill="none" stroke="#0cd7f2" stroke-linecap="round" stroke-linejoin="round" stroke-width="3.374" opacity="0.18"/>
              <path id="XMLID_126_" d="M144.829,76.267a1.928,1.928,0,0,1-1.364-3.291,28.727,28.727,0,0,1,40.583,0,1.928,1.928,0,0,1-2.726,2.726,24.869,24.869,0,0,0-35.13,0A1.923,1.923,0,0,1,144.829,76.267Z" transform="translate(-142.901 -64.583)" fill="none" stroke="#0cd7f2" stroke-linecap="round" stroke-linejoin="round" stroke-width="2.892" opacity="0.18"/>
              <path id="XMLID_125_" d="M144.829,76.267a1.928,1.928,0,0,1-1.364-3.291,28.727,28.727,0,0,1,40.583,0,1.928,1.928,0,0,1-2.726,2.726,24.869,24.869,0,0,0-35.13,0A1.923,1.923,0,0,1,144.829,76.267Z" transform="translate(-142.901 -64.583)" fill="none" stroke="#0cd7f2" stroke-linecap="round" stroke-linejoin="round" stroke-width="2.41" opacity="0.18"/>
              <path id="XMLID_121_" d="M144.829,76.267a1.928,1.928,0,0,1-1.364-3.291,28.727,28.727,0,0,1,40.583,0,1.928,1.928,0,0,1-2.726,2.726,24.869,24.869,0,0,0-35.13,0A1.923,1.923,0,0,1,144.829,76.267Z" transform="translate(-142.901 -64.583)" fill="none" stroke="#0cd7f2" stroke-linecap="round" stroke-linejoin="round" stroke-width="0.964"/>
            </g>
            <g id="XMLID_422_" transform="translate(14.985 29.341)">
              <path id="XMLID_123_" d="M152.322,83.759a1.928,1.928,0,0,1-1.364-3.291,18.118,18.118,0,0,1,25.6,0,1.928,1.928,0,0,1-2.727,2.726,14.262,14.262,0,0,0-20.145,0A1.92,1.92,0,0,1,152.322,83.759Z" transform="translate(-150.393 -75.173)" fill="none" stroke="#0cd7f2" stroke-linecap="round" stroke-linejoin="round" stroke-width="3.856" opacity="0.18"/>
              <path id="XMLID_122_" d="M152.322,83.759a1.928,1.928,0,0,1-1.364-3.291,18.118,18.118,0,0,1,25.6,0,1.928,1.928,0,0,1-2.727,2.726,14.262,14.262,0,0,0-20.145,0A1.92,1.92,0,0,1,152.322,83.759Z" transform="translate(-150.393 -75.173)" fill="none" stroke="#0cd7f2" stroke-linecap="round" stroke-linejoin="round" stroke-width="3.374" opacity="0.18"/>
              <path id="XMLID_120_" d="M152.322,83.759a1.928,1.928,0,0,1-1.364-3.291,18.118,18.118,0,0,1,25.6,0,1.928,1.928,0,0,1-2.727,2.726,14.262,14.262,0,0,0-20.145,0A1.92,1.92,0,0,1,152.322,83.759Z" transform="translate(-150.393 -75.173)" fill="none" stroke="#0cd7f2" stroke-linecap="round" stroke-linejoin="round" stroke-width="2.892" opacity="0.18"/>
              <path id="XMLID_119_" d="M152.322,83.759a1.928,1.928,0,0,1-1.364-3.291,18.118,18.118,0,0,1,25.6,0,1.928,1.928,0,0,1-2.727,2.726,14.262,14.262,0,0,0-20.145,0A1.92,1.92,0,0,1,152.322,83.759Z" transform="translate(-150.393 -75.173)" fill="none" stroke="#0cd7f2" stroke-linecap="round" stroke-linejoin="round" stroke-width="2.41" opacity="0.18"/>
              <path id="XMLID_111_" d="M152.322,83.759a1.928,1.928,0,0,1-1.364-3.291,18.118,18.118,0,0,1,25.6,0,1.928,1.928,0,0,1-2.727,2.726,14.262,14.262,0,0,0-20.145,0A1.92,1.92,0,0,1,152.322,83.759Z" transform="translate(-150.393 -75.173)" fill="none" stroke="#0cd7f2" stroke-linecap="round" stroke-linejoin="round" stroke-width="0.964"/>
            </g>
            <g id="XMLID_696_" transform="translate(23.173 38.71)">
              <circle id="XMLID_117_" cx="5.577" cy="5.577" r="5.577" fill="none" stroke="#0cd7f2" stroke-linecap="round" stroke-linejoin="round" stroke-width="3.856" opacity="0.18"/>
              <circle id="XMLID_116_" cx="5.577" cy="5.577" r="5.577" fill="none" stroke="#0cd7f2" stroke-linecap="round" stroke-linejoin="round" stroke-width="3.374" opacity="0.18"/>
              <circle id="XMLID_110_" cx="5.577" cy="5.577" r="5.577" fill="none" stroke="#0cd7f2" stroke-linecap="round" stroke-linejoin="round" stroke-width="2.892" opacity="0.18"/>
              <circle id="XMLID_91_" cx="5.577" cy="5.577" r="5.577" fill="none" stroke="#0cd7f2" stroke-linecap="round" stroke-linejoin="round" stroke-width="2.41" opacity="0.18"/>
              <circle id="XMLID_85_" cx="5.577" cy="5.577" r="5.577" fill="none" stroke="#0cd7f2" stroke-linecap="round" stroke-linejoin="round" stroke-width="0.964"/>
            </g>
          </g>
          <g id="XMLID_201_" transform="translate(2.834 10.046)">
            <path id="XMLID_200_" d="M143.5,60.321a.663.663,0,1,1,.17-.922A.662.662,0,0,1,143.5,60.321Z" transform="translate(-138.242 -55.878)" fill="#ecddf6"/>
            <path id="XMLID_202_" d="M144.7,58.693a.41.41,0,1,1,.105-.57A.41.41,0,0,1,144.7,58.693Z" transform="translate(-138.242 -55.878)" fill="#ecddf6"/>
            <path id="XMLID_451_" d="M142.065,61.312a.41.41,0,1,1,.105-.57A.41.41,0,0,1,142.065,61.312Z" transform="translate(-138.242 -55.878)" fill="#ecddf6"/>
            <path id="XMLID_452_" d="M145,59.847a.253.253,0,1,1,.065-.352A.253.253,0,0,1,145,59.847Z" transform="translate(-138.242 -55.878)" fill="#ecddf6"/>
            <path id="XMLID_785_" d="M140.951,60.587a.1.1,0,1,1,.025-.135A.1.1,0,0,1,140.951,60.587Z" transform="translate(-138.242 -55.878)" fill="#ecddf6"/>
            <path id="XMLID_786_" d="M144.352,59.357a.1.1,0,1,1,.025-.134A.1.1,0,0,1,144.352,59.357Z" transform="translate(-138.242 -55.878)" fill="#ecddf6"/>
            <path id="XMLID_788_" d="M145.263,57.5a.1.1,0,1,1,.025-.134A.1.1,0,0,1,145.263,57.5Z" transform="translate(-138.242 -55.878)" fill="#ecddf6"/>
            <path id="XMLID_795_" d="M148.978,56.054a.1.1,0,1,1,.025-.134A.1.1,0,0,1,148.978,56.054Z" transform="translate(-138.242 -55.878)" fill="#ecddf6"/>
            <path id="XMLID_789_" d="M146.407,58.686a.1.1,0,1,1,.025-.134A.1.1,0,0,1,146.407,58.686Z" transform="translate(-138.242 -55.878)" fill="#ecddf6"/>
            <path id="XMLID_790_" d="M138.393,62.963a.1.1,0,1,1,.025-.134A.1.1,0,0,1,138.393,62.963Z" transform="translate(-138.242 -55.878)" fill="#ecddf6"/>
            <path id="XMLID_791_" d="M148.108,56.462a.1.1,0,1,1,.025-.134A.1.1,0,0,1,148.108,56.462Z" transform="translate(-138.242 -55.878)" fill="#ecddf6"/>
            <path id="XMLID_779_" d="M146.882,57.117a.253.253,0,1,1,.065-.352A.253.253,0,0,1,146.882,57.117Z" transform="translate(-138.242 -55.878)" fill="#ecddf6"/>
            <path id="XMLID_784_" d="M139.219,62.774a.253.253,0,1,1,.065-.352A.253.253,0,0,1,139.219,62.774Z" transform="translate(-138.242 -55.878)" fill="#ecddf6"/>
            <path id="XMLID_453_" d="M141.794,60.2a.253.253,0,1,1,.065-.352A.254.254,0,0,1,141.794,60.2Z" transform="translate(-138.242 -55.878)" fill="#ecddf6"/>
            <path id="XMLID_454_" d="M140.283,61.734a.156.156,0,1,1,.04-.217A.157.157,0,0,1,140.283,61.734Z" transform="translate(-138.242 -55.878)" fill="#ecddf6"/>
            <path id="XMLID_455_" d="M146.078,57.933a.156.156,0,1,1,.04-.217A.157.157,0,0,1,146.078,57.933Z" transform="translate(-138.242 -55.878)" fill="#ecddf6"/>
          </g>
          <g id="XMLID_825_" transform="translate(19.128 21.906)">
            <path id="XMLID_841_" d="M160.4,69.705a.663.663,0,1,1,.554-.756A.663.663,0,0,1,160.4,69.705Z" transform="translate(-154.536 -67.738)" fill="#ecddf6"/>
            <path id="XMLID_840_" d="M162.182,68.759a.409.409,0,1,1,.342-.467A.409.409,0,0,1,162.182,68.759Z" transform="translate(-154.536 -67.738)" fill="#ecddf6"/>
            <path id="XMLID_839_" d="M158.671,69.972a.409.409,0,1,1,.342-.467A.41.41,0,0,1,158.671,69.972Z" transform="translate(-154.536 -67.738)" fill="#ecddf6"/>
            <path id="XMLID_838_" d="M161.948,69.928a.253.253,0,1,1,.212-.289A.253.253,0,0,1,161.948,69.928Z" transform="translate(-154.536 -67.738)" fill="#ecddf6"/>
            <path id="XMLID_837_" d="M157.983,68.834a.1.1,0,1,1,.081-.11A.1.1,0,0,1,157.983,68.834Z" transform="translate(-154.536 -67.738)" fill="#ecddf6"/>
            <path id="XMLID_836_" d="M161.581,69.206a.1.1,0,1,1,.081-.11A.1.1,0,0,1,161.581,69.206Z" transform="translate(-154.536 -67.738)" fill="#ecddf6"/>
            <path id="XMLID_835_" d="M163.209,67.93a.1.1,0,1,1,.081-.11A.1.1,0,0,1,163.209,67.93Z" transform="translate(-154.536 -67.738)" fill="#ecddf6"/>
            <path id="XMLID_834_" d="M167.183,68.243a.1.1,0,1,1,.081-.11A.1.1,0,0,1,167.183,68.243Z" transform="translate(-154.536 -67.738)" fill="#ecddf6"/>
            <path id="XMLID_833_" d="M163.723,69.5a.1.1,0,1,1,.081-.11A.1.1,0,0,1,163.723,69.5Z" transform="translate(-154.536 -67.738)" fill="#ecddf6"/>
            <path id="XMLID_832_" d="M154.647,69.862a.1.1,0,1,1,.081-.11A.1.1,0,0,1,154.647,69.862Z" transform="translate(-154.536 -67.738)" fill="#ecddf6"/>
            <path id="XMLID_831_" d="M166.223,68.233a.1.1,0,1,1,.081-.11A.1.1,0,0,1,166.223,68.233Z" transform="translate(-154.536 -67.738)" fill="#ecddf6"/>
            <path id="XMLID_830_" d="M164.833,68.29a.253.253,0,1,1,.212-.289A.253.253,0,0,1,164.833,68.29Z" transform="translate(-154.536 -67.738)" fill="#ecddf6"/>
            <path id="XMLID_829_" d="M155.472,70.051a.253.253,0,1,1,.212-.289A.253.253,0,0,1,155.472,70.051Z" transform="translate(-154.536 -67.738)" fill="#ecddf6"/>
            <path id="XMLID_828_" d="M158.913,68.849a.253.253,0,1,1,.212-.289A.253.253,0,0,1,158.913,68.849Z" transform="translate(-154.536 -67.738)" fill="#ecddf6"/>
            <path id="XMLID_827_" d="M156.883,69.577a.156.156,0,1,1,.131-.178A.156.156,0,0,1,156.883,69.577Z" transform="translate(-154.536 -67.738)" fill="#ecddf6"/>
            <path id="XMLID_826_" d="M163.755,68.675a.156.156,0,1,1,.131-.178A.156.156,0,0,1,163.755,68.675Z" transform="translate(-154.536 -67.738)" fill="#ecddf6"/>
          </g>
          <g id="XMLID_842_" transform="translate(37.299 12.559)">
            <path id="XMLID_869_" d="M178.69,62.472a.813.813,0,1,1,1.087-.377A.813.813,0,0,1,178.69,62.472Z" transform="translate(-172.707 -58.39)" fill="#ecddf6"/>
            <path id="XMLID_868_" d="M181.153,62.762a.5.5,0,1,1,.672-.233A.5.5,0,0,1,181.153,62.762Z" transform="translate(-172.707 -58.39)" fill="#ecddf6"/>
            <path id="XMLID_867_" d="M176.76,61.535a.5.5,0,1,1,.671-.233A.5.5,0,0,1,176.76,61.535Z" transform="translate(-172.707 -58.39)" fill="#ecddf6"/>
            <path id="XMLID_866_" d="M180.1,63.778a.311.311,0,1,1,.415-.144A.311.311,0,0,1,180.1,63.778Z" transform="translate(-172.707 -58.39)" fill="#ecddf6"/>
            <path id="XMLID_861_" d="M176.86,59.907a.119.119,0,1,1,.159-.055A.119.119,0,0,1,176.86,59.907Z" transform="translate(-172.707 -58.39)" fill="#ecddf6"/>
            <path id="XMLID_860_" d="M180.234,62.793a.119.119,0,1,1,.159-.055A.119.119,0,0,1,180.234,62.793Z" transform="translate(-172.707 -58.39)" fill="#ecddf6"/>
            <path id="XMLID_859_" d="M182.769,62.641a.119.119,0,1,1,.159-.055A.119.119,0,0,1,182.769,62.641Z" transform="translate(-172.707 -58.39)" fill="#ecddf6"/>
            <path id="XMLID_858_" d="M186.563,65.731a.119.119,0,1,1,.159-.055A.119.119,0,0,1,186.563,65.731Z" transform="translate(-172.707 -58.39)" fill="#ecddf6"/>
            <path id="XMLID_850_" d="M182.195,64.58a.119.119,0,1,1,.159-.055A.119.119,0,0,1,182.195,64.58Z" transform="translate(-172.707 -58.39)" fill="#ecddf6"/>
            <path id="XMLID_849_" d="M172.773,58.616a.119.119,0,1,1,.159-.055A.119.119,0,0,1,172.773,58.616Z" transform="translate(-172.707 -58.39)" fill="#ecddf6"/>
            <path id="XMLID_848_" d="M185.6,65.051a.119.119,0,1,1,.159-.055A.119.119,0,0,1,185.6,65.051Z" transform="translate(-172.707 -58.39)" fill="#ecddf6"/>
            <path id="XMLID_847_" d="M184.158,64.137a.311.311,0,1,1,.415-.144A.311.311,0,0,1,184.158,64.137Z" transform="translate(-172.707 -58.39)" fill="#ecddf6"/>
            <path id="XMLID_846_" d="M173.475,59.383a.311.311,0,1,1,.415-.144A.311.311,0,0,1,173.475,59.383Z" transform="translate(-172.707 -58.39)" fill="#ecddf6"/>
            <path id="XMLID_845_" d="M177.788,60.571a.311.311,0,1,1,.415-.144A.311.311,0,0,1,177.788,60.571Z" transform="translate(-172.707 -58.39)" fill="#ecddf6"/>
            <path id="XMLID_844_" d="M175.231,59.889a.192.192,0,1,1,.256-.089A.192.192,0,0,1,175.231,59.889Z" transform="translate(-172.707 -58.39)" fill="#ecddf6"/>
            <path id="XMLID_843_" d="M182.8,63.773a.192.192,0,1,1,.257-.09A.192.192,0,0,1,182.8,63.773Z" transform="translate(-172.707 -58.39)" fill="#ecddf6"/>
          </g>
          <g id="XMLID_870_" transform="translate(29.062 28.466)">
            <path id="XMLID_971_" d="M169.32,75.6a.5.5,0,1,1,.621-.346A.5.5,0,0,1,169.32,75.6Z" transform="translate(-164.47 -74.298)" fill="#ecddf6"/>
            <path id="XMLID_970_" d="M170.379,75.944a.311.311,0,1,1,.385-.214A.311.311,0,0,1,170.379,75.944Z" transform="translate(-164.47 -74.298)" fill="#ecddf6"/>
            <path id="XMLID_969_" d="M166.413,74.908a.311.311,0,1,1,.384-.214A.311.311,0,0,1,166.413,74.908Z" transform="translate(-164.47 -74.298)" fill="#ecddf6"/>
            <path id="XMLID_968_" d="M169.168,76.4a.192.192,0,1,1,.237-.132A.192.192,0,0,1,169.168,76.4Z" transform="translate(-164.47 -74.298)" fill="#ecddf6"/>
            <path id="XMLID_967_" d="M167.149,75.253a.073.073,0,1,1,.091-.051A.073.073,0,0,1,167.149,75.253Z" transform="translate(-164.47 -74.298)" fill="#ecddf6"/>
            <path id="XMLID_965_" d="M169.511,76.649a.073.073,0,1,1,.091-.051A.073.073,0,0,1,169.511,76.649Z" transform="translate(-164.47 -74.298)" fill="#ecddf6"/>
            <path id="XMLID_916_" d="M171.038,76.285a.073.073,0,1,1,.091-.051A.073.073,0,0,1,171.038,76.285Z" transform="translate(-164.47 -74.298)" fill="#ecddf6"/>
            <path id="XMLID_882_" d="M173.679,77.76a.073.073,0,1,1,.091-.051A.073.073,0,0,1,173.679,77.76Z" transform="translate(-164.47 -74.298)" fill="#ecddf6"/>
            <path id="XMLID_881_" d="M170.9,77.527a.073.073,0,1,1,.091-.051A.073.073,0,0,1,170.9,77.527Z" transform="translate(-164.47 -74.298)" fill="#ecddf6"/>
            <path id="XMLID_880_" d="M164.523,74.9a.073.073,0,1,1,.091-.051A.073.073,0,0,1,164.523,74.9Z" transform="translate(-164.47 -74.298)" fill="#ecddf6"/>
            <path id="XMLID_879_" d="M173.02,77.449a.073.073,0,1,1,.091-.051A.073.073,0,0,1,173.02,77.449Z" transform="translate(-164.47 -74.298)" fill="#ecddf6"/>
            <path id="XMLID_878_" d="M171.852,76.591a.192.192,0,1,1,.237-.132A.192.192,0,0,1,171.852,76.591Z" transform="translate(-164.47 -74.298)" fill="#ecddf6"/>
            <path id="XMLID_877_" d="M165.225,74.946a.192.192,0,1,1,.237-.132A.192.192,0,0,1,165.225,74.946Z" transform="translate(-164.47 -74.298)" fill="#ecddf6"/>
            <path id="XMLID_876_" d="M167.977,75.1a.192.192,0,1,1,.237-.132A.192.192,0,0,1,167.977,75.1Z" transform="translate(-164.47 -74.298)" fill="#ecddf6"/>
            <path id="XMLID_875_" d="M166.155,75.417a.119.119,0,1,1,.147-.081A.118.118,0,0,1,166.155,75.417Z" transform="translate(-164.47 -74.298)" fill="#ecddf6"/>
            <path id="XMLID_872_" d="M171.178,76.971a.119.119,0,1,1,.147-.081A.118.118,0,0,1,171.178,76.971Z" transform="translate(-164.47 -74.298)" fill="#ecddf6"/>
          </g>
          <g id="XMLID_973_" transform="translate(21.702 32.532)">
            <path id="XMLID_1010_" d="M161.816,79.363a.5.5,0,1,1,.409-.582A.5.5,0,0,1,161.816,79.363Z" transform="translate(-157.11 -78.364)" fill="#ecddf6"/>
            <path id="XMLID_1009_" d="M162.921,79.217a.311.311,0,1,1,.253-.36A.311.311,0,0,1,162.921,79.217Z" transform="translate(-157.11 -78.364)" fill="#ecddf6"/>
            <path id="XMLID_1008_" d="M158.9,80.008a.311.311,0,1,1,.253-.36A.311.311,0,0,1,158.9,80.008Z" transform="translate(-157.11 -78.364)" fill="#ecddf6"/>
            <path id="XMLID_1007_" d="M162.029,80.153a.192.192,0,1,1,.156-.222A.192.192,0,0,1,162.029,80.153Z" transform="translate(-157.11 -78.364)" fill="#ecddf6"/>
            <path id="XMLID_1006_" d="M159.712,80a.073.073,0,1,1,.06-.085A.073.073,0,0,1,159.712,80Z" transform="translate(-157.11 -78.364)" fill="#ecddf6"/>
            <path id="XMLID_1005_" d="M162.446,80.228a.073.073,0,1,1,.06-.085A.073.073,0,0,1,162.446,80.228Z" transform="translate(-157.11 -78.364)" fill="#ecddf6"/>
            <path id="XMLID_1004_" d="M163.663,79.237a.073.073,0,1,1,.06-.085A.073.073,0,0,1,163.663,79.237Z" transform="translate(-157.11 -78.364)" fill="#ecddf6"/>
            <path id="XMLID_1002_" d="M166.682,79.416a.073.073,0,1,1,.06-.085A.073.073,0,0,1,166.682,79.416Z" transform="translate(-157.11 -78.364)" fill="#ecddf6"/>
            <path id="XMLID_1001_" d="M164.075,80.417a.073.073,0,1,1,.06-.085A.073.073,0,0,1,164.075,80.417Z" transform="translate(-157.11 -78.364)" fill="#ecddf6"/>
            <path id="XMLID_1000_" d="M157.2,80.827a.073.073,0,1,1,.06-.085A.073.073,0,0,1,157.2,80.827Z" transform="translate(-157.11 -78.364)" fill="#ecddf6"/>
            <path id="XMLID_994_" d="M165.954,79.423a.073.073,0,1,1,.06-.085A.074.074,0,0,1,165.954,79.423Z" transform="translate(-157.11 -78.364)" fill="#ecddf6"/>
            <path id="XMLID_993_" d="M164.529,79.159a.192.192,0,1,1,.156-.222A.192.192,0,0,1,164.529,79.159Z" transform="translate(-157.11 -78.364)" fill="#ecddf6"/>
            <path id="XMLID_992_" d="M157.845,80.559a.192.192,0,1,1,.156-.222A.192.192,0,0,1,157.845,80.559Z" transform="translate(-157.11 -78.364)" fill="#ecddf6"/>
            <path id="XMLID_991_" d="M160.393,79.5a.192.192,0,1,1,.156-.222A.192.192,0,0,1,160.393,79.5Z" transform="translate(-157.11 -78.364)" fill="#ecddf6"/>
            <path id="XMLID_990_" d="M158.888,80.578a.119.119,0,1,1,.1-.137A.119.119,0,0,1,158.888,80.578Z" transform="translate(-157.11 -78.364)" fill="#ecddf6"/>
            <path id="XMLID_989_" d="M164.087,79.794a.119.119,0,1,1,.1-.137A.119.119,0,0,1,164.087,79.794Z" transform="translate(-157.11 -78.364)" fill="#ecddf6"/>
          </g>
        </g>
        <g id="XMLID_2257_" transform="translate(0 6.319)">
          <g id="XMLID_252_">
            <g id="XMLID_249_" transform="translate(13.171)">
              <line id="XMLID_250_" y1="12.638" fill="none" stroke="#283456" stroke-linecap="round" stroke-linejoin="round" stroke-miterlimit="10" stroke-width="3.856"/>
              <line id="XMLID_251_" y1="12.638" transform="translate(21.744)" fill="none" stroke="#283456" stroke-linecap="round" stroke-linejoin="round" stroke-miterlimit="10" stroke-width="3.856"/>
            </g>
            <path id="XMLID_229_" d="M59.916,82.568s-1.29,3.685,4.01,5.853,7.038-1.806,7.038-1.806" transform="translate(-48.894 -52.15)" fill="none" stroke="#283456" stroke-linecap="round" stroke-linejoin="round" stroke-miterlimit="10" stroke-width="3.856"/>
            <path id="XMLID_230_" d="M48.894,74.844s.445,5.465,5.57,3.873" transform="translate(-48.894 -52.15)" fill="none" stroke="#283456" stroke-linecap="round" stroke-linejoin="round" stroke-miterlimit="10" stroke-width="3.856"/>
            <path id="XMLID_244_" d="M92.584,80.389s-.328,4.97-5.453,3.377" transform="translate(-48.894 -52.15)" fill="none" stroke="#283456" stroke-linecap="round" stroke-linejoin="round" stroke-miterlimit="10" stroke-width="3.856"/>
            <g id="XMLID_199_" transform="translate(0.117 10.603)">
              <g id="XMLID_203_">
                <path id="XMLID_115_" d="M98.036,77.012a29.453,29.453,0,0,0-49.025-2.146" transform="translate(-49.011 -62.753)" fill="none" stroke="#7dfe6f" stroke-linecap="round" stroke-linejoin="round" stroke-width="3.856" opacity="0.18"/>
                <path id="XMLID_114_" d="M98.036,77.012a29.453,29.453,0,0,0-49.025-2.146" transform="translate(-49.011 -62.753)" fill="none" stroke="#7dfe6f" stroke-linecap="round" stroke-linejoin="round" stroke-width="3.374" opacity="0.18"/>
                <path id="XMLID_113_" d="M98.036,77.012a29.453,29.453,0,0,0-49.025-2.146" transform="translate(-49.011 -62.753)" fill="none" stroke="#7dfe6f" stroke-linecap="round" stroke-linejoin="round" stroke-width="2.892" opacity="0.18"/>
                <path id="XMLID_112_" d="M98.036,77.012a29.453,29.453,0,0,0-49.025-2.146" transform="translate(-49.011 -62.753)" fill="none" stroke="#7dfe6f" stroke-linecap="round" stroke-linejoin="round" stroke-width="2.41" opacity="0.18"/>
                <path id="XMLID_105_" d="M98.036,77.012a29.453,29.453,0,0,0-49.025-2.146" transform="translate(-49.011 -62.753)" fill="none" stroke="#7dfe6f" stroke-linecap="round" stroke-linejoin="round" stroke-width="0.964"/>
              </g>
              <g id="XMLID_198_" transform="translate(5.452 6.546)">
                <path id="XMLID_109_" d="M54.463,78.717a22.881,22.881,0,0,1,38.12,1.673" transform="translate(-54.463 -69.299)" fill="none" stroke="#7dfe6f" stroke-linecap="round" stroke-linejoin="round" stroke-width="3.856" opacity="0.18"/>
                <path id="XMLID_108_" d="M54.463,78.717a22.881,22.881,0,0,1,38.12,1.673" transform="translate(-54.463 -69.299)" fill="none" stroke="#7dfe6f" stroke-linecap="round" stroke-linejoin="round" stroke-width="3.374" opacity="0.18"/>
                <path id="XMLID_107_" d="M54.463,78.717a22.881,22.881,0,0,1,38.12,1.673" transform="translate(-54.463 -69.299)" fill="none" stroke="#7dfe6f" stroke-linecap="round" stroke-linejoin="round" stroke-width="2.892" opacity="0.18"/>
                <path id="XMLID_106_" d="M54.463,78.717a22.881,22.881,0,0,1,38.12,1.673" transform="translate(-54.463 -69.299)" fill="none" stroke="#7dfe6f" stroke-linecap="round" stroke-linejoin="round" stroke-width="2.41" opacity="0.18"/>
                <path id="XMLID_99_" d="M54.463,78.717a22.881,22.881,0,0,1,38.12,1.673" transform="translate(-54.463 -69.299)" fill="none" stroke="#7dfe6f" stroke-linecap="round" stroke-linejoin="round" stroke-width="0.964"/>
              </g>
              <g id="XMLID_196_" transform="translate(10.905 13.094)">
                <path id="XMLID_103_" d="M87.131,83.766a16.358,16.358,0,0,0-27.215-1.2" transform="translate(-59.916 -75.847)" fill="none" stroke="#7dfe6f" stroke-linecap="round" stroke-linejoin="round" stroke-width="3.856" opacity="0.18"/>
                <path id="XMLID_102_" d="M87.131,83.766a16.358,16.358,0,0,0-27.215-1.2" transform="translate(-59.916 -75.847)" fill="none" stroke="#7dfe6f" stroke-linecap="round" stroke-linejoin="round" stroke-width="3.374" opacity="0.18"/>
                <path id="XMLID_101_" d="M87.131,83.766a16.358,16.358,0,0,0-27.215-1.2" transform="translate(-59.916 -75.847)" fill="none" stroke="#7dfe6f" stroke-linecap="round" stroke-linejoin="round" stroke-width="2.892" opacity="0.18"/>
                <path id="XMLID_100_" d="M87.131,83.766a16.358,16.358,0,0,0-27.215-1.2" transform="translate(-59.916 -75.847)" fill="none" stroke="#7dfe6f" stroke-linecap="round" stroke-linejoin="round" stroke-width="2.41" opacity="0.18"/>
                <path id="XMLID_95_" d="M87.131,83.766a16.358,16.358,0,0,0-27.215-1.2" transform="translate(-59.916 -75.847)" fill="none" stroke="#7dfe6f" stroke-linecap="round" stroke-linejoin="round" stroke-width="0.964"/>
              </g>
              <g id="XMLID_197_" transform="translate(21.38 22.535)">
                <circle id="XMLID_163_" cx="3.133" cy="3.133" r="3.133" fill="none" stroke="#7dfe6f" stroke-linecap="round" stroke-linejoin="round" stroke-width="3.856" opacity="0.18"/>
                <circle id="XMLID_162_" cx="3.133" cy="3.133" r="3.133" fill="none" stroke="#7dfe6f" stroke-linecap="round" stroke-linejoin="round" stroke-width="3.374" opacity="0.18"/>
                <circle id="XMLID_97_" cx="3.133" cy="3.133" r="3.133" fill="none" stroke="#7dfe6f" stroke-linecap="round" stroke-linejoin="round" stroke-width="2.892" opacity="0.18"/>
                <circle id="XMLID_96_" cx="3.133" cy="3.133" r="3.133" fill="none" stroke="#7dfe6f" stroke-linecap="round" stroke-linejoin="round" stroke-width="2.41" opacity="0.18"/>
                <circle id="XMLID_94_" cx="3.133" cy="3.133" r="3.133" fill="none" stroke="#7dfe6f" stroke-linecap="round" stroke-linejoin="round" stroke-width="0.964"/>
              </g>
            </g>
          </g>
          <g id="XMLID_1011_" transform="translate(6.381 10.647)">
            <path id="XMLID_1028_" d="M62.983,64.487a.865.865,0,1,1,.565-1.084A.865.865,0,0,1,62.983,64.487Z" transform="translate(-55.274 -62.797)" fill="#ecddf6"/>
            <path id="XMLID_1027_" d="M64.833,63.987a.534.534,0,1,1,.35-.67A.534.534,0,0,1,64.833,63.987Z" transform="translate(-55.274 -62.797)" fill="#ecddf6"/>
            <path id="XMLID_1026_" d="M58.157,66.248a.535.535,0,1,1,.349-.67A.534.534,0,0,1,58.157,66.248Z" transform="translate(-55.274 -62.797)" fill="#ecddf6"/>
            <path id="XMLID_1025_" d="M63.524,65.786a.33.33,0,1,1,.216-.414A.33.33,0,0,1,63.524,65.786Z" transform="translate(-55.274 -62.797)" fill="#ecddf6"/>
            <path id="XMLID_1023_" d="M59.54,66.049a.126.126,0,1,1,.082-.158A.126.126,0,0,1,59.54,66.049Z" transform="translate(-55.274 -62.797)" fill="#ecddf6"/>
            <path id="XMLID_1022_" d="M64.253,65.82a.126.126,0,1,1,.082-.158A.126.126,0,0,1,64.253,65.82Z" transform="translate(-55.274 -62.797)" fill="#ecddf6"/>
            <path id="XMLID_1021_" d="M66.1,63.853a.126.126,0,1,1,.082-.158A.126.126,0,0,1,66.1,63.853Z" transform="translate(-55.274 -62.797)" fill="#ecddf6"/>
            <path id="XMLID_1020_" d="M71.291,63.475a.126.126,0,1,1,.082-.158A.126.126,0,0,1,71.291,63.475Z" transform="translate(-55.274 -62.797)" fill="#ecddf6"/>
            <path id="XMLID_1019_" d="M67.073,65.771a.126.126,0,1,1,.082-.158A.126.126,0,0,1,67.073,65.771Z" transform="translate(-55.274 -62.797)" fill="#ecddf6"/>
            <path id="XMLID_1018_" d="M55.438,68.031a.126.126,0,1,1,.082-.158A.126.126,0,0,1,55.438,68.031Z" transform="translate(-55.274 -62.797)" fill="#ecddf6"/>
            <path id="XMLID_1017_" d="M70.05,63.651a.126.126,0,1,1,.082-.158A.126.126,0,0,1,70.05,63.651Z" transform="translate(-55.274 -62.797)" fill="#ecddf6"/>
            <path id="XMLID_1016_" d="M67.561,63.524a.33.33,0,1,1,.216-.414A.33.33,0,0,1,67.561,63.524Z" transform="translate(-55.274 -62.797)" fill="#ecddf6"/>
            <path id="XMLID_1015_" d="M56.485,67.426a.33.33,0,1,1,.216-.414A.33.33,0,0,1,56.485,67.426Z" transform="translate(-55.274 -62.797)" fill="#ecddf6"/>
            <path id="XMLID_1014_" d="M60.588,65.052a.33.33,0,1,1,.216-.414A.33.33,0,0,1,60.588,65.052Z" transform="translate(-55.274 -62.797)" fill="#ecddf6"/>
            <path id="XMLID_1013_" d="M58.267,67.224a.2.2,0,1,1,.134-.256A.2.2,0,0,1,58.267,67.224Z" transform="translate(-55.274 -62.797)" fill="#ecddf6"/>
            <path id="XMLID_1012_" d="M66.953,64.707a.2.2,0,1,1,.134-.256A.2.2,0,0,1,66.953,64.707Z" transform="translate(-55.274 -62.797)" fill="#ecddf6"/>
          </g>
          <g id="XMLID_1029_" transform="translate(21.182 22.76)">
            <path id="XMLID_1050_" d="M78.472,76.6a.865.865,0,1,0-.565-1.085A.865.865,0,0,0,78.472,76.6Z" transform="translate(-70.076 -74.91)" fill="#ecddf6"/>
            <path id="XMLID_1049_" d="M76.622,76.1a.535.535,0,1,0-.349-.67A.535.535,0,0,0,76.622,76.1Z" transform="translate(-70.076 -74.91)" fill="#ecddf6"/>
            <path id="XMLID_1048_" d="M83.3,78.361a.534.534,0,1,0-.349-.67A.535.535,0,0,0,83.3,78.361Z" transform="translate(-70.076 -74.91)" fill="#ecddf6"/>
            <path id="XMLID_1047_" d="M77.931,77.9a.33.33,0,1,0-.216-.414A.33.33,0,0,0,77.931,77.9Z" transform="translate(-70.076 -74.91)" fill="#ecddf6"/>
            <path id="XMLID_1046_" d="M81.915,78.162A.126.126,0,1,0,81.833,78,.126.126,0,0,0,81.915,78.162Z" transform="translate(-70.076 -74.91)" fill="#ecddf6"/>
            <path id="XMLID_1045_" d="M77.2,77.933a.126.126,0,1,0-.082-.158A.126.126,0,0,0,77.2,77.933Z" transform="translate(-70.076 -74.91)" fill="#ecddf6"/>
            <path id="XMLID_1044_" d="M75.352,75.966a.126.126,0,1,0-.082-.158A.126.126,0,0,0,75.352,75.966Z" transform="translate(-70.076 -74.91)" fill="#ecddf6"/>
            <path id="XMLID_1043_" d="M70.164,75.588a.126.126,0,1,0-.082-.158A.126.126,0,0,0,70.164,75.588Z" transform="translate(-70.076 -74.91)" fill="#ecddf6"/>
            <path id="XMLID_1042_" d="M74.381,77.884a.126.126,0,1,0-.082-.158A.126.126,0,0,0,74.381,77.884Z" transform="translate(-70.076 -74.91)" fill="#ecddf6"/>
            <path id="XMLID_1041_" d="M86.016,80.144a.126.126,0,1,0-.082-.158A.126.126,0,0,0,86.016,80.144Z" transform="translate(-70.076 -74.91)" fill="#ecddf6"/>
            <path id="XMLID_1040_" d="M71.4,75.764a.126.126,0,1,0-.082-.158A.126.126,0,0,0,71.4,75.764Z" transform="translate(-70.076 -74.91)" fill="#ecddf6"/>
            <path id="XMLID_1039_" d="M73.893,75.637a.33.33,0,1,0-.216-.414A.33.33,0,0,0,73.893,75.637Z" transform="translate(-70.076 -74.91)" fill="#ecddf6"/>
            <path id="XMLID_1038_" d="M84.97,79.539a.33.33,0,1,0-.216-.414A.33.33,0,0,0,84.97,79.539Z" transform="translate(-70.076 -74.91)" fill="#ecddf6"/>
            <path id="XMLID_1037_" d="M80.866,77.165a.33.33,0,1,0-.216-.414A.33.33,0,0,0,80.866,77.165Z" transform="translate(-70.076 -74.91)" fill="#ecddf6"/>
            <path id="XMLID_1031_" d="M83.187,79.336a.2.2,0,1,0-.134-.256A.2.2,0,0,0,83.187,79.336Z" transform="translate(-70.076 -74.91)" fill="#ecddf6"/>
            <path id="XMLID_1030_" d="M74.5,76.82a.2.2,0,1,0-.134-.256A.2.2,0,0,0,74.5,76.82Z" transform="translate(-70.076 -74.91)" fill="#ecddf6"/>
          </g>
          <g id="XMLID_1051_" transform="translate(24.019 10.055)">
            <path id="XMLID_1607_" d="M81.309,63.9a.865.865,0,1,0-.566-1.084A.865.865,0,0,0,81.309,63.9Z" transform="translate(-72.913 -62.205)" fill="#ecddf6"/>
            <path id="XMLID_1606_" d="M79.459,63.4a.534.534,0,1,0-.35-.67A.534.534,0,0,0,79.459,63.4Z" transform="translate(-72.913 -62.205)" fill="#ecddf6"/>
            <path id="XMLID_1605_" d="M86.135,65.656a.535.535,0,1,0-.35-.67A.534.534,0,0,0,86.135,65.656Z" transform="translate(-72.913 -62.205)" fill="#ecddf6"/>
            <path id="XMLID_1604_" d="M80.768,65.194a.33.33,0,1,0-.216-.414A.33.33,0,0,0,80.768,65.194Z" transform="translate(-72.913 -62.205)" fill="#ecddf6"/>
            <path id="XMLID_1603_" d="M84.752,65.457a.126.126,0,1,0-.082-.158A.126.126,0,0,0,84.752,65.457Z" transform="translate(-72.913 -62.205)" fill="#ecddf6"/>
            <path id="XMLID_1602_" d="M80.039,65.228a.126.126,0,1,0-.082-.158A.126.126,0,0,0,80.039,65.228Z" transform="translate(-72.913 -62.205)" fill="#ecddf6"/>
            <path id="XMLID_1601_" d="M78.189,63.261a.126.126,0,1,0-.082-.158A.126.126,0,0,0,78.189,63.261Z" transform="translate(-72.913 -62.205)" fill="#ecddf6"/>
            <path id="XMLID_1060_" d="M73,62.883a.126.126,0,1,0-.082-.158A.126.126,0,0,0,73,62.883Z" transform="translate(-72.913 -62.205)" fill="#ecddf6"/>
            <path id="XMLID_1059_" d="M77.218,65.179a.126.126,0,1,0-.082-.158A.126.126,0,0,0,77.218,65.179Z" transform="translate(-72.913 -62.205)" fill="#ecddf6"/>
            <path id="XMLID_1058_" d="M88.853,67.439a.126.126,0,1,0-.082-.158A.126.126,0,0,0,88.853,67.439Z" transform="translate(-72.913 -62.205)" fill="#ecddf6"/>
            <path id="XMLID_1057_" d="M74.242,63.059a.126.126,0,1,0-.082-.158A.126.126,0,0,0,74.242,63.059Z" transform="translate(-72.913 -62.205)" fill="#ecddf6"/>
            <path id="XMLID_1056_" d="M76.731,62.932a.33.33,0,1,0-.216-.414A.33.33,0,0,0,76.731,62.932Z" transform="translate(-72.913 -62.205)" fill="#ecddf6"/>
            <path id="XMLID_1055_" d="M87.807,66.834a.33.33,0,1,0-.216-.414A.33.33,0,0,0,87.807,66.834Z" transform="translate(-72.913 -62.205)" fill="#ecddf6"/>
            <path id="XMLID_1054_" d="M83.7,64.46a.33.33,0,1,0-.216-.414A.33.33,0,0,0,83.7,64.46Z" transform="translate(-72.913 -62.205)" fill="#ecddf6"/>
            <path id="XMLID_1053_" d="M86.025,66.631a.2.2,0,1,0-.134-.256A.2.2,0,0,0,86.025,66.631Z" transform="translate(-72.913 -62.205)" fill="#ecddf6"/>
            <path id="XMLID_1052_" d="M77.339,64.115a.2.2,0,1,0-.134-.256A.2.2,0,0,0,77.339,64.115Z" transform="translate(-72.913 -62.205)" fill="#ecddf6"/>
          </g>
        </g>
        <g id="XMLID_2258_" transform="translate(0 84.118)">
          <g id="XMLID_436_" transform="translate(1.536)">
            <g id="XMLID_677_" transform="translate(21.287)">
              <line id="XMLID_680_" y1="14.615" fill="none" stroke="#283456" stroke-linecap="round" stroke-linejoin="round" stroke-miterlimit="10" stroke-width="3.856"/>
              <line id="XMLID_679_" y1="14.615" transform="translate(23.19)" fill="none" stroke="#283456" stroke-linecap="round" stroke-linejoin="round" stroke-miterlimit="10" stroke-width="3.856"/>
            </g>
            <g id="XMLID_675_" transform="translate(0 6.319)">
              <path id="XMLID_674_" d="M97.825,147.291A11.591,11.591,0,0,0,85.4,145.44c-8.074,3.647-5.712,14.234-4.425,16.138" transform="translate(-50.43 -136.269)" fill="none" stroke="#283456" stroke-linecap="round" stroke-linejoin="round" stroke-miterlimit="10" stroke-width="3.856"/>
              <path id="XMLID_676_" d="M69.913,174.314a11.591,11.591,0,0,0,12.422,1.851c8.074-3.647,5.712-14.234,4.425-16.138" transform="translate(-50.43 -136.269)" fill="none" stroke="#283456" stroke-linecap="round" stroke-linejoin="round" stroke-miterlimit="10" stroke-width="3.856"/>
              <g id="XMLID_544_">
                <g id="XMLID_672_" transform="translate(0 0.117)">
                  <path id="XMLID_801_" d="M62.521,185.529s5.465-.445,3.873-5.57" transform="translate(-50.43 -136.386)" fill="none" stroke="#283456" stroke-linecap="round" stroke-linejoin="round" stroke-miterlimit="10" stroke-width="3.856"/>
                  <path id="XMLID_800_" d="M68.067,141.839s4.97.328,3.377,5.453" transform="translate(-50.43 -136.386)" fill="none" stroke="#283456" stroke-linecap="round" stroke-linejoin="round" stroke-miterlimit="10" stroke-width="3.856"/>
                  <g id="XMLID_673_">
                    <g id="XMLID_787_">
                      <path id="XMLID_89_" d="M64.689,136.386a29.453,29.453,0,0,0-2.146,49.025" transform="translate(-50.43 -136.386)" fill="none" stroke="#fec045" stroke-linecap="round" stroke-linejoin="round" stroke-width="3.856" opacity="0.18"/>
                      <path id="XMLID_88_" d="M64.689,136.386a29.453,29.453,0,0,0-2.146,49.025" transform="translate(-50.43 -136.386)" fill="none" stroke="#fec045" stroke-linecap="round" stroke-linejoin="round" stroke-width="3.374" opacity="0.18"/>
                      <path id="XMLID_87_" d="M64.689,136.386a29.453,29.453,0,0,0-2.146,49.025" transform="translate(-50.43 -136.386)" fill="none" stroke="#fec045" stroke-linecap="round" stroke-linejoin="round" stroke-width="2.892" opacity="0.18"/>
                      <path id="XMLID_86_" d="M64.689,136.386a29.453,29.453,0,0,0-2.146,49.025" transform="translate(-50.43 -136.386)" fill="none" stroke="#fec045" stroke-linecap="round" stroke-linejoin="round" stroke-width="2.41" opacity="0.18"/>
                      <path id="XMLID_79_" d="M64.689,136.386a29.453,29.453,0,0,0-2.146,49.025" transform="translate(-50.43 -136.386)" fill="none" stroke="#fec045" stroke-linecap="round" stroke-linejoin="round" stroke-width="0.964"/>
                    </g>
                    <g id="XMLID_752_" transform="translate(6.545 5.452)">
                      <path id="XMLID_83_" d="M66.394,179.959a22.88,22.88,0,0,1,1.673-38.12" transform="translate(-56.976 -141.838)" fill="none" stroke="#fec045" stroke-linecap="round" stroke-linejoin="round" stroke-width="3.856" opacity="0.18"/>
                      <path id="XMLID_82_" d="M66.394,179.959a22.88,22.88,0,0,1,1.673-38.12" transform="translate(-56.976 -141.838)" fill="none" stroke="#fec045" stroke-linecap="round" stroke-linejoin="round" stroke-width="3.374" opacity="0.18"/>
                      <path id="XMLID_81_" d="M66.394,179.959a22.88,22.88,0,0,1,1.673-38.12" transform="translate(-56.976 -141.838)" fill="none" stroke="#fec045" stroke-linecap="round" stroke-linejoin="round" stroke-width="2.892" opacity="0.18"/>
                      <path id="XMLID_80_" d="M66.394,179.959a22.88,22.88,0,0,1,1.673-38.12" transform="translate(-56.976 -141.838)" fill="none" stroke="#fec045" stroke-linecap="round" stroke-linejoin="round" stroke-width="2.41" opacity="0.18"/>
                      <path id="XMLID_73_" d="M66.394,179.959a22.88,22.88,0,0,1,1.673-38.12" transform="translate(-56.976 -141.838)" fill="none" stroke="#fec045" stroke-linecap="round" stroke-linejoin="round" stroke-width="0.964"/>
                    </g>
                    <g id="XMLID_697_" transform="translate(13.094 10.905)">
                      <path id="XMLID_77_" d="M71.443,147.291a16.358,16.358,0,0,0-1.2,27.215" transform="translate(-63.524 -147.291)" fill="none" stroke="#fec045" stroke-linecap="round" stroke-linejoin="round" stroke-width="3.856" opacity="0.18"/>
                      <path id="XMLID_76_" d="M71.443,147.291a16.358,16.358,0,0,0-1.2,27.215" transform="translate(-63.524 -147.291)" fill="none" stroke="#fec045" stroke-linecap="round" stroke-linejoin="round" stroke-width="3.374" opacity="0.18"/>
                      <path id="XMLID_75_" d="M71.443,147.291a16.358,16.358,0,0,0-1.2,27.215" transform="translate(-63.524 -147.291)" fill="none" stroke="#fec045" stroke-linecap="round" stroke-linejoin="round" stroke-width="2.892" opacity="0.18"/>
                      <path id="XMLID_74_" d="M71.443,147.291a16.358,16.358,0,0,0-1.2,27.215" transform="translate(-63.524 -147.291)" fill="none" stroke="#fec045" stroke-linecap="round" stroke-linejoin="round" stroke-width="2.41" opacity="0.18"/>
                      <path id="XMLID_67_" d="M71.443,147.291a16.358,16.358,0,0,0-1.2,27.215" transform="translate(-63.524 -147.291)" fill="none" stroke="#fec045" stroke-linecap="round" stroke-linejoin="round" stroke-width="0.964"/>
                    </g>
                  </g>
                </g>
                <g id="XMLID_656_" transform="translate(45.882)">
                  <path id="XMLID_748_" d="M105.549,136.269s-5.465.445-3.873,5.57" transform="translate(-96.312 -136.269)" fill="none" stroke="#283456" stroke-linecap="round" stroke-linejoin="round" stroke-miterlimit="10" stroke-width="3.856"/>
                  <path id="XMLID_747_" d="M100,179.959s-4.97-.328-3.377-5.453" transform="translate(-96.312 -136.269)" fill="none" stroke="#283456" stroke-linecap="round" stroke-linejoin="round" stroke-miterlimit="10" stroke-width="3.856"/>
                  <g id="XMLID_657_" transform="translate(0.315 0.118)">
                    <g id="XMLID_737_" transform="translate(6.754)">
                      <path id="XMLID_71_" d="M103.381,185.411a29.453,29.453,0,0,0,2.146-49.025" transform="translate(-103.381 -136.386)" fill="none" stroke="#fec045" stroke-linecap="round" stroke-linejoin="round" stroke-width="3.856" opacity="0.18"/>
                      <path id="XMLID_70_" d="M103.381,185.411a29.453,29.453,0,0,0,2.146-49.025" transform="translate(-103.381 -136.386)" fill="none" stroke="#fec045" stroke-linecap="round" stroke-linejoin="round" stroke-width="3.374" opacity="0.18"/>
                      <path id="XMLID_69_" d="M103.381,185.411a29.453,29.453,0,0,0,2.146-49.025" transform="translate(-103.381 -136.386)" fill="none" stroke="#fec045" stroke-linecap="round" stroke-linejoin="round" stroke-width="2.892" opacity="0.18"/>
                      <path id="XMLID_68_" d="M103.381,185.411a29.453,29.453,0,0,0,2.146-49.025" transform="translate(-103.381 -136.386)" fill="none" stroke="#fec045" stroke-linecap="round" stroke-linejoin="round" stroke-width="2.41" opacity="0.18"/>
                      <path id="XMLID_61_" d="M103.381,185.411a29.453,29.453,0,0,0,2.146-49.025" transform="translate(-103.381 -136.386)" fill="none" stroke="#fec045" stroke-linecap="round" stroke-linejoin="round" stroke-width="0.964"/>
                    </g>
                    <g id="XMLID_727_" transform="translate(3.376 5.452)">
                      <path id="XMLID_65_" d="M101.676,141.839A22.881,22.881,0,0,1,100,179.959" transform="translate(-100.003 -141.839)" fill="none" stroke="#fec045" stroke-linecap="round" stroke-linejoin="round" stroke-width="3.856" opacity="0.18"/>
                      <path id="XMLID_64_" d="M101.676,141.839A22.881,22.881,0,0,1,100,179.959" transform="translate(-100.003 -141.839)" fill="none" stroke="#fec045" stroke-linecap="round" stroke-linejoin="round" stroke-width="3.374" opacity="0.18"/>
                      <path id="XMLID_63_" d="M101.676,141.839A22.881,22.881,0,0,1,100,179.959" transform="translate(-100.003 -141.839)" fill="none" stroke="#fec045" stroke-linecap="round" stroke-linejoin="round" stroke-width="2.892" opacity="0.18"/>
                      <path id="XMLID_62_" d="M101.676,141.839A22.881,22.881,0,0,1,100,179.959" transform="translate(-100.003 -141.839)" fill="none" stroke="#fec045" stroke-linecap="round" stroke-linejoin="round" stroke-width="2.41" opacity="0.18"/>
                      <path id="XMLID_55_" d="M101.676,141.839A22.881,22.881,0,0,1,100,179.959" transform="translate(-100.003 -141.839)" fill="none" stroke="#fec045" stroke-linecap="round" stroke-linejoin="round" stroke-width="0.964"/>
                    </g>
                    <g id="XMLID_678_" transform="translate(0 10.905)">
                      <path id="XMLID_59_" d="M96.627,174.506a16.358,16.358,0,0,0,1.2-27.215" transform="translate(-96.627 -147.291)" fill="none" stroke="#fec045" stroke-linecap="round" stroke-linejoin="round" stroke-width="3.856" opacity="0.18"/>
                      <path id="XMLID_58_" d="M96.627,174.506a16.358,16.358,0,0,0,1.2-27.215" transform="translate(-96.627 -147.291)" fill="none" stroke="#fec045" stroke-linecap="round" stroke-linejoin="round" stroke-width="3.374" opacity="0.18"/>
                      <path id="XMLID_57_" d="M96.627,174.506a16.358,16.358,0,0,0,1.2-27.215" transform="translate(-96.627 -147.291)" fill="none" stroke="#fec045" stroke-linecap="round" stroke-linejoin="round" stroke-width="2.892" opacity="0.18"/>
                      <path id="XMLID_56_" d="M96.627,174.506a16.358,16.358,0,0,0,1.2-27.215" transform="translate(-96.627 -147.291)" fill="none" stroke="#fec045" stroke-linecap="round" stroke-linejoin="round" stroke-width="2.41" opacity="0.18"/>
                      <path id="XMLID_50_" d="M96.627,174.506a16.358,16.358,0,0,0,1.2-27.215" transform="translate(-96.627 -147.291)" fill="none" stroke="#fec045" stroke-linecap="round" stroke-linejoin="round" stroke-width="0.964"/>
                    </g>
                  </g>
                </g>
              </g>
              <g id="XMLID_671_" transform="translate(30.472 21.497)">
                <circle id="XMLID_157_" cx="3.133" cy="3.133" r="3.133" fill="none" stroke="#fec045" stroke-linecap="round" stroke-linejoin="round" stroke-width="3.856" opacity="0.18"/>
                <circle id="XMLID_53_" cx="3.133" cy="3.133" r="3.133" fill="none" stroke="#fec045" stroke-linecap="round" stroke-linejoin="round" stroke-width="3.374" opacity="0.18"/>
                <circle id="XMLID_52_" cx="3.133" cy="3.133" r="3.133" fill="none" stroke="#fec045" stroke-linecap="round" stroke-linejoin="round" stroke-width="2.892" opacity="0.18"/>
                <circle id="XMLID_51_" cx="3.133" cy="3.133" r="3.133" fill="none" stroke="#fec045" stroke-linecap="round" stroke-linejoin="round" stroke-width="2.41" opacity="0.18"/>
                <circle id="XMLID_48_" cx="3.133" cy="3.133" r="3.133" fill="none" stroke="#fec045" stroke-linecap="round" stroke-linejoin="round" stroke-width="0.964"/>
              </g>
            </g>
          </g>
          <g id="XMLID_1608_" transform="translate(65.189 14.683)">
            <path id="XMLID_1633_" d="M117.282,152.52a.865.865,0,1,0,.667-1.025A.865.865,0,0,0,117.282,152.52Z" transform="translate(-114.083 -144.633)" fill="#ecddf6"/>
            <path id="XMLID_1632_" d="M116.809,150.663a.534.534,0,1,0,.412-.633A.534.534,0,0,0,116.809,150.663Z" transform="translate(-114.083 -144.633)" fill="#ecddf6"/>
            <path id="XMLID_1622_" d="M118.117,157.589a.535.535,0,1,0,.413-.633A.534.534,0,0,0,118.117,157.589Z" transform="translate(-114.083 -144.633)" fill="#ecddf6"/>
            <path id="XMLID_1621_" d="M115.885,152.686a.33.33,0,1,0,.255-.391A.331.331,0,0,0,115.885,152.686Z" transform="translate(-114.083 -144.633)" fill="#ecddf6"/>
            <path id="XMLID_1620_" d="M117.611,156.287a.126.126,0,1,0,.1-.149A.126.126,0,0,0,117.611,156.287Z" transform="translate(-114.083 -144.633)" fill="#ecddf6"/>
            <path id="XMLID_1619_" d="M115.5,152.068a.126.126,0,1,0,.1-.149A.126.126,0,0,0,115.5,152.068Z" transform="translate(-114.083 -144.633)" fill="#ecddf6"/>
            <path id="XMLID_1618_" d="M116.3,149.491a.126.126,0,1,0,.1-.149A.126.126,0,0,0,116.3,149.491Z" transform="translate(-114.083 -144.633)" fill="#ecddf6"/>
            <path id="XMLID_1617_" d="M114.086,144.785a.126.126,0,1,0,.1-.149A.126.126,0,0,0,114.086,144.785Z" transform="translate(-114.083 -144.633)" fill="#ecddf6"/>
            <path id="XMLID_1616_" d="M114.155,149.587a.126.126,0,1,0,.1-.149A.126.126,0,0,0,114.155,149.587Z" transform="translate(-114.083 -144.633)" fill="#ecddf6"/>
            <path id="XMLID_1615_" d="M117.9,160.833a.126.126,0,1,0,.1-.149A.126.126,0,0,0,117.9,160.833Z" transform="translate(-114.083 -144.633)" fill="#ecddf6"/>
            <path id="XMLID_1614_" d="M114.542,145.953a.126.126,0,1,0,.1-.149A.126.126,0,0,0,114.542,145.953Z" transform="translate(-114.083 -144.633)" fill="#ecddf6"/>
            <path id="XMLID_1613_" d="M115.874,148.059a.33.33,0,1,0,.255-.391A.33.33,0,0,0,115.874,148.059Z" transform="translate(-114.083 -144.633)" fill="#ecddf6"/>
            <path id="XMLID_1612_" d="M117.911,159.625a.33.33,0,1,0,.255-.391A.33.33,0,0,0,117.911,159.625Z" transform="translate(-114.083 -144.633)" fill="#ecddf6"/>
            <path id="XMLID_1611_" d="M117.965,154.884a.33.33,0,1,0,.255-.391A.33.33,0,0,0,117.965,154.884Z" transform="translate(-114.083 -144.633)" fill="#ecddf6"/>
            <path id="XMLID_1610_" d="M117.213,157.972a.2.2,0,1,0,.158-.242A.2.2,0,0,0,117.213,157.972Z" transform="translate(-114.083 -144.633)" fill="#ecddf6"/>
            <path id="XMLID_1609_" d="M115.142,149.169a.2.2,0,1,0,.158-.242A.2.2,0,0,0,115.142,149.169Z" transform="translate(-114.083 -144.633)" fill="#ecddf6"/>
          </g>
          <g id="XMLID_1651_" transform="translate(60.405 23.088)">
            <path id="XMLID_2057_" d="M111.759,161.39a.865.865,0,1,0,.863-.867A.865.865,0,0,0,111.759,161.39Z" transform="translate(-109.299 -153.038)" fill="#ecddf6"/>
            <path id="XMLID_2056_" d="M111.676,159.475a.534.534,0,1,0,.533-.536A.534.534,0,0,0,111.676,159.475Z" transform="translate(-109.299 -153.038)" fill="#ecddf6"/>
            <path id="XMLID_2055_" d="M111.538,166.522a.534.534,0,1,0,.533-.536A.534.534,0,0,0,111.538,166.522Z" transform="translate(-109.299 -153.038)" fill="#ecddf6"/>
            <path id="XMLID_2054_" d="M110.357,161.266a.33.33,0,1,0,.33-.331A.33.33,0,0,0,110.357,161.266Z" transform="translate(-109.299 -153.038)" fill="#ecddf6"/>
            <path id="XMLID_2049_" d="M111.31,165.144a.126.126,0,1,0,.126-.126A.126.126,0,0,0,111.31,165.144Z" transform="translate(-109.299 -153.038)" fill="#ecddf6"/>
            <path id="XMLID_1980_" d="M110.1,160.581a.126.126,0,1,0,.126-.126A.126.126,0,0,0,110.1,160.581Z" transform="translate(-109.299 -153.038)" fill="#ecddf6"/>
            <path id="XMLID_1961_" d="M111.421,158.224a.126.126,0,1,0,.126-.126A.126.126,0,0,0,111.421,158.224Z" transform="translate(-109.299 -153.038)" fill="#ecddf6"/>
            <path id="XMLID_1660_" d="M110.214,153.164a.126.126,0,1,0,.126-.126A.126.126,0,0,0,110.214,153.164Z" transform="translate(-109.299 -153.038)" fill="#ecddf6"/>
            <path id="XMLID_1659_" d="M109.3,157.878a.126.126,0,1,0,.126-.126A.126.126,0,0,0,109.3,157.878Z" transform="translate(-109.299 -153.038)" fill="#ecddf6"/>
            <path id="XMLID_1658_" d="M110.66,169.652a.126.126,0,1,0,.126-.126A.126.126,0,0,0,110.66,169.652Z" transform="translate(-109.299 -153.038)" fill="#ecddf6"/>
            <path id="XMLID_1657_" d="M110.421,154.4a.126.126,0,1,0,.126-.126A.126.126,0,0,0,110.421,154.4Z" transform="translate(-109.299 -153.038)" fill="#ecddf6"/>
            <path id="XMLID_1656_" d="M111.294,156.734a.33.33,0,1,0,.33-.331A.33.33,0,0,0,111.294,156.734Z" transform="translate(-109.299 -153.038)" fill="#ecddf6"/>
            <path id="XMLID_1655_" d="M110.92,168.473a.33.33,0,1,0,.33-.331A.33.33,0,0,0,110.92,168.473Z" transform="translate(-109.299 -153.038)" fill="#ecddf6"/>
            <path id="XMLID_1654_" d="M111.944,163.843a.33.33,0,1,0,.33-.331A.33.33,0,0,0,111.944,163.843Z" transform="translate(-109.299 -153.038)" fill="#ecddf6"/>
            <path id="XMLID_1653_" d="M110.575,166.712a.2.2,0,1,0,.2-.2A.2.2,0,0,0,110.575,166.712Z" transform="translate(-109.299 -153.038)" fill="#ecddf6"/>
            <path id="XMLID_1652_" d="M110.35,157.672a.2.2,0,1,0,.2-.2A.2.2,0,0,0,110.35,157.672Z" transform="translate(-109.299 -153.038)" fill="#ecddf6"/>
          </g>
          <g id="XMLID_1634_" transform="translate(13.094 22.388)">
            <path id="XMLID_1650_" d="M63.716,160.591a.865.865,0,1,1-.81-.916A.865.865,0,0,1,63.716,160.591Z" transform="translate(-61.988 -152.338)" fill="#ecddf6"/>
            <path id="XMLID_1649_" d="M63.911,158.685a.535.535,0,1,1-.5-.566A.535.535,0,0,1,63.911,158.685Z" transform="translate(-61.988 -152.338)" fill="#ecddf6"/>
            <path id="XMLID_1648_" d="M63.632,165.728a.535.535,0,1,1-.5-.566A.535.535,0,0,1,63.632,165.728Z" transform="translate(-61.988 -152.338)" fill="#ecddf6"/>
            <path id="XMLID_1647_" d="M65.122,160.551a.33.33,0,1,1-.309-.35A.33.33,0,0,1,65.122,160.551Z" transform="translate(-61.988 -152.338)" fill="#ecddf6"/>
            <path id="XMLID_1646_" d="M63.941,164.365a.126.126,0,1,1-.118-.134A.126.126,0,0,1,63.941,164.365Z" transform="translate(-61.988 -152.338)" fill="#ecddf6"/>
            <path id="XMLID_1645_" d="M65.415,159.882a.126.126,0,1,1-.118-.134A.126.126,0,0,1,65.415,159.882Z" transform="translate(-61.988 -152.338)" fill="#ecddf6"/>
            <path id="XMLID_1644_" d="M64.24,157.452a.126.126,0,1,1-.118-.134A.126.126,0,0,1,64.24,157.452Z" transform="translate(-61.988 -152.338)" fill="#ecddf6"/>
            <path id="XMLID_1643_" d="M65.745,152.472a.126.126,0,1,1-.118-.134A.126.126,0,0,1,65.745,152.472Z" transform="translate(-61.988 -152.338)" fill="#ecddf6"/>
            <path id="XMLID_1642_" d="M66.379,157.232a.126.126,0,1,1-.118-.134A.126.126,0,0,1,66.379,157.232Z" transform="translate(-61.988 -152.338)" fill="#ecddf6"/>
            <path id="XMLID_1641_" d="M64.323,168.9a.126.126,0,1,1-.118-.134A.126.126,0,0,1,64.323,168.9Z" transform="translate(-61.988 -152.338)" fill="#ecddf6"/>
            <path id="XMLID_1640_" d="M65.465,153.693a.126.126,0,1,1-.118-.134A.126.126,0,0,1,65.465,153.693Z" transform="translate(-61.988 -152.338)" fill="#ecddf6"/>
            <path id="XMLID_1639_" d="M64.455,155.972a.33.33,0,1,1-.309-.35A.33.33,0,0,1,64.455,155.972Z" transform="translate(-61.988 -152.338)" fill="#ecddf6"/>
            <path id="XMLID_1638_" d="M64.133,167.711a.33.33,0,1,1-.309-.35A.33.33,0,0,1,64.133,167.711Z" transform="translate(-61.988 -152.338)" fill="#ecddf6"/>
            <path id="XMLID_1637_" d="M63.386,163.029a.33.33,0,1,1-.309-.35A.33.33,0,0,1,63.386,163.029Z" transform="translate(-61.988 -152.338)" fill="#ecddf6"/>
            <path id="XMLID_1636_" d="M64.582,165.974a.2.2,0,1,1-.191-.216A.2.2,0,0,1,64.582,165.974Z" transform="translate(-61.988 -152.338)" fill="#ecddf6"/>
            <path id="XMLID_1635_" d="M65.342,156.963a.2.2,0,1,1-.191-.216A.2.2,0,0,1,65.342,156.963Z" transform="translate(-61.988 -152.338)" fill="#ecddf6"/>
          </g>
          <g id="XMLID_2058_" transform="translate(0 20.36)">
            <path id="XMLID_2103_" d="M50.622,158.563a.865.865,0,1,1-.81-.916A.865.865,0,0,1,50.622,158.563Z" transform="translate(-48.894 -150.31)" fill="#ecddf6"/>
            <path id="XMLID_2102_" d="M50.817,156.657a.535.535,0,1,1-.5-.566A.535.535,0,0,1,50.817,156.657Z" transform="translate(-48.894 -150.31)" fill="#ecddf6"/>
            <path id="XMLID_2101_" d="M50.538,163.7a.535.535,0,1,1-.5-.566A.535.535,0,0,1,50.538,163.7Z" transform="translate(-48.894 -150.31)" fill="#ecddf6"/>
            <path id="XMLID_2100_" d="M52.028,158.523a.33.33,0,1,1-.309-.35A.33.33,0,0,1,52.028,158.523Z" transform="translate(-48.894 -150.31)" fill="#ecddf6"/>
            <path id="XMLID_2099_" d="M50.847,162.337a.126.126,0,1,1-.118-.134A.126.126,0,0,1,50.847,162.337Z" transform="translate(-48.894 -150.31)" fill="#ecddf6"/>
            <path id="XMLID_2098_" d="M52.321,157.854a.126.126,0,1,1-.118-.134A.126.126,0,0,1,52.321,157.854Z" transform="translate(-48.894 -150.31)" fill="#ecddf6"/>
            <path id="XMLID_2097_" d="M51.146,155.423a.126.126,0,1,1-.118-.134A.126.126,0,0,1,51.146,155.423Z" transform="translate(-48.894 -150.31)" fill="#ecddf6"/>
            <path id="XMLID_2096_" d="M52.651,150.444a.126.126,0,1,1-.118-.134A.126.126,0,0,1,52.651,150.444Z" transform="translate(-48.894 -150.31)" fill="#ecddf6"/>
            <path id="XMLID_2095_" d="M53.285,155.2a.126.126,0,1,1-.118-.134A.126.126,0,0,1,53.285,155.2Z" transform="translate(-48.894 -150.31)" fill="#ecddf6"/>
            <path id="XMLID_2094_" d="M51.229,166.876a.126.126,0,1,1-.118-.134A.126.126,0,0,1,51.229,166.876Z" transform="translate(-48.894 -150.31)" fill="#ecddf6"/>
            <path id="XMLID_2093_" d="M52.371,151.666a.126.126,0,1,1-.118-.134A.126.126,0,0,1,52.371,151.666Z" transform="translate(-48.894 -150.31)" fill="#ecddf6"/>
            <path id="XMLID_2092_" d="M51.361,153.944a.33.33,0,1,1-.309-.35A.33.33,0,0,1,51.361,153.944Z" transform="translate(-48.894 -150.31)" fill="#ecddf6"/>
            <path id="XMLID_2091_" d="M51.039,165.683a.33.33,0,1,1-.309-.35A.33.33,0,0,1,51.039,165.683Z" transform="translate(-48.894 -150.31)" fill="#ecddf6"/>
            <path id="XMLID_2090_" d="M50.292,161a.33.33,0,1,1-.309-.35A.33.33,0,0,1,50.292,161Z" transform="translate(-48.894 -150.31)" fill="#ecddf6"/>
            <path id="XMLID_2089_" d="M51.488,163.946a.2.2,0,1,1-.191-.216A.2.2,0,0,1,51.488,163.946Z" transform="translate(-48.894 -150.31)" fill="#ecddf6"/>
            <path id="XMLID_2088_" d="M52.248,154.935a.2.2,0,1,1-.191-.216A.2.2,0,0,1,52.248,154.935Z" transform="translate(-48.894 -150.31)" fill="#ecddf6"/>
          </g>
        </g>
      </g>
      <g id="DESIGNED_BY_FREEPIK" transform="translate(120.26 244.054)">
        <g id="XMLID_2_">
          <g id="XMLID_319_" transform="translate(37.819)">
            <g id="XMLID_338_">
              <path id="XMLID_346_" d="M125.37,224.354a3.616,3.616,0,0,0-.534.7l-.224-.116a.291.291,0,1,0-.25.353.3.3,0,0,0,.089-.025l.217.113a3.5,3.5,0,0,0-.26.841l.36.064a3.183,3.183,0,0,1,.864-1.674Z" transform="translate(-124.037 -222.335)" fill="#ecddf6"/>
              <path id="XMLID_345_" d="M128.015,223.245c-.082,0-.164,0-.246.008l-.036-.3a.345.345,0,1,0-.362.041l.035.3a3.655,3.655,0,0,0-.993.311l.158.33a3.369,3.369,0,0,1,2.155-.248l.078-.357A3.722,3.722,0,0,0,128.015,223.245Z" transform="translate(-124.037 -222.335)" fill="#ecddf6"/>
              <path id="XMLID_344_" d="M131.2,224.473a.291.291,0,1,0-.326-.284l-.2.175a3.68,3.68,0,0,0-.679-.549l-.195.309a3.249,3.249,0,0,1,1.235,1.41l.333-.151a3.588,3.588,0,0,0-.454-.745l.194-.169A.28.28,0,0,0,131.2,224.473Z" transform="translate(-124.037 -222.335)" fill="#ecddf6"/>
              <path id="XMLID_343_" d="M127.751,228.165c-.186.011-.374.017-.558.017A7.784,7.784,0,0,1,126,228.1a4.171,4.171,0,0,1-.612-.141,2.985,2.985,0,0,0,5.465-.665,4.7,4.7,0,0,1-1.185.541A8.235,8.235,0,0,1,127.751,228.165Z" transform="translate(-124.037 -222.335)" fill="#ecddf6"/>
              <path id="XMLID_339_" d="M128.015,223.976a2.9,2.9,0,0,0-2.931,2.865,2.819,2.819,0,0,0,.066.608,4.932,4.932,0,0,0,2.578.352,5.535,5.535,0,0,0,3.216-1.041c0-.094-.01-.188-.022-.281A2.911,2.911,0,0,0,128.015,223.976Zm-1.041,3.14a.892.892,0,1,1,.892-.892A.893.893,0,0,1,126.974,227.116Zm2.284-.438a.656.656,0,1,1,.656-.656A.656.656,0,0,1,129.258,226.678Z" transform="translate(-124.037 -222.335)" fill="#ecddf6"/>
            </g>
            <path id="XMLID_336_" d="M135.729,224.876a1.355,1.355,0,0,0-.666-.114c-.266.033-.407.164-.407.485v.417h1.074v.828h-1.074v2.629h-.931v-2.629h-.646v-.828h.646v-.428a1.187,1.187,0,0,1,1.238-1.341,1.9,1.9,0,0,1,.766.148Z" transform="translate(-124.037 -222.335)" fill="#ecddf6"/>
            <path id="XMLID_334_" d="M138,226.482a1.541,1.541,0,0,0-.254-.022.691.691,0,0,0-.728.778v1.884h-.931v-3.457h.9v.378a1.092,1.092,0,0,1,.974-.471.864.864,0,0,1,.527.162Z" transform="translate(-124.037 -222.335)" fill="#ecddf6"/>
            <path id="XMLID_331_" d="M141.691,227.387a2.686,2.686,0,0,1-.018.314h-2.451a.835.835,0,0,0,.888.717,1.4,1.4,0,0,0,.874-.332l.546.6a2.1,2.1,0,0,1-1.473.524,1.82,1.82,0,0,1-.046-3.639A1.671,1.671,0,0,1,141.691,227.387Zm-2.465-.321h1.53a.769.769,0,0,0-1.53,0Z" transform="translate(-124.037 -222.335)" fill="#ecddf6"/>
            <path id="XMLID_328_" d="M145.38,227.387a2.686,2.686,0,0,1-.018.314h-2.451a.834.834,0,0,0,.888.717,1.4,1.4,0,0,0,.874-.332l.546.6a2.1,2.1,0,0,1-1.473.524,1.82,1.82,0,0,1-.046-3.639A1.671,1.671,0,0,1,145.38,227.387Zm-2.465-.321h1.53a.769.769,0,0,0-1.53,0Z" transform="translate(-124.037 -222.335)" fill="#ecddf6"/>
            <path id="XMLID_325_" d="M149.4,227.39a1.713,1.713,0,0,1-1.673,1.82,1.264,1.264,0,0,1-1.017-.45v1.787h-.927v-4.884h.91v.382a1.253,1.253,0,0,1,1.031-.474A1.713,1.713,0,0,1,149.4,227.39Zm-2.736,0a.892.892,0,1,0,.888-.952A.887.887,0,0,0,146.666,227.39Z" transform="translate(-124.037 -222.335)" fill="#ecddf6"/>
            <path id="XMLID_322_" d="M150.9,224.533a.594.594,0,1,1-.6-.6A.585.585,0,0,1,150.9,224.533Zm-.125,4.588h-.931v-3.457h.931Z" transform="translate(-124.037 -222.335)" fill="#ecddf6"/>
            <path id="XMLID_320_" d="M152.327,226.895l1.3-1.231h1.141l-1.677,1.627,1.687,1.83h-1.145l-1.309-1.4v1.4H151.4v-5.137h.931Z" transform="translate(-124.037 -222.335)" fill="#ecddf6"/>
          </g>
          <g id="XMLID_3_" transform="translate(0 2.044)">
            <path id="XMLID_4_" d="M88.887,229.089v-.508a1.434,1.434,0,0,1-1.151.593c-.89,0-1.518-.678-1.518-1.786,0-1.087.621-1.794,1.518-1.794a1.425,1.425,0,0,1,1.151.6v-1.815h.53v4.709h-.53Zm0-.925v-1.546a1.28,1.28,0,0,0-1.024-.551c-.685,0-1.094.565-1.094,1.32s.41,1.313,1.094,1.313A1.264,1.264,0,0,0,88.887,228.164Z" transform="translate(-86.218 -224.379)" fill="#ecddf6"/>
            <path id="XMLID_6_" d="M90.1,227.381a1.705,1.705,0,0,1,1.68-1.786,1.656,1.656,0,0,1,1.638,1.829v.134h-2.76a1.2,1.2,0,0,0,1.229,1.179,1.489,1.489,0,0,0,1.052-.431l.254.346a1.852,1.852,0,0,1-1.355.522A1.691,1.691,0,0,1,90.1,227.381Zm1.673-1.348a1.137,1.137,0,0,0-1.115,1.137H92.9A1.1,1.1,0,0,0,91.774,226.032Z" transform="translate(-86.218 -224.379)" fill="#ecddf6"/>
            <path id="XMLID_9_" d="M93.8,228.637l.275-.381a1.545,1.545,0,0,0,1.123.487c.522,0,.8-.247.8-.586,0-.826-2.111-.318-2.111-1.581,0-.529.459-.981,1.271-.981a1.724,1.724,0,0,1,1.264.495l-.247.367a1.327,1.327,0,0,0-1.017-.431c-.466,0-.755.233-.755.536,0,.748,2.111.254,2.111,1.581,0,.572-.459,1.031-1.341,1.031A1.812,1.812,0,0,1,93.8,228.637Z" transform="translate(-86.218 -224.379)" fill="#ecddf6"/>
            <path id="XMLID_11_" d="M97.112,224.839a.356.356,0,1,1,.713,0,.356.356,0,0,1-.713,0Zm.092,4.25v-3.41h.53v3.41Z" transform="translate(-86.218 -224.379)" fill="#ecddf6"/>
            <path id="XMLID_14_" d="M98.609,229.965l.268-.4a1.3,1.3,0,0,0,1.109.466.976.976,0,0,0,1.094-1.024v-.487a1.425,1.425,0,0,1-1.144.607,1.553,1.553,0,0,1-1.518-1.765c0-1.094.621-1.772,1.518-1.772a1.413,1.413,0,0,1,1.144.6v-.515h.529v3.311c0,1.13-.791,1.483-1.624,1.483A1.741,1.741,0,0,1,98.609,229.965Zm2.471-1.857v-1.49a1.257,1.257,0,0,0-1.017-.551c-.685,0-1.094.544-1.094,1.3s.409,1.3,1.094,1.3A1.261,1.261,0,0,0,101.08,228.108Z" transform="translate(-86.218 -224.379)" fill="#ecddf6"/>
            <path id="XMLID_17_" d="M104.793,229.089v-2.231c0-.6-.3-.791-.763-.791a1.315,1.315,0,0,0-1.01.53v2.492h-.53v-3.41h.53v.494a1.69,1.69,0,0,1,1.214-.579.969.969,0,0,1,1.087,1.1v2.394h-.529Z" transform="translate(-86.218 -224.379)" fill="#ecddf6"/>
            <path id="XMLID_19_" d="M106.007,227.381a1.705,1.705,0,0,1,1.68-1.786,1.656,1.656,0,0,1,1.638,1.829v.134h-2.76a1.2,1.2,0,0,0,1.229,1.179,1.49,1.49,0,0,0,1.052-.431l.254.346a1.852,1.852,0,0,1-1.355.522A1.691,1.691,0,0,1,106.007,227.381Zm1.674-1.348a1.137,1.137,0,0,0-1.115,1.137H108.8A1.105,1.105,0,0,0,107.681,226.032Z" transform="translate(-86.218 -224.379)" fill="#ecddf6"/>
            <path id="XMLID_22_" d="M112.475,229.089v-.508a1.435,1.435,0,0,1-1.151.593c-.89,0-1.518-.678-1.518-1.786,0-1.087.621-1.794,1.518-1.794a1.426,1.426,0,0,1,1.151.6v-1.815H113v4.709h-.529Zm0-.925v-1.546a1.281,1.281,0,0,0-1.024-.551c-.685,0-1.094.565-1.094,1.32s.409,1.313,1.094,1.313A1.266,1.266,0,0,0,112.475,228.164Z" transform="translate(-86.218 -224.379)" fill="#ecddf6"/>
            <path id="XMLID_25_" d="M115.532,229.089V224.38h.529v1.815a1.417,1.417,0,0,1,1.151-.6,1.585,1.585,0,0,1,1.518,1.794c0,1.108-.629,1.786-1.518,1.786a1.437,1.437,0,0,1-1.151-.593v.509h-.529Zm1.546-.388c.692,0,1.1-.558,1.1-1.313s-.41-1.32-1.1-1.32a1.266,1.266,0,0,0-1.017.551v1.546A1.254,1.254,0,0,0,117.078,228.7Z" transform="translate(-86.218 -224.379)" fill="#ecddf6"/>
            <path id="XMLID_28_" d="M119.308,229.943a.815.815,0,0,0,.29.056.491.491,0,0,0,.509-.36l.226-.515-1.426-3.445h.572l1.137,2.8,1.13-2.8h.579l-1.709,4.1a1.014,1.014,0,0,1-1,.692,1.7,1.7,0,0,1-.388-.05Z" transform="translate(-86.218 -224.379)" fill="#ecddf6"/>
          </g>
        </g>
      </g>
    </g>
  </g>
</svg>
