<svg xmlns="http://www.w3.org/2000/svg" xmlns:xlink="http://www.w3.org/1999/xlink" width="98.993" height="88.352" viewBox="0 0 98.993 88.352">
  <defs>
    <clipPath id="clip-path">
      <rect id="Rectangle_412017" data-name="Rectangle 412017" width="85" height="77" transform="translate(2836 -7337.673)" fill="#fff" stroke="#707070" stroke-width="1"/>
    </clipPath>
  </defs>
  <g id="Group_1200846" data-name="Group 1200846" transform="translate(-2827.601 7343.673)">
    <g id="Group_1200595" data-name="Group 1200595" transform="translate(2827.601 -7343.673)">
      <g id="Group_1200589" data-name="Group 1200589">
        <ellipse id="Ellipse_12397" data-name="Ellipse 12397" cx="24.92" cy="24.92" rx="24.92" ry="24.92" transform="translate(49.154 38.512)" fill="#e6e51d"/>
        <ellipse id="Ellipse_12398" data-name="Ellipse 12398" cx="18.123" cy="18.123" rx="18.123" ry="18.123" fill="#e6e51d"/>
      </g>
    </g>
    <g id="Mask_Group_1099557" data-name="Mask Group 1099557" clip-path="url(#clip-path)">
      <g id="web-chat_13330959" transform="translate(2840 -7337.673)">
        <path id="Path_1276262" data-name="Path 1276262" d="M75.717,16.683v53.9a5.132,5.132,0,0,1-5.133,5.133H6.417a5.132,5.132,0,0,1-5.133-5.133v-53.9L2.567,15.4H74.433Z" fill="#d9e1e5"/>
        <path id="Path_1276263" data-name="Path 1276263" d="M54.5,37.422A14.71,14.71,0,0,1,63.525,41.7a15.465,15.465,0,0,1,.513,21.252,11.692,11.692,0,0,0,2.682,4.312.383.383,0,0,1-.218.655,12.661,12.661,0,0,1-7.366-1.322,15.132,15.132,0,0,1-6.455,1.424H43.248A15.287,15.287,0,0,1,32.4,63.5a14.969,14.969,0,0,1-2.413-3.183Z" fill="#59c19f"/>
        <path id="Path_1276264" data-name="Path 1276264" d="M31.134,1.283h39.45a5.132,5.132,0,0,1,5.133,5.133V16.683H41.067Z" fill="#325568"/>
        <path id="Path_1276265" data-name="Path 1276265" d="M45.866,16.683H1.283V6.417A5.132,5.132,0,0,1,6.417,1.283H31.134a5.714,5.714,0,0,1,5.095,3.144l4.543,9.112A5.714,5.714,0,0,0,45.866,16.683Z" fill="#274054"/>
        <circle id="Ellipse_12426" data-name="Ellipse 12426" cx="2.567" cy="2.567" r="2.567" transform="translate(6.417 6.417)" fill="#d32f3f"/>
        <circle id="Ellipse_12427" data-name="Ellipse 12427" cx="2.567" cy="2.567" r="2.567" transform="translate(16.683 6.417)" fill="#f7be30"/>
        <circle id="Ellipse_12428" data-name="Ellipse 12428" cx="2.567" cy="2.567" r="2.567" transform="translate(26.95 6.417)" fill="#59c19f"/>
        <rect id="Rectangle_412231" data-name="Rectangle 412231" width="23.1" height="5.133" rx="2.567" transform="translate(46.2 6.417)" fill="#274054"/>
        <path id="Path_1276266" data-name="Path 1276266" d="M55.183,42.35a18.071,18.071,0,0,1-5.177,12.7,17.463,17.463,0,0,1-12.488,5.266H26.647a17.405,17.405,0,0,1-7.433-1.658,14.249,14.249,0,0,1-8.479,1.534.447.447,0,0,1-.258-.76,13.429,13.429,0,0,0,3.085-5.017,18.176,18.176,0,0,1,.6-24.766,17.463,17.463,0,0,1,12.488-5.266H37.52A17.818,17.818,0,0,1,55.185,42.351Z" fill="#46a0dd"/>
        <g id="Group_1200842" data-name="Group 1200842">
          <path id="Path_1276267" data-name="Path 1276267" d="M8.983,5.133a3.85,3.85,0,1,0,3.85,3.85A3.855,3.855,0,0,0,8.983,5.133Zm0,5.133a1.283,1.283,0,1,1,1.283-1.283A1.284,1.284,0,0,1,8.983,10.267Z" fill="#161616"/>
          <path id="Path_1276268" data-name="Path 1276268" d="M19.25,5.133a3.85,3.85,0,1,0,3.85,3.85A3.855,3.855,0,0,0,19.25,5.133Zm0,5.133a1.283,1.283,0,1,1,1.283-1.283A1.284,1.284,0,0,1,19.25,10.267Z" fill="#161616"/>
          <path id="Path_1276269" data-name="Path 1276269" d="M29.517,5.133a3.85,3.85,0,1,0,3.85,3.85A3.855,3.855,0,0,0,29.517,5.133Zm0,5.133A1.283,1.283,0,1,1,30.8,8.983,1.284,1.284,0,0,1,29.517,10.267Z" fill="#161616"/>
          <path id="Path_1276270" data-name="Path 1276270" d="M66.733,5.133H48.767a3.85,3.85,0,1,0,0,7.7H66.733a3.85,3.85,0,0,0,0-7.7Zm0,5.133H48.767a1.283,1.283,0,0,1,0-2.567H66.733a1.283,1.283,0,0,1,0,2.567Z" fill="#161616"/>
          <path id="Path_1276271" data-name="Path 1276271" d="M64.436,40.792a15.926,15.926,0,0,0-8.947-4.507A19,19,0,0,0,37.52,23.1H26.648a18.669,18.669,0,0,0-13.4,5.649,19.461,19.461,0,0,0-1.152,25.921,11.892,11.892,0,0,1-2.482,3.817,1.693,1.693,0,0,0-.476,1.754,1.761,1.761,0,0,0,1.425,1.223,15.471,15.471,0,0,0,8.682-1.385A18.564,18.564,0,0,0,26.648,61.6H29.3A16.231,16.231,0,0,0,43.25,69.3h9.432a16.341,16.341,0,0,0,6.435-1.294,13.922,13.922,0,0,0,7.591,1.174,1.673,1.673,0,0,0,1.342-1.161,1.634,1.634,0,0,0-.425-1.672A10.181,10.181,0,0,1,65.519,63.2a16.75,16.75,0,0,0-1.082-22.4ZM19.762,57.5a1.287,1.287,0,0,0-1.141.023,13.232,13.232,0,0,1-6.071,1.514h-.026a15.263,15.263,0,0,0,2.25-4.2,1.285,1.285,0,0,0-.253-1.276,16.891,16.891,0,0,1,.554-23.011,16.127,16.127,0,0,1,11.573-4.883H37.52A16.554,16.554,0,0,1,53.9,42.351a16.723,16.723,0,0,1-4.809,11.8A16.127,16.127,0,0,1,37.52,59.035H26.648A16.008,16.008,0,0,1,19.763,57.5Zm43.323,4.589a1.288,1.288,0,0,0-.254,1.294,13.624,13.624,0,0,0,1.758,3.344,11.654,11.654,0,0,1-4.869-1.277,1.274,1.274,0,0,0-1.131-.018,13.77,13.77,0,0,1-5.908,1.3H43.248a13.969,13.969,0,0,1-9.93-4.135c-.316-.32-.589-.66-.868-1h5.068a18.669,18.669,0,0,0,13.4-5.649,19.252,19.252,0,0,0,5.244-16.914,12.984,12.984,0,0,1,6.45,3.565,14.179,14.179,0,0,1,.47,19.486Z" fill="#161616"/>
          <path id="Path_1276272" data-name="Path 1276272" d="M70.583,0H6.417A6.424,6.424,0,0,0,0,6.417V23.1a1.283,1.283,0,1,0,2.567,0V17.967H74.433V70.583a3.855,3.855,0,0,1-3.85,3.85H6.417a3.855,3.855,0,0,1-3.85-3.85V28.233a1.283,1.283,0,1,0-2.567,0v42.35A6.424,6.424,0,0,0,6.417,77H70.583A6.424,6.424,0,0,0,77,70.583V6.417A6.424,6.424,0,0,0,70.583,0ZM2.567,6.417a3.855,3.855,0,0,1,3.85-3.85H31.132A4.384,4.384,0,0,1,35.075,5l4.555,9.109A7,7,0,0,0,40.48,15.4H2.567Zm43.3,8.983a4.384,4.384,0,0,1-3.942-2.436L37.371,3.855a7,7,0,0,0-.851-1.288H70.583a3.855,3.855,0,0,1,3.85,3.85V15.4Z" fill="#161616"/>
          <path id="Path_1276273" data-name="Path 1276273" d="M19.25,35.933H44.917a1.283,1.283,0,0,0,0-2.567H19.25a1.283,1.283,0,0,0,0,2.567Z" fill="#161616"/>
          <path id="Path_1276274" data-name="Path 1276274" d="M19.25,43.633H44.915a1.283,1.283,0,0,0,0-2.567H19.25a1.283,1.283,0,1,0,0,2.567Z" fill="#161616"/>
          <path id="Path_1276275" data-name="Path 1276275" d="M38.388,50.05a1.282,1.282,0,0,0-1.283-1.283H19.25a1.283,1.283,0,1,0,0,2.567H37.105A1.282,1.282,0,0,0,38.388,50.05Z" fill="#161616"/>
        </g>
      </g>
    </g>
  </g>
</svg>
