<svg xmlns="http://www.w3.org/2000/svg" xmlns:xlink="http://www.w3.org/1999/xlink" width="98.993" height="88.352" viewBox="0 0 98.993 88.352">
  <defs>
    <clipPath id="clip-path">
      <rect id="Rectangle_412363" data-name="Rectangle 412363" width="90" height="79" transform="translate(805.051 4400)" fill="#fff" stroke="#707070" stroke-width="1"/>
    </clipPath>
  </defs>
  <g id="Group_1202333" data-name="Group 1202333" transform="translate(-801.652 -4395)">
    <g id="Group_1200590" data-name="Group 1200590" transform="translate(801.652 4395)">
      <g id="Group_1200589" data-name="Group 1200589">
        <ellipse id="Ellipse_12397" data-name="Ellipse 12397" cx="24.92" cy="24.92" rx="24.92" ry="24.92" transform="translate(49.154 38.512)" fill="#e6e51d"/>
        <ellipse id="Ellipse_12398" data-name="Ellipse 12398" cx="18.123" cy="18.123" rx="18.123" ry="18.123" fill="#e6e51d"/>
      </g>
    </g>
    <g id="Mask_Group_1099578" data-name="Mask Group 1099578" clip-path="url(#clip-path)">
      <g id="Layer_21" data-name="Layer 21" transform="translate(809.277 4398.726)">
        <rect id="Rectangle_412364" data-name="Rectangle 412364" width="66.258" height="76.452" rx="5.097" transform="translate(7.645 2.548)" fill="#e2e7f6"/>
        <path id="Path_1286447" data-name="Path 1286447" d="M70.081,2.728a5.067,5.067,0,0,0-1.274-.18H12.742a5.1,5.1,0,0,0-5.1,5.1V73.724a5.068,5.068,0,0,0,1.274.18H64.984a5.1,5.1,0,0,0,5.1-5.1Z" fill="#f2f2f2"/>
        <path id="Path_1286448" data-name="Path 1286448" d="M73.9,68.806v5.1a5.1,5.1,0,0,1-5.1,5.1H12.742a5.1,5.1,0,0,1-5.1-5.1v-5.1Z" fill="#474747"/>
        <path id="Path_1286449" data-name="Path 1286449" d="M70.081,68.806H7.645v4.917a5.068,5.068,0,0,0,1.274.18H64.984A5.1,5.1,0,0,0,70.081,68.806Z" fill="#686868"/>
        <path id="Path_1286450" data-name="Path 1286450" d="M7.645,12.742v-5.1a5.1,5.1,0,0,1,5.1-5.1H68.806a5.1,5.1,0,0,1,5.1,5.1v5.1Z" fill="#474747"/>
        <path id="Path_1286451" data-name="Path 1286451" d="M64.984,2.548H12.742a5.1,5.1,0,0,0-5.1,5.1v5.1H70.081v-5.1A5.1,5.1,0,0,0,64.984,2.548Z" fill="#686868"/>
        <path id="Path_1286452" data-name="Path 1286452" d="M24.21,56.065H21.661V44.6a1.274,1.274,0,1,0-2.548,0V56.065H16.565V44.6a3.823,3.823,0,1,1,7.645,0Z" fill="#93bee5"/>
        <rect id="Rectangle_412365" data-name="Rectangle 412365" width="5.097" height="2.548" transform="translate(17.839 48.419)" fill="#93bee5"/>
        <path id="Path_1286453" data-name="Path 1286453" d="M40.137,56.065H38.226a1.274,1.274,0,0,1-1.274-1.274V42.048a1.274,1.274,0,0,1,1.274-1.274h1.911a4.46,4.46,0,0,1,3.118,7.645,4.46,4.46,0,0,1-3.118,7.645ZM39.5,53.516h.637a1.911,1.911,0,0,0,0-3.823H39.5Zm0-6.371h.637a1.911,1.911,0,0,0,0-3.823H39.5Z" fill="#93bee5"/>
        <path id="Path_1286454" data-name="Path 1286454" d="M61.161,56.065a3.823,3.823,0,0,1-3.823-3.823V44.6a3.823,3.823,0,1,1,7.645,0H62.435a1.274,1.274,0,1,0-2.548,0v7.645a1.274,1.274,0,1,0,2.548,0h2.548A3.823,3.823,0,0,1,61.161,56.065Z" fill="#93bee5"/>
        <rect id="Rectangle_412366" data-name="Rectangle 412366" width="15.29" height="2.548" transform="translate(12.742 58.613)" fill="#b5b5b5"/>
        <rect id="Rectangle_412367" data-name="Rectangle 412367" width="15.29" height="2.548" transform="translate(33.129 58.613)" fill="#b5b5b5"/>
        <rect id="Rectangle_412368" data-name="Rectangle 412368" width="15.29" height="2.548" transform="translate(53.516 58.613)" fill="#b5b5b5"/>
        <circle id="Ellipse_12540" data-name="Ellipse 12540" cx="7.645" cy="7.645" r="7.645" transform="translate(12.742 21.661)" fill="#78a0d4"/>
        <circle id="Ellipse_12541" data-name="Ellipse 12541" cx="7.645" cy="7.645" r="7.645" transform="translate(33.129 21.661)" fill="#78a0d4"/>
        <circle id="Ellipse_12542" data-name="Ellipse 12542" cx="7.645" cy="7.645" r="7.645" transform="translate(53.516 21.661)" fill="#78a0d4"/>
        <rect id="Rectangle_412369" data-name="Rectangle 412369" width="2.548" height="2.548" transform="translate(57.339 6.371)" fill="#f2f2f2"/>
        <rect id="Rectangle_412370" data-name="Rectangle 412370" width="2.548" height="2.548" transform="translate(62.435 6.371)" fill="#f2f2f2"/>
        <rect id="Rectangle_412371" data-name="Rectangle 412371" width="2.548" height="2.548" transform="translate(67.532 6.371)" fill="#f2f2f2"/>
        <path id="Path_1286455" data-name="Path 1286455" d="M19.113,30.053l-1.648-1.648-1.8,1.8,2.548,2.548a1.274,1.274,0,0,0,1.8,0l5.1-5.1-1.8-1.8Z" fill="#474747"/>
        <path id="Path_1286456" data-name="Path 1286456" d="M42.422,25.857,40.774,27.5l-1.648-1.648-1.8,1.8,1.648,1.648-1.648,1.648,1.8,1.8,1.648-1.648,1.648,1.648,1.8-1.8-1.648-1.648,1.648-1.648Z" fill="#474747"/>
        <path id="Path_1286457" data-name="Path 1286457" d="M64.611,27.659l-1.8-1.8L61.161,27.5l-1.648-1.648-1.8,1.8,1.648,1.648-1.648,1.648,1.8,1.8,1.648-1.648,1.648,1.648,1.8-1.8-1.648-1.648Z" fill="#474747"/>
        <path id="Path_1286458" data-name="Path 1286458" d="M24.21,56.065V44.6a3.823,3.823,0,1,0-7.645,0V56.065h2.548v-5.1h2.548v5.1Zm-5.1-7.645V44.6a1.274,1.274,0,1,1,2.548,0v3.823Z"/>
        <path id="Path_1286459" data-name="Path 1286459" d="M40.137,40.774H38.226a1.274,1.274,0,0,0-1.274,1.274V54.79a1.274,1.274,0,0,0,1.274,1.274h1.911a4.46,4.46,0,0,0,3.118-7.645,4.46,4.46,0,0,0-3.118-7.645Zm0,12.742H39.5V49.694h.637a1.911,1.911,0,0,1,0,3.823Zm0-6.371H39.5V43.323h.637a1.911,1.911,0,0,1,0,3.823Z"/>
        <path id="Path_1286460" data-name="Path 1286460" d="M61.161,43.323A1.274,1.274,0,0,1,62.435,44.6h2.548a3.823,3.823,0,1,0-7.645,0v7.645a3.823,3.823,0,0,0,7.645,0H62.435a1.274,1.274,0,1,1-2.548,0V44.6A1.274,1.274,0,0,1,61.161,43.323Z"/>
        <rect id="Rectangle_412372" data-name="Rectangle 412372" width="15.29" height="2.548" transform="translate(12.742 58.613)"/>
        <rect id="Rectangle_412373" data-name="Rectangle 412373" width="15.29" height="2.548" transform="translate(33.129 58.613)"/>
        <rect id="Rectangle_412374" data-name="Rectangle 412374" width="15.29" height="2.548" transform="translate(53.516 58.613)"/>
        <path id="Path_1286461" data-name="Path 1286461" d="M68.806,1.274H12.742A6.379,6.379,0,0,0,6.371,7.645V73.9a6.379,6.379,0,0,0,6.371,6.371H68.806A6.379,6.379,0,0,0,75.177,73.9V7.645a6.379,6.379,0,0,0-6.371-6.371ZM12.742,3.823H68.806a3.823,3.823,0,0,1,3.823,3.823v3.823H8.919V7.645a3.823,3.823,0,0,1,3.823-3.823ZM72.629,14.016V67.532H8.919V14.016Zm-3.823,63.71H12.742A3.823,3.823,0,0,1,8.919,73.9V70.081h63.71V73.9A3.823,3.823,0,0,1,68.806,77.726Z"/>
        <path id="Path_1286462" data-name="Path 1286462" d="M20.387,38.226a8.919,8.919,0,1,0-8.919-8.919,8.919,8.919,0,0,0,8.919,8.919Zm0-15.29a6.371,6.371,0,1,1-6.371,6.371,6.371,6.371,0,0,1,6.371-6.371Z"/>
        <path id="Path_1286463" data-name="Path 1286463" d="M40.774,38.226a8.919,8.919,0,1,0-8.919-8.919,8.919,8.919,0,0,0,8.919,8.919Zm0-15.29A6.371,6.371,0,1,1,34.4,29.306,6.371,6.371,0,0,1,40.774,22.935Z"/>
        <path id="Path_1286464" data-name="Path 1286464" d="M61.161,38.226a8.919,8.919,0,1,0-8.919-8.919,8.919,8.919,0,0,0,8.919,8.919Zm0-15.29a6.371,6.371,0,1,1-6.371,6.371,6.371,6.371,0,0,1,6.371-6.371Z"/>
        <path id="Path_1286465" data-name="Path 1286465" d="M18.212,32.756a1.274,1.274,0,0,0,1.8,0l5.1-5.1-1.8-1.8-4.2,4.2-1.648-1.648-1.8,1.8Z"/>
        <rect id="Rectangle_412375" data-name="Rectangle 412375" width="2.548" height="2.548" transform="translate(57.339 6.371)"/>
        <rect id="Rectangle_412376" data-name="Rectangle 412376" width="2.548" height="2.548" transform="translate(62.435 6.371)"/>
        <rect id="Rectangle_412377" data-name="Rectangle 412377" width="2.548" height="2.548" transform="translate(67.532 6.371)"/>
        <path id="Path_1286466" data-name="Path 1286466" d="M39.127,32.756l1.648-1.648,1.648,1.648,1.8-1.8-1.648-1.648,1.648-1.648-1.8-1.8L40.774,27.5l-1.648-1.648-1.8,1.8,1.648,1.648-1.648,1.648Z"/>
        <path id="Path_1286467" data-name="Path 1286467" d="M59.514,32.756l1.648-1.648,1.648,1.648,1.8-1.8-1.648-1.648,1.648-1.648-1.8-1.8L61.161,27.5l-1.648-1.648-1.8,1.8,1.648,1.648-1.648,1.648Z"/>
      </g>
    </g>
  </g>
</svg>
