<svg xmlns="http://www.w3.org/2000/svg" xmlns:xlink="http://www.w3.org/1999/xlink" width="98.993" height="88.352" viewBox="0 0 98.993 88.352">
  <defs>
    <clipPath id="clip-path">
      <rect id="Rectangle_412013" data-name="Rectangle 412013" width="85" height="77" transform="translate(2220 -7337.673)" fill="#fff" stroke="#707070" stroke-width="1"/>
    </clipPath>
  </defs>
  <g id="Group_1200848" data-name="Group 1200848" transform="translate(-2211.601 7343.673)">
    <g id="Group_1200593" data-name="Group 1200593" transform="translate(2211.601 -7343.673)">
      <g id="Group_1200589" data-name="Group 1200589">
        <ellipse id="Ellipse_12397" data-name="Ellipse 12397" cx="24.92" cy="24.92" rx="24.92" ry="24.92" transform="translate(49.154 38.512)" fill="#e6e51d"/>
        <ellipse id="Ellipse_12398" data-name="Ellipse 12398" cx="18.123" cy="18.123" rx="18.123" ry="18.123" fill="#e6e51d"/>
      </g>
    </g>
    <g id="Mask_Group_1099555" data-name="Mask Group 1099555" clip-path="url(#clip-path)">
      <g id="customer-feedback_9375504" transform="translate(2222.758 -7338.915)">
        <g id="Group_1200832" data-name="Group 1200832">
          <g id="Group_1200825" data-name="Group 1200825">
            <path id="Path_1276216" data-name="Path 1276216" d="M33.6,54.712H45.889a.816.816,0,0,0,.79-1.019,7.162,7.162,0,0,0-13.869,0,.816.816,0,0,0,.79,1.019Z" fill="#8ac9fe" fill-rule="evenodd"/>
            <path id="Path_1276217" data-name="Path 1276217" d="M45.889,54.712a.816.816,0,0,0,.79-1.019,7.163,7.163,0,0,0-6.934-5.37,7.265,7.265,0,0,0-.816.046,7.166,7.166,0,0,1,6.118,5.324.816.816,0,0,1-.79,1.019Z" fill="#60b7ff" fill-rule="evenodd"/>
            <path id="Path_1276218" data-name="Path 1276218" d="M39.745,41.082a3.62,3.62,0,1,1-3.62,3.62A3.62,3.62,0,0,1,39.745,41.082Z" fill="#f6dccd" fill-rule="evenodd"/>
            <path id="Path_1276219" data-name="Path 1276219" d="M39.745,41.082a3.62,3.62,0,1,1-.507,7.2,3.62,3.62,0,0,0,0-7.169,3.647,3.647,0,0,1,.507-.036Z" fill="#f1cbbc" fill-rule="evenodd"/>
          </g>
          <g id="Group_1200826" data-name="Group 1200826">
            <path id="Path_1276220" data-name="Path 1276220" d="M24.13,64.18H36.418a.816.816,0,0,0,.79-1.019,7.162,7.162,0,0,0-13.869,0,.816.816,0,0,0,.79,1.019Z" fill="#8ac9fe" fill-rule="evenodd"/>
            <path id="Path_1276221" data-name="Path 1276221" d="M36.418,64.18a.816.816,0,0,0,.79-1.019,7.163,7.163,0,0,0-6.934-5.37,7.265,7.265,0,0,0-.816.046,7.166,7.166,0,0,1,6.118,5.324.816.816,0,0,1-.79,1.019Z" fill="#60b7ff" fill-rule="evenodd"/>
            <circle id="Ellipse_12421" data-name="Ellipse 12421" cx="3.619" cy="3.619" r="3.619" transform="matrix(0.139, -0.99, 0.99, 0.139, 26.177, 57.277)" fill="#f6dccd"/>
            <path id="Path_1276222" data-name="Path 1276222" d="M30.274,50.549a3.62,3.62,0,1,1-.507,7.2,3.62,3.62,0,0,0,0-7.169A3.649,3.649,0,0,1,30.274,50.549Z" fill="#f1cbbc" fill-rule="evenodd"/>
          </g>
          <g id="Group_1200827" data-name="Group 1200827">
            <path id="Path_1276223" data-name="Path 1276223" d="M43.071,64.18H55.359a.816.816,0,0,0,.79-1.019,7.162,7.162,0,0,0-13.869,0,.816.816,0,0,0,.79,1.019Z" fill="#8ac9fe" fill-rule="evenodd"/>
            <path id="Path_1276224" data-name="Path 1276224" d="M55.36,64.18a.816.816,0,0,0,.79-1.019,7.163,7.163,0,0,0-6.934-5.37,7.265,7.265,0,0,0-.816.046,7.166,7.166,0,0,1,6.118,5.324.816.816,0,0,1-.79,1.019Z" fill="#60b7ff" fill-rule="evenodd"/>
            <circle id="Ellipse_12422" data-name="Ellipse 12422" cx="3.62" cy="3.62" r="3.62" transform="translate(44.859 56.885) rotate(-76.7)" fill="#f6dccd"/>
            <path id="Path_1276225" data-name="Path 1276225" d="M49.216,50.549a3.62,3.62,0,1,1-.507,7.2,3.62,3.62,0,0,0,0-7.169A3.647,3.647,0,0,1,49.216,50.549Z" fill="#f1cbbc" fill-rule="evenodd"/>
          </g>
          <g id="Group_1200829" data-name="Group 1200829">
            <path id="Path_1276226" data-name="Path 1276226" d="M60.56,2.486A15.956,15.956,0,1,0,71.33,30.214l5.186.921-2.21-4.589A15.958,15.958,0,0,0,60.56,2.486Z" fill="#ffe177" fill-rule="evenodd"/>
            <path id="Path_1276227" data-name="Path 1276227" d="M60.56,2.486a15.956,15.956,0,0,0,0,31.912q.611,0,1.211-.045a15.957,15.957,0,0,1,0-31.821q-.6-.045-1.212-.045ZM71.33,30.214l5.186.921-.227-.471-4.554-.809q-.2.183-.405.358Z" fill="#ffd064" fill-rule="evenodd"/>
            <path id="Path_1276228" data-name="Path 1276228" d="M65.794,22.021q-.012-12.035,0-12.016h4a.633.633,0,0,1,.632.632V21.39a.633.633,0,0,1-.632.632Z" fill="#d1d1d6" fill-rule="evenodd"/>
            <path id="Path_1276229" data-name="Path 1276229" d="M70.425,10.637a.633.633,0,0,0-.632-.632h-4V22.021h.632V10.637Z" fill="#b1b1b5" fill-rule="evenodd"/>
            <path id="Path_1276230" data-name="Path 1276230" d="M55.817,8.8c4.657-.8,7.365-1.388,10.072,1.2V22.021c-2.134,1.6-4.952,2.976-4.952,6.008v3.648A4.388,4.388,0,0,1,56.562,27.3v-2.83a4.209,4.209,0,0,1,1.213-2.227C51,20.5,53.884,8.717,55.817,8.8Z" fill="#f6dccd" fill-rule="evenodd"/>
            <path id="Path_1276231" data-name="Path 1276231" d="M64.826,9.147a7.615,7.615,0,0,1,1.063.858V22.021c-2.134,1.6-4.952,2.976-4.952,6.008v3.648a4.361,4.361,0,0,1-3.057-1.252,4.34,4.34,0,0,0,2.239.621V27.4c0-3.032,2.818-4.405,4.952-6.008V9.374q-.122-.118-.245-.226Z" fill="#f1cbbc" fill-rule="evenodd"/>
            <path id="Path_1276232" data-name="Path 1276232" d="M55.287,8.717H52.481a1.738,1.738,0,1,0,0,3.477H51.444a1.738,1.738,0,1,0,0,3.477h-1.22a1.738,1.738,0,1,0,0,3.477h.732a1.738,1.738,0,0,0,0,3.477h4.331a1.738,1.738,0,0,0,0-3.477h.732a1.738,1.738,0,1,0,0-3.477h-.732a1.738,1.738,0,1,0,0-3.477,1.738,1.738,0,0,0,0-3.477Z" fill="#f6dccd" fill-rule="evenodd"/>
            <g id="Group_1200828" data-name="Group 1200828">
              <path id="Path_1276233" data-name="Path 1276233" d="M55.287,8.717H52.481a1.743,1.743,0,0,0-1.738,1.738h6.283a1.743,1.743,0,0,0-1.738-1.738Z" fill="#f1cbbc" fill-rule="evenodd"/>
              <path id="Path_1276234" data-name="Path 1276234" d="M52.481,12.194H51.444a1.744,1.744,0,0,0-1.738,1.738h7.32a1.744,1.744,0,0,0-1.738-1.738Z" fill="#f1cbbc" fill-rule="evenodd"/>
              <path id="Path_1276235" data-name="Path 1276235" d="M51.444,15.671h-1.22a1.743,1.743,0,0,0-1.738,1.738h9.272a1.743,1.743,0,0,0-1.738-1.738H51.444Z" fill="#f1cbbc" fill-rule="evenodd"/>
              <path id="Path_1276236" data-name="Path 1276236" d="M50.957,19.148a1.744,1.744,0,0,0-1.738,1.738h7.807a1.744,1.744,0,0,0-1.738-1.738Z" fill="#f1cbbc" fill-rule="evenodd"/>
            </g>
          </g>
          <g id="Group_1200831" data-name="Group 1200831">
            <path id="Path_1276237" data-name="Path 1276237" d="M18.929,2.486A15.956,15.956,0,1,1,8.159,30.214l-5.186.921,2.21-4.589A15.958,15.958,0,0,1,18.929,2.486Z" fill="#6cf5c2" fill-rule="evenodd"/>
            <path id="Path_1276238" data-name="Path 1276238" d="M18.929,2.486a15.956,15.956,0,1,1,0,31.912q-.611,0-1.211-.045a15.957,15.957,0,0,0,0-31.821q.6-.045,1.212-.045ZM8.159,30.214l-5.186.921.227-.471,4.554-.809q.2.183.405.358Z" fill="#00e499" fill-rule="evenodd"/>
            <path id="Path_1276239" data-name="Path 1276239" d="M12.894,15.3q.012,12.035,0,12.016h-4a.633.633,0,0,1-.632-.632V15.929a.633.633,0,0,1,.632-.632Z" fill="#d1d1d6" fill-rule="evenodd"/>
            <path id="Path_1276240" data-name="Path 1276240" d="M8.263,26.682a.633.633,0,0,0,.632.632h4V15.3h-.632V26.682Z" fill="#b1b1b5" fill-rule="evenodd"/>
            <path id="Path_1276241" data-name="Path 1276241" d="M22.871,28.518c-4.657.8-7.365,1.388-10.072-1.2V15.3c2.134-1.6,4.952-2.976,4.952-6.008V5.642a4.388,4.388,0,0,1,4.375,4.375v2.83a4.209,4.209,0,0,1-1.213,2.227C27.688,16.815,24.8,28.6,22.871,28.518Z" fill="#f6dccd" fill-rule="evenodd"/>
            <path id="Path_1276242" data-name="Path 1276242" d="M13.862,28.171a7.615,7.615,0,0,1-1.063-.858V15.3c2.134-1.6,4.952-2.976,4.952-6.008V5.642a4.36,4.36,0,0,1,3.057,1.252,4.339,4.339,0,0,0-2.239-.621V9.921c0,3.032-2.818,4.405-4.952,6.008V27.945Q13.739,28.062,13.862,28.171Z" fill="#f1cbbc" fill-rule="evenodd"/>
            <path id="Path_1276243" data-name="Path 1276243" d="M23.4,28.6h2.806a1.738,1.738,0,1,0,0-3.477h1.037a1.738,1.738,0,0,0,0-3.477h1.22a1.738,1.738,0,1,0,0-3.477h-.732a1.738,1.738,0,0,0,0-3.477H23.4a1.738,1.738,0,0,0,0,3.477h-.732a1.738,1.738,0,1,0,0,3.477H23.4a1.738,1.738,0,1,0,0,3.477,1.738,1.738,0,0,0,0,3.477Z" fill="#f6dccd" fill-rule="evenodd"/>
            <g id="Group_1200830" data-name="Group 1200830">
              <path id="Path_1276244" data-name="Path 1276244" d="M23.4,28.6h2.806a1.743,1.743,0,0,0,1.738-1.738H21.663A1.743,1.743,0,0,0,23.4,28.6Z" fill="#f1cbbc" fill-rule="evenodd"/>
              <path id="Path_1276245" data-name="Path 1276245" d="M26.207,25.125h1.037a1.743,1.743,0,0,0,1.738-1.738h-7.32A1.743,1.743,0,0,0,23.4,25.125Z" fill="#f1cbbc" fill-rule="evenodd"/>
              <path id="Path_1276246" data-name="Path 1276246" d="M27.244,21.648h1.22A1.743,1.743,0,0,0,30.2,19.91H20.93a1.743,1.743,0,0,0,1.738,1.738h4.575Z" fill="#f1cbbc" fill-rule="evenodd"/>
              <path id="Path_1276247" data-name="Path 1276247" d="M27.732,18.171a1.744,1.744,0,0,0,1.738-1.738H21.663A1.744,1.744,0,0,0,23.4,18.171Z" fill="#f1cbbc" fill-rule="evenodd"/>
            </g>
          </g>
        </g>
        <path id="Path_1276248" data-name="Path 1276248" d="M9.5,26.069H11.65V16.538H9.5Zm5.115-10.483q-.252.172-.482.34V26.758c1.717,1.434,3.405,1.383,6.394.9a2.856,2.856,0,0,1-.11-.8,2.93,2.93,0,0,1,.563-1.738,2.983,2.983,0,0,1-.292-2.984,2.935,2.935,0,0,1-.5-.587c-.292.2-.563.374-.8.508a1.241,1.241,0,1,1-1.235-2.153,4.363,4.363,0,0,0,2.2-2.366,2.221,2.221,0,0,0-.468-1.768,1.242,1.242,0,0,1,.146-1.579,3.018,3.018,0,0,0,.848-1.452V10.015a3.134,3.134,0,0,0-1.885-2.877v2.15c0,3.212-2.426,4.923-4.377,6.3Zm8.783.347a.5.5,0,1,0,0,.994h4.333a.5.5,0,0,0,0-.994Zm5.561,3.974a.5.5,0,0,0-.5-.5H22.669a.5.5,0,0,0,0,.994h5.795A.5.5,0,0,0,28.961,19.908Zm-1.22,3.476a.5.5,0,0,0-.5-.5H23.4a.5.5,0,1,0,0,.992h3.844A.5.5,0,0,0,27.74,23.384ZM26.7,26.862a.5.5,0,0,0-.5-.5H23.4a.5.5,0,1,0,0,.994h2.806A.5.5,0,0,0,26.7,26.862Zm-9.134,3.582a7.35,7.35,0,0,1-5.159-1.89H8.26a1.242,1.242,0,0,1-1.242-1.242V15.3A1.241,1.241,0,0,1,8.26,14.054h4.224c.234-.17.468-.337.7-.5,2.068-1.458,3.325-2.473,3.325-4.268V5.64A1.241,1.241,0,0,1,17.752,4.4a5.618,5.618,0,0,1,5.612,5.617v2.83a1.3,1.3,0,0,1-.007.169,3.29,3.29,0,0,1-.1.444c.051,0,.088-.008.139-.008h4.333a2.986,2.986,0,0,1,2.7,4.227,2.975,2.975,0,0,1-.373,4.745A2.974,2.974,0,0,1,28.99,25.8a3.019,3.019,0,0,1,.2,1.063,2.984,2.984,0,0,1-2.981,2.981H23.4a2.92,2.92,0,0,1-.577-.057l-.314.054a30.221,30.221,0,0,1-4.94.6ZM9,29.3a1.258,1.258,0,0,0-.84-.326,1.164,1.164,0,0,0-.219.02l-2.8.5,1.162-2.4a1.253,1.253,0,0,0-.051-1.171A14.742,14.742,0,1,1,9,29.3Zm9.93,6.342a17.14,17.14,0,0,1-11.143-4.1l-4.6.817A1.243,1.243,0,0,1,1.851,30.6L3.78,26.59a17.2,17.2,0,1,1,15.148,9.048ZM69.179,11.244H67.03v9.534h2.148ZM64.071,21.729c.161-.116.322-.228.482-.34V10.557c-1.724-1.433-3.412-1.382-6.4-.9a2.893,2.893,0,0,1,.11.8,2.97,2.97,0,0,1-.555,1.737,3,3,0,0,1,.285,2.986,2.974,2.974,0,0,1,.512.587,9.349,9.349,0,0,1,.789-.508,1.243,1.243,0,0,1,1.242,2.153,4.349,4.349,0,0,0-2.207,2.366,2.218,2.218,0,0,0,.468,1.766,1.232,1.232,0,0,1-.146,1.579,3.082,3.082,0,0,0-.848,1.453V27.3a3.14,3.14,0,0,0,1.893,2.875V28.028c0-3.214,2.426-4.923,4.377-6.3Zm-8.44-.5a.482.482,0,0,0,.146-.351.5.5,0,0,0-.49-.495H50.955a.5.5,0,1,0,0,.992h4.333a.473.473,0,0,0,.344-.146Zm-5.9-3.826a.5.5,0,0,0,.5.5h5.795a.5.5,0,1,0,0-.993H50.224A.5.5,0,0,0,49.727,17.408Zm1.22-3.477a.5.5,0,0,0,.5.5h3.844a.5.5,0,0,0,0-.993H51.445A.5.5,0,0,0,50.948,13.93Zm1.038-3.476a.5.5,0,0,0,.5.495h2.806a.5.5,0,0,0,.49-.495.483.483,0,0,0-.146-.351.472.472,0,0,0-.343-.146H52.482a.477.477,0,0,0-.351.146.482.482,0,0,0-.146.351ZM71.663,10V22.019a1.241,1.241,0,0,1-1.242,1.242H66.2c-.234.17-.468.335-.694.5-2.068,1.458-3.325,2.473-3.325,4.268v3.648a1.243,1.243,0,0,1-1.242,1.242A5.624,5.624,0,0,1,55.317,27.3v-2.83a1.293,1.293,0,0,1,.015-.169,3.25,3.25,0,0,1,.088-.444c-.044,0-.088.007-.131.007H50.955a2.985,2.985,0,0,1-2.711-4.226,2.981,2.981,0,0,1,.38-4.744,2.819,2.819,0,0,1-.161-.964,2.977,2.977,0,0,1,1.228-2.413,3.018,3.018,0,0,1-.19-1.063,2.977,2.977,0,0,1,2.974-2.981h2.813a2.889,2.889,0,0,1,.57.056l.314-.053c4.289-.745,7.183-1.245,10.1,1.284h4.15A1.242,1.242,0,0,1,71.663,10Zm1.571,15.911a1.253,1.253,0,0,0-.051,1.171l1.162,2.4-2.8-.5a1.253,1.253,0,0,0-1.06.305,14.685,14.685,0,1,1,2.747-3.382Zm4.4,4.682a1.243,1.243,0,0,1-1.337,1.76l-4.6-.817a17.179,17.179,0,1,1,4-4.949ZM35.844,62.935a5.927,5.927,0,0,0-11.143,0Zm-5.575-6.39a2.378,2.378,0,1,0-2.375-2.378A2.381,2.381,0,0,0,30.268,56.545Zm4.487-4.25a4.54,4.54,0,0,1,.329,1.173H44.4a4.538,4.538,0,0,1,.329-1.173,5.906,5.906,0,0,0-4.983-2.733h-.007A5.9,5.9,0,0,0,34.755,52.3Zm4.983-5.217h.007a2.378,2.378,0,1,0-.007,0Zm7.1,7.089a2.378,2.378,0,1,0,2.382-2.378A2.381,2.381,0,0,0,46.834,54.167Zm2.382,4.862a5.914,5.914,0,0,0-5.575,3.906H54.784A5.9,5.9,0,0,0,49.216,59.03ZM37.393,65.42H23.151a1.247,1.247,0,0,1-1.235-1.375,8.381,8.381,0,0,1,4.706-6.669,4.86,4.86,0,0,1,6.54-7.118,8.257,8.257,0,0,1,2.93-2.352,4.863,4.863,0,1,1,7.3,0,8.348,8.348,0,0,1,2.938,2.352,4.816,4.816,0,0,1,2.886-.953,4.859,4.859,0,0,1,3.646,8.071,8.381,8.381,0,0,1,4.706,6.669,1.247,1.247,0,0,1-1.235,1.375H42.091a1.235,1.235,0,0,1-.921-.412,1.255,1.255,0,0,1-.314-.962,8.381,8.381,0,0,1,4.706-6.669,4.837,4.837,0,0,1-.87-1.423h-9.9a4.84,4.84,0,0,1-.87,1.423,8.381,8.381,0,0,1,4.706,6.669,1.255,1.255,0,0,1-.314.962,1.234,1.234,0,0,1-.921.412Zm20.365-21.88a1.238,1.238,0,0,1,1.7.447,22.8,22.8,0,0,1-31.969,30.68l.066.235a1.238,1.238,0,0,1-.848,1.534,1.275,1.275,0,0,1-.343.048,1.236,1.236,0,0,1-1.191-.9l-1.1-3.824a1.268,1.268,0,0,1,.19-1.071,1.244,1.244,0,0,1,.965-.511l3.975-.143a1.242,1.242,0,0,1,.088,2.482l-.526.018a20.314,20.314,0,0,0,28.542-27.3,1.244,1.244,0,0,1,.453-1.7ZM22.18,65.648a20.313,20.313,0,0,1,28.542-27.3l-.526.018a1.241,1.241,0,0,0,.044,2.482h.044l3.975-.143a1.242,1.242,0,0,0,1.155-1.582l-1.1-3.824a1.239,1.239,0,1,0-2.382.682l.058.233A22.795,22.795,0,0,0,20.031,66.9a1.24,1.24,0,0,0,1.7.449,1.246,1.246,0,0,0,.453-1.7Z" fill-rule="evenodd"/>
      </g>
    </g>
  </g>
</svg>
