<svg xmlns="http://www.w3.org/2000/svg" xmlns:xlink="http://www.w3.org/1999/xlink" width="98.993" height="88.352" viewBox="0 0 98.993 88.352">
  <defs>
    <clipPath id="clip-path">
      <rect id="Rectangle_412015" data-name="Rectangle 412015" width="85" height="77" transform="translate(2528 -7337.673)" fill="#fff" stroke="#707070" stroke-width="1"/>
    </clipPath>
  </defs>
  <g id="Group_1200847" data-name="Group 1200847" transform="translate(-2519.601 7343.673)">
    <g id="Group_1200594" data-name="Group 1200594" transform="translate(2519.601 -7343.673)">
      <g id="Group_1200589" data-name="Group 1200589">
        <ellipse id="Ellipse_12397" data-name="Ellipse 12397" cx="24.92" cy="24.92" rx="24.92" ry="24.92" transform="translate(49.154 38.512)" fill="#e6e51d"/>
        <ellipse id="Ellipse_12398" data-name="Ellipse 12398" cx="18.123" cy="18.123" rx="18.123" ry="18.123" fill="#e6e51d"/>
      </g>
    </g>
    <g id="Mask_Group_1099556" data-name="Mask Group 1099556" clip-path="url(#clip-path)">
      <g id="_409802166_4f69bb57-bada-44b8-89b6-f8f4e4f04c2d" data-name="409802166_4f69bb57-bada-44b8-89b6-f8f4e4f04c2d" transform="translate(2514.158 -7355.514)">
        <g id="Group_1200833" data-name="Group 1200833">
          <path id="Path_1276249" data-name="Path 1276249" d="M92.024,84.25H20.659a1.878,1.878,0,0,1-1.878-1.878V30.805a1.878,1.878,0,0,1,1.878-1.878H92.024A1.878,1.878,0,0,1,93.9,30.805V82.372A1.878,1.878,0,0,1,92.024,84.25Z" fill="#f2f2f2"/>
          <path id="Path_1276250" data-name="Path 1276250" d="M92.024,85.189H20.659a2.82,2.82,0,0,1-2.817-2.817V30.805a2.82,2.82,0,0,1,2.817-2.817H92.024a2.82,2.82,0,0,1,2.817,2.817V82.372A2.821,2.821,0,0,1,92.024,85.189ZM20.659,29.866a.94.94,0,0,0-.939.939V82.372a.94.94,0,0,0,.939.939H92.024a.94.94,0,0,0,.939-.939V30.805a.94.94,0,0,0-.939-.939Z"/>
        </g>
        <g id="Group_1200834" data-name="Group 1200834">
          <path id="Path_1276251" data-name="Path 1276251" d="M92.024,28.927H20.659a1.878,1.878,0,0,1-1.878-1.878V20.659a1.878,1.878,0,0,1,1.878-1.878H92.024A1.878,1.878,0,0,1,93.9,20.659v6.391A1.878,1.878,0,0,1,92.024,28.927Z" fill="#2e58a6"/>
          <path id="Path_1276252" data-name="Path 1276252" d="M92.024,29.866H20.659a2.82,2.82,0,0,1-2.817-2.817V20.659a2.82,2.82,0,0,1,2.817-2.817H92.024a2.82,2.82,0,0,1,2.817,2.817v6.391A2.82,2.82,0,0,1,92.024,29.866ZM20.659,19.72a.94.94,0,0,0-.939.939v6.391a.94.94,0,0,0,.939.939H92.024a.94.94,0,0,0,.939-.939V20.659a.94.94,0,0,0-.939-.939Z"/>
        </g>
        <g id="Group_1200835" data-name="Group 1200835">
          <circle id="Ellipse_12423" data-name="Ellipse 12423" cx="1.906" cy="1.906" r="1.906" transform="translate(87.226 21.948)" fill="#fd1a16"/>
          <path id="Path_1276253" data-name="Path 1276253" d="M89.132,26.7a2.845,2.845,0,1,1,2.845-2.845A2.849,2.849,0,0,1,89.132,26.7Zm0-3.812a.967.967,0,1,0,.967.967A.968.968,0,0,0,89.132,22.887Z"/>
        </g>
        <g id="Group_1200836" data-name="Group 1200836">
          <circle id="Ellipse_12424" data-name="Ellipse 12424" cx="1.906" cy="1.906" r="1.906" transform="translate(79.113 21.948)" fill="#fea621"/>
          <path id="Path_1276254" data-name="Path 1276254" d="M81.019,26.7a2.845,2.845,0,1,1,2.845-2.845A2.849,2.849,0,0,1,81.019,26.7Zm0-3.812a.967.967,0,1,0,.967.967A.968.968,0,0,0,81.019,22.887Z"/>
        </g>
        <g id="Group_1200837" data-name="Group 1200837">
          <circle id="Ellipse_12425" data-name="Ellipse 12425" cx="1.906" cy="1.906" r="1.906" transform="translate(71 21.948)" fill="#41aa54"/>
          <path id="Path_1276255" data-name="Path 1276255" d="M72.906,26.7a2.845,2.845,0,1,1,2.845-2.845A2.849,2.849,0,0,1,72.906,26.7Zm0-3.812a.967.967,0,1,0,.967.967A.968.968,0,0,0,72.906,22.887Z"/>
        </g>
        <g id="Group_1200841" data-name="Group 1200841">
          <g id="Group_1200838" data-name="Group 1200838">
            <path id="Path_1276256" data-name="Path 1276256" d="M71.448,93.9H41.235a3.756,3.756,0,0,1-3.36-5.436L52.982,58.253a3.756,3.756,0,0,1,6.719,0L74.808,88.467A3.756,3.756,0,0,1,71.448,93.9Z" fill="#fd1a16"/>
            <path id="Path_1276257" data-name="Path 1276257" d="M71.448,94.841H41.235a4.7,4.7,0,0,1-4.2-6.795L52.142,57.833a4.7,4.7,0,0,1,8.4,0L75.648,88.047a4.7,4.7,0,0,1-4.2,6.795ZM56.341,57.116a2.766,2.766,0,0,0-2.52,1.557L38.715,88.887a2.817,2.817,0,0,0,2.52,4.077H71.448a2.817,2.817,0,0,0,2.52-4.077L58.861,58.673A2.766,2.766,0,0,0,56.341,57.116Z"/>
          </g>
          <g id="Group_1200839" data-name="Group 1200839">
            <path id="Path_1276258" data-name="Path 1276258" d="M56.341,82.465h0a2.216,2.216,0,0,1-2.216-2.216V66.111A2.216,2.216,0,0,1,56.341,63.9h0a2.216,2.216,0,0,1,2.216,2.216V80.249A2.216,2.216,0,0,1,56.341,82.465Z" fill="#f2f2f2"/>
            <path id="Path_1276259" data-name="Path 1276259" d="M56.341,83.4a3.159,3.159,0,0,1-3.155-3.155V66.111a3.155,3.155,0,0,1,6.31,0V80.249A3.159,3.159,0,0,1,56.341,83.4Zm0-18.57a1.278,1.278,0,0,0-1.277,1.277V80.249a1.277,1.277,0,0,0,2.554,0V66.111A1.278,1.278,0,0,0,56.341,64.834Z"/>
          </g>
          <g id="Group_1200840" data-name="Group 1200840">
            <path id="Path_1276260" data-name="Path 1276260" d="M56.341,89.676h0a2.216,2.216,0,0,1-2.216-2.216h0a2.216,2.216,0,0,1,2.216-2.216h0a2.216,2.216,0,0,1,2.216,2.216h0A2.216,2.216,0,0,1,56.341,89.676Z" fill="#f2f2f2"/>
            <path id="Path_1276261" data-name="Path 1276261" d="M56.341,90.615A3.155,3.155,0,1,1,59.5,87.46,3.159,3.159,0,0,1,56.341,90.615Zm0-4.432a1.277,1.277,0,1,0,1.277,1.277A1.278,1.278,0,0,0,56.341,86.183Z"/>
          </g>
        </g>
      </g>
    </g>
  </g>
</svg>
