<svg xmlns="http://www.w3.org/2000/svg" xmlns:xlink="http://www.w3.org/1999/xlink" width="315.034" height="281.168" viewBox="0 0 315.034 281.168">
  <defs>
    <clipPath id="clip-path">
      <rect id="Rectangle_412379" data-name="Rectangle 412379" width="271" height="240" transform="translate(13474.017 -5591.729)" fill="#fff" stroke="#707070" stroke-width="1"/>
    </clipPath>
  </defs>
  <g id="Group_1202336" data-name="Group 1202336" transform="translate(-13452 5612.313)">
    <g id="Group_1200703" data-name="Group 1200703" transform="translate(13452 -5612.313)">
      <g id="Group_1200628" data-name="Group 1200628">
        <ellipse id="Ellipse_12399" data-name="Ellipse 12399" cx="79.304" cy="79.304" rx="79.304" ry="79.304" transform="translate(156.426 122.56)" fill="#c8a0e6"/>
        <ellipse id="Ellipse_12400" data-name="Ellipse 12400" cx="57.676" cy="57.676" rx="57.676" ry="57.676" fill="#c8a0e6"/>
      </g>
    </g>
    <g id="Mask_Group_1099579" data-name="Mask Group 1099579" clip-path="url(#clip-path)">
      <g id="vision_413661" transform="translate(13474.017 -5607.229)">
        <path id="Path_1286468" data-name="Path 1286468" d="M135.5,215.429c-15.8,0-39.487-10.142-70.4-30.146a682.934,682.934,0,0,1-57.557-42.27,9.7,9.7,0,0,1,0-15.025A683.177,683.177,0,0,1,65.105,85.718c30.909-20,54.592-30.146,70.4-30.146s39.487,10.142,70.4,30.146a682.957,682.957,0,0,1,57.557,42.27,9.7,9.7,0,0,1,0,15.025A683.175,683.175,0,0,1,205.9,185.284C174.987,205.287,151.3,215.429,135.5,215.429Z" fill="#e6e7e4"/>
        <path id="Path_1286469" data-name="Path 1286469" d="M91.549,185.283a682.934,682.934,0,0,1-57.557-42.27,9.7,9.7,0,0,1,0-15.025A683.177,683.177,0,0,1,91.549,85.717c23.232-15.036,42.383-24.5,57.174-28.272A54.065,54.065,0,0,0,135.5,55.572c-15.8,0-39.487,10.142-70.4,30.146A682.762,682.762,0,0,0,7.548,127.988a9.7,9.7,0,0,0,0,15.025,683.047,683.047,0,0,0,57.557,42.27c30.909,20,54.592,30.146,70.4,30.146a54.065,54.065,0,0,0,13.222-1.873C133.932,209.782,114.782,200.319,91.549,185.283Z" fill="#ced0cd"/>
        <path id="Path_1286470" data-name="Path 1286470" d="M135.5,192.674A57.173,57.173,0,1,1,192.674,135.5,57.238,57.238,0,0,1,135.5,192.674Z" fill="#5683bf"/>
        <path id="Path_1286471" data-name="Path 1286471" d="M100.069,135.5a57.267,57.267,0,0,1,46.3-56.132,57.173,57.173,0,1,0,0,112.264A57.267,57.267,0,0,1,100.069,135.5Z" fill="#486d9a"/>
        <path id="Path_1286472" data-name="Path 1286472" d="M135.5,164.345A28.844,28.844,0,1,1,164.345,135.5,28.877,28.877,0,0,1,135.5,164.345Z" fill="#5d5d5d"/>
        <path id="Path_1286473" data-name="Path 1286473" d="M129.175,135.5a28.887,28.887,0,0,1,17.585-26.554,28.844,28.844,0,1,0,0,53.109A28.888,28.888,0,0,1,129.175,135.5Z" fill="#484848"/>
        <path id="Path_1286474" data-name="Path 1286474" d="M152.567,128.39a9.956,9.956,0,1,0-9.956-9.956A9.967,9.967,0,0,0,152.567,128.39Z" fill="#ced0cd"/>
        <path id="Path_1286475" data-name="Path 1286475" d="M221.368,74.068c4.552,3.031,9.284,6.286,14.064,9.675a4.266,4.266,0,0,0,4.936-6.96c-4.847-3.438-9.649-6.741-14.271-9.818a4.267,4.267,0,0,0-4.729,7.1Z"/>
        <path id="Path_1286476" data-name="Path 1286476" d="M54.989,69.748a4.255,4.255,0,0,0,2.294-.672c33.39-21.337,58.975-31.709,78.218-31.709,16.878,0,38.5,7.93,66.092,24.242a4.267,4.267,0,0,0,4.342-7.346C176.988,37.152,153.948,28.835,135.5,28.835c-20.92,0-48.009,10.811-82.813,33.051a4.267,4.267,0,0,0,2.3,7.862Z"/>
        <path id="Path_1286477" data-name="Path 1286477" d="M48.357,196.933c-4.552-3.031-9.284-6.286-14.064-9.675a4.266,4.266,0,1,0-4.936,6.96c4.847,3.438,9.649,6.741,14.271,9.818a4.267,4.267,0,0,0,4.729-7.1Z"/>
        <path id="Path_1286478" data-name="Path 1286478" d="M190.348,215.057c-22.958,12.5-41.317,18.576-56.125,18.576-16.878,0-38.5-7.93-66.092-24.242a4.267,4.267,0,1,0-4.342,7.346c28.948,17.112,51.987,25.429,70.435,25.429,16.27,0,35.963-6.416,60.2-19.615a4.266,4.266,0,0,0-4.08-7.494Z"/>
        <path id="Path_1286479" data-name="Path 1286479" d="M265.971,124.9h0C238.959,102.86,172.174,51.59,135.5,51.59S32.042,102.86,5.029,124.9a13.679,13.679,0,0,0,0,21.195c27.011,22.043,93.8,73.314,130.47,73.314s103.459-51.27,130.471-73.314a13.68,13.68,0,0,0,0-21.195Zm-5.4,14.584c-20.522,16.748-90.193,71.391-125.076,71.391S30.948,156.234,10.425,139.487a5.146,5.146,0,0,1,0-7.972C30.948,114.767,100.618,60.123,135.5,60.123s104.553,54.644,125.075,71.391h0a5.145,5.145,0,0,1,0,7.972Z"/>
        <path id="Path_1286480" data-name="Path 1286480" d="M133.467,74.379A61.123,61.123,0,0,0,89.135,175.335a4.211,4.211,0,0,0,6.168.189l.06-.06a4.24,4.24,0,0,0,.179-5.76,52.578,52.578,0,1,1,15.02,12.122,4.211,4.211,0,0,0-4.991.744l-.064.064a4.223,4.223,0,0,0,.977,6.687,61.15,61.15,0,1,0,26.98-114.942Z"/>
        <path id="Path_1286481" data-name="Path 1286481" d="M163.945,131.234a4.267,4.267,0,0,0-4.267,4.267A24.178,24.178,0,1,1,135.5,111.323a4.267,4.267,0,1,0,0-8.533A32.711,32.711,0,1,0,168.211,135.5,4.266,4.266,0,0,0,163.945,131.234Z"/>
      </g>
    </g>
  </g>
</svg>
