<svg xmlns="http://www.w3.org/2000/svg" xmlns:xlink="http://www.w3.org/1999/xlink" width="315.033" height="281.168" viewBox="0 0 315.033 281.168">
  <defs>
    <clipPath id="clip-path">
      <rect id="Rectangle_412381" data-name="Rectangle 412381" width="271" height="240" transform="translate(311.983 6532.271)" fill="#fff" stroke="#707070" stroke-width="1"/>
    </clipPath>
    <clipPath id="clip-path-2">
      <path id="path3105" d="M0-240H240V0H0Z"/>
    </clipPath>
  </defs>
  <g id="Group_1202337" data-name="Group 1202337" transform="translate(-285 -6509.687)">
    <g id="Group_1200702" data-name="Group 1200702" transform="translate(285 6509.687)">
      <g id="Group_1200628" data-name="Group 1200628">
        <ellipse id="Ellipse_12399" data-name="Ellipse 12399" cx="79.304" cy="79.304" rx="79.304" ry="79.304" transform="translate(156.426 122.56)" fill="#c8a0e6"/>
        <ellipse id="Ellipse_12400" data-name="Ellipse 12400" cx="57.676" cy="57.676" rx="57.676" ry="57.676" fill="#c8a0e6"/>
      </g>
    </g>
    <g id="Mask_Group_1099580" data-name="Mask Group 1099580" clip-path="url(#clip-path)">
      <g id="g3099" transform="translate(327.483 6772.271)">
        <g id="g3101">
          <g id="g3103" clip-path="url(#clip-path-2)">
            <g id="g3109" transform="translate(180.624 -217.116)">
              <path id="path3111" d="M0,0A73.743,73.743,0,0,0-49.862-19.368a73.983,73.983,0,0,0-47.2,17.048A74.362,74.362,0,0,0-127.22,18.565a73.469,73.469,0,0,0-16.713,34.2,3.737,3.737,0,0,0,3.682,4.431h9.092a3.732,3.732,0,0,0,3.645-2.9A57.2,57.2,0,0,1-114.848,29.3,57.975,57.975,0,0,1-90.2,12.618a8.215,8.215,0,0,0,2.665-1.541A57.6,57.6,0,0,1-49.862-2.986,57.4,57.4,0,0,1-11.053,12.09,57.488,57.488,0,0,1,6.272,41.83a3.728,3.728,0,0,0,3.643,2.888H19a3.741,3.741,0,0,0,3.682-4.445A73.82,73.82,0,0,0,0,0" fill="#60b8ff"/>
            </g>
            <g id="g3113" transform="translate(199.624 -172.397)">
              <path id="path3115" d="M0,0H-6.707A3.743,3.743,0,0,0-3.023-4.446,73.851,73.851,0,0,0-25.71-44.721,73.769,73.769,0,0,0-72.195-64.013q1.664-.077,3.333-.075A73.743,73.743,0,0,1-19-44.721,73.788,73.788,0,0,1,3.683-4.446,3.743,3.743,0,0,1,0,0" fill="#26a5fe"/>
            </g>
            <g id="g3117" transform="translate(162.737 -210.386)">
              <path id="path3119" d="M0,0A57.908,57.908,0,0,1,6.834,5.361,57.491,57.491,0,0,1,24.159,35.1,3.728,3.728,0,0,0,27.8,37.988H36.89a3.741,3.741,0,0,0,3.682-4.445A73.816,73.816,0,0,0,17.887-6.73,73.739,73.739,0,0,0-31.975-26.1,73.983,73.983,0,0,0-79.18-9.05a74.366,74.366,0,0,0-30.153,20.885,73.464,73.464,0,0,0-16.713,34.2,3.737,3.737,0,0,0,3.682,4.431h9.092a3.732,3.732,0,0,0,3.645-2.9A57.2,57.2,0,0,1-96.961,22.572,57.974,57.974,0,0,1-72.316,5.888a8.205,8.205,0,0,0,2.664-1.541A57.6,57.6,0,0,1-31.975-9.717,57.476,57.476,0,0,1-14.327-6.944" fill="none" stroke="#000" stroke-linecap="round" stroke-linejoin="round" stroke-miterlimit="10" stroke-width="7.031"/>
            </g>
            <g id="g3121" transform="translate(70.824 -145.902)">
              <path id="path3123" d="M0,0A3.739,3.739,0,0,1-3.732-4.081,42.328,42.328,0,0,1,6.433-27.73,42.426,42.426,0,0,1,28.949-41.279a42.134,42.134,0,0,1,30.982-13.5,42.408,42.408,0,0,1,42.154,38.271,3.738,3.738,0,0,1-3.732,4.077H89.4a3.755,3.755,0,0,1-3.715-3.3A26.006,26.006,0,0,0,59.931-38.4a25.871,25.871,0,0,0-20.263,9.75,8.147,8.147,0,0,1-5.145,2.97A26.152,26.152,0,0,0,12.667-3.308,3.763,3.763,0,0,1,8.949,0Z" fill="#b4daff"/>
            </g>
            <g id="g3125" transform="translate(169.184 -158.332)">
              <path id="path3127" d="M0,0H-6.707a3.735,3.735,0,0,0,3.73-4.077A42.425,42.425,0,0,0-41.8-42.217c1.119-.084,2.242-.131,3.375-.131A42.4,42.4,0,0,1,3.73-4.077,3.736,3.736,0,0,1,0,0" fill="#8bc9fe"/>
            </g>
            <g id="g3129" transform="translate(70.832 -145.902)">
              <path id="path3131" d="M0,0A3.739,3.739,0,0,1-3.732-4.081,42.324,42.324,0,0,1,6.433-27.73,42.427,42.427,0,0,1,28.948-41.279a42.136,42.136,0,0,1,30.983-13.5,42.407,42.407,0,0,1,42.153,38.271,3.738,3.738,0,0,1-3.732,4.077H89.4a3.755,3.755,0,0,1-3.715-3.3A26.007,26.007,0,0,0,59.931-38.4a25.871,25.871,0,0,0-20.263,9.75,8.147,8.147,0,0,1-5.145,2.97A26.152,26.152,0,0,0,12.667-3.308,3.763,3.763,0,0,1,8.949,0Z" fill="none" stroke="#000" stroke-linecap="round" stroke-linejoin="round" stroke-miterlimit="10" stroke-width="7.031"/>
            </g>
            <g id="g3133" transform="translate(173.785 -100.967)">
              <path id="path3135" d="M0,0H0A10.756,10.756,0,0,0-10.755,10.756V5.722A10.756,10.756,0,0,0-21.512-5.034,10.756,10.756,0,0,0-32.267,5.722V-53.152A10.756,10.756,0,0,0-43.023-63.908,10.756,10.756,0,0,0-53.779-53.152v12.429A10.756,10.756,0,0,0-64.535-51.478,10.756,10.756,0,0,0-75.291-40.723V30.09L-86.764,18.616a16.728,16.728,0,0,0-23.645-.013l-.2.2a10.992,10.992,0,0,0-.01,15.555L-93.1,51.871a68.011,68.011,0,0,1,15.773,24.7A31.675,31.675,0,0,0-47.623,97.451h26.8A31.578,31.578,0,0,0,10.756,65.873V10.756A10.756,10.756,0,0,0,0,0" fill="#ffcebf"/>
            </g>
            <g id="g3137" transform="translate(184.542 -90.213)">
              <path id="path3139" d="M0,0V55.118A31.579,31.579,0,0,1-31.578,86.7H-38.47A31.579,31.579,0,0,0-6.892,55.118V0A10.749,10.749,0,0,0-14.2-10.185a10.606,10.606,0,0,1,3.444-.569A10.757,10.757,0,0,1,0,0" fill="#ffbbab"/>
            </g>
            <g id="g3141" transform="translate(98.494 -92.109)">
              <path id="path3143" d="M0,0V21.233L-11.474,9.759a16.727,16.727,0,0,0-23.644-.013l-.2.2a10.992,10.992,0,0,0-.01,15.555l17.514,17.515a68.017,68.017,0,0,1,15.773,24.7A31.675,31.675,0,0,0,27.668,88.594h26.8a31.42,31.42,0,0,0,15.615-4.135" fill="none" stroke="#000" stroke-linecap="round" stroke-linejoin="round" stroke-miterlimit="10" stroke-width="7.031"/>
            </g>
            <g id="g3145" transform="translate(179.999 -18.77)">
              <path id="path3147" d="M0,0A31.427,31.427,0,0,0,4.542-16.323V-71.441A10.756,10.756,0,0,0-6.214-82.2,10.756,10.756,0,0,0-16.969-71.441v-5.034A10.756,10.756,0,0,0-27.725-87.231,10.756,10.756,0,0,0-38.481-76.475v-58.874A10.756,10.756,0,0,0-49.237-146.1a10.756,10.756,0,0,0-10.756,10.755v12.43a10.756,10.756,0,0,0-10.756-10.756A10.756,10.756,0,0,0-81.5-122.919v33.642" fill="none" stroke="#000" stroke-linecap="round" stroke-linejoin="round" stroke-miterlimit="10" stroke-width="7.031"/>
            </g>
            <g id="g3149" transform="translate(120.006 -143.093)">
              <path id="path3151" d="M0,0V55" fill="none" stroke="#000" stroke-linecap="round" stroke-linejoin="round" stroke-miterlimit="10" stroke-width="7.031"/>
            </g>
            <g id="g3153" transform="translate(141.518 -96.649)">
              <path id="path3155" d="M0,0V8.555" fill="none" stroke="#000" stroke-linecap="round" stroke-linejoin="round" stroke-miterlimit="10" stroke-width="7.031"/>
            </g>
            <g id="g3157" transform="translate(163.03 -90.211)">
              <path id="path3159" d="M0,0V3.521" fill="none" stroke="#000" stroke-linecap="round" stroke-linejoin="round" stroke-miterlimit="10" stroke-width="7.031"/>
            </g>
            <g id="g3161" transform="translate(98.494 -72.281)">
              <path id="path3163" d="M0,0V13.8" fill="none" stroke="#000" stroke-linecap="round" stroke-linejoin="round" stroke-miterlimit="10" stroke-width="7.031"/>
            </g>
          </g>
        </g>
      </g>
    </g>
  </g>
</svg>
