<svg xmlns="http://www.w3.org/2000/svg" xmlns:xlink="http://www.w3.org/1999/xlink" width="84.912" height="84.912" viewBox="0 0 84.912 84.912">
  <defs>
    <clipPath id="clip-path">
      <path id="path5676" d="M0-682.665H84.912v84.912H0Z" transform="translate(0 682.665)"/>
    </clipPath>
  </defs>
  <g id="g5670" transform="translate(0 682.665)">
    <g id="g5672" transform="translate(0 -682.665)">
      <g id="g5674" clip-path="url(#clip-path)">
        <g id="g5680" transform="translate(4.276 58.833)">
          <path id="path5682" d="M-141.345,0h-19.82a.255.255,0,0,0-.259.259V20.1a.258.258,0,0,0,.259.259h19.82a.261.261,0,0,0,.259-.259V.259A.258.258,0,0,0-141.345,0" transform="translate(161.424)" fill="#c8effe" fill-rule="evenodd"/>
        </g>
        <g id="g5684" transform="translate(4.276 68.731)">
          <path id="path5686" d="M-21.644-2.932-24.719.2v6.65a.258.258,0,0,0,.259.259H-9.811L-15.49,1.67l-.132-.132L-20-2.932a1.016,1.016,0,0,0-1.641,0" transform="translate(24.719 3.349)" fill="#80d261" fill-rule="evenodd"/>
        </g>
        <g id="g5688" transform="translate(13.373 67.92)">
          <path id="path5690" d="M-36.239-3.143l-5.148,5.252.132.132,5.679,5.44H-30.4a.261.261,0,0,0,.259-.259V1.271l-4.325-4.414a1.084,1.084,0,0,0-1.636-.132,1.762,1.762,0,0,0-.132.132" transform="translate(41.387 3.59)" fill="#80d261" fill-rule="evenodd"/>
        </g>
        <g id="g5692" transform="translate(8.441 68.781)">
          <path id="path5694" d="M-34.715-34.056-39.1-38.526a1.563,1.563,0,0,0-.55-.367A22.1,22.1,0,0,1-38.335-35.5a21.147,21.147,0,0,1,.893,7.017H-28.9l-5.679-5.44Z" transform="translate(39.647 38.893)" fill="#68ca44" fill-rule="evenodd"/>
        </g>
        <g id="g5696" transform="translate(13.974 58.833)">
          <path id="path5698" d="M-73.072,0h-10.38a19.624,19.624,0,0,1,5.246,8.819c.028.089.052.183.08.273a1.267,1.267,0,0,1,.987.442l4.325,4.414V.259A.258.258,0,0,0-73.072,0" transform="translate(83.452)" fill="#99e6fc" fill-rule="evenodd"/>
        </g>
        <g id="g5700" transform="translate(19.254 67.921)">
          <path id="path5702" d="M-37.727-34.213l-4.325-4.414a1.267,1.267,0,0,0-.987-.442A18.8,18.8,0,0,1-43.087-27.8h5.1a.261.261,0,0,0,.259-.259v-6.151Z" transform="translate(43.087 39.073)" fill="#68ca44" fill-rule="evenodd"/>
        </g>
        <g id="g5704" transform="translate(4.276 68.731)">
          <path id="path5706" d="M-104.943-73.628l-5.679-5.44-4.513-4.6a1.016,1.016,0,0,0-1.641,0l-3.075,3.134" transform="translate(119.85 84.086)" fill="none" stroke="#000" stroke-linecap="round" stroke-linejoin="round" stroke-miterlimit="10" stroke-width="1"/>
        </g>
        <g id="g5708" transform="translate(13.373 67.919)">
          <path id="path5710" d="M-79.129-40.126v-.838l-4.325-4.414a1.1,1.1,0,0,0-1.768,0l-5.148,5.252" transform="translate(90.369 45.827)" fill="none" stroke="#000" stroke-linecap="round" stroke-linejoin="round" stroke-miterlimit="10" stroke-width="1"/>
        </g>
        <g id="g5712" transform="translate(4.276 58.833)">
          <path id="path5714" d="M-141.345,0h-19.82a.255.255,0,0,0-.259.259V20.1a.258.258,0,0,0,.259.259h19.82a.261.261,0,0,0,.259-.259V.259A.258.258,0,0,0-141.345,0Z" transform="translate(161.424)" fill="none" stroke="#000" stroke-linecap="round" stroke-linejoin="round" stroke-miterlimit="10" stroke-width="1"/>
        </g>
        <g id="g5716" transform="translate(32.045 58.833)">
          <path id="path5718" d="M-141.379,0H-161.2a.258.258,0,0,0-.259.259V20.1a.261.261,0,0,0,.259.259h19.825a.261.261,0,0,0,.259-.259V.259A.258.258,0,0,0-141.379,0" transform="translate(161.462)" fill="#c8effe" fill-rule="evenodd"/>
        </g>
        <g id="g5720" transform="translate(32.045 68.731)">
          <path id="path5722" d="M-21.677-2.932-24.756.2v6.65a.261.261,0,0,0,.258.259H-9.844l-5.679-5.44-.132-.132-4.381-4.471a1.016,1.016,0,0,0-1.641,0" transform="translate(24.756 3.349)" fill="#80d261" fill-rule="evenodd"/>
        </g>
        <g id="g5724" transform="translate(41.147 67.92)">
          <path id="path5726" d="M-36.2-3.143l-5.143,5.252.132.132,5.679,5.44h5.171a.261.261,0,0,0,.259-.259V1.271l-4.325-4.414a1.089,1.089,0,0,0-1.641-.132l-.132.132" transform="translate(41.348 3.59)" fill="#80d261" fill-rule="evenodd"/>
        </g>
        <g id="g5728" transform="translate(36.215 68.781)">
          <path id="path5730" d="M-34.715-34.056-39.1-38.526a1.563,1.563,0,0,0-.55-.367A22.583,22.583,0,0,1-38.335-35.5a21.143,21.143,0,0,1,.893,7.017H-28.9l-5.679-5.44Z" transform="translate(39.647 38.893)" fill="#68ca44" fill-rule="evenodd"/>
        </g>
        <g id="g5732" transform="translate(41.748 58.833)">
          <path id="path5734" d="M-73.073,0h-10.38a19.707,19.707,0,0,1,5.246,8.819c.024.089.052.183.08.273a1.273,1.273,0,0,1,.987.442l4.325,4.414V.259A.258.258,0,0,0-73.073,0" transform="translate(83.453)" fill="#99e6fc" fill-rule="evenodd"/>
        </g>
        <g id="g5736" transform="translate(47.028 67.921)">
          <path id="path5738" d="M-37.726-34.213l-4.325-4.414a1.273,1.273,0,0,0-.987-.442A18.8,18.8,0,0,1-43.085-27.8h5.1a.261.261,0,0,0,.259-.259v-6.151Z" transform="translate(43.085 39.073)" fill="#68ca44" fill-rule="evenodd"/>
        </g>
        <g id="g5740" transform="translate(32.045 68.731)">
          <path id="path5742" d="M-104.975-73.628l-5.679-5.44-4.513-4.6a1.016,1.016,0,0,0-1.641,0l-3.079,3.134" transform="translate(119.886 84.086)" fill="none" stroke="#000" stroke-linecap="round" stroke-linejoin="round" stroke-miterlimit="10" stroke-width="1"/>
        </g>
        <g id="g5744" transform="translate(41.147 67.919)">
          <path id="path5746" d="M-79.128-40.126v-.838l-4.325-4.414a1.1,1.1,0,0,0-1.773,0l-5.143,5.252" transform="translate(90.368 45.827)" fill="none" stroke="#000" stroke-linecap="round" stroke-linejoin="round" stroke-miterlimit="10" stroke-width="1"/>
        </g>
        <g id="g5748" transform="translate(32.045 58.833)">
          <path id="path5750" d="M-141.379,0H-161.2a.258.258,0,0,0-.259.259V20.1a.261.261,0,0,0,.259.259h19.825a.261.261,0,0,0,.259-.259V.259A.258.258,0,0,0-141.379,0Z" transform="translate(161.462)" fill="none" stroke="#000" stroke-linecap="round" stroke-linejoin="round" stroke-miterlimit="10" stroke-width="1"/>
        </g>
        <g id="g5752" transform="translate(60.294 58.833)">
          <path id="path5754" d="M-141.379,0H-161.2a.258.258,0,0,0-.259.259V20.1a.261.261,0,0,0,.259.259h19.824a.261.261,0,0,0,.259-.259V.259A.258.258,0,0,0-141.379,0" transform="translate(161.462)" fill="#c8effe" fill-rule="evenodd"/>
        </g>
        <g id="g5756" transform="translate(60.294 68.731)">
          <path id="path5758" d="M-21.644-2.932-24.719.2v6.65a.261.261,0,0,0,.259.259H-9.807l-5.679-5.44-.132-.132L-20-2.932a1.02,1.02,0,0,0-1.645,0" transform="translate(24.719 3.349)" fill="#80d261" fill-rule="evenodd"/>
        </g>
        <g id="g5760" transform="translate(69.396 67.92)">
          <path id="path5762" d="M-36.206-3.143l-5.143,5.252.132.132,5.679,5.44h5.171a.261.261,0,0,0,.259-.259V1.271l-4.325-4.414a1.089,1.089,0,0,0-1.641-.132c-.042.042-.089.085-.132.132" transform="translate(41.349 3.59)" fill="#80d261" fill-rule="evenodd"/>
        </g>
        <g id="g5764" transform="translate(64.464 68.781)">
          <path id="path5766" d="M-34.715-34.056-39.1-38.526a1.563,1.563,0,0,0-.55-.367A22.584,22.584,0,0,1-38.335-35.5a21.147,21.147,0,0,1,.893,7.017H-28.9l-5.679-5.44Z" transform="translate(39.647 38.893)" fill="#68ca44" fill-rule="evenodd"/>
        </g>
        <g id="g5768" transform="translate(69.997 58.833)">
          <path id="path5770" d="M-73.072,0h-10.38a19.707,19.707,0,0,1,5.246,8.819c.024.089.052.183.075.273a1.282,1.282,0,0,1,.992.442l4.325,4.414V.259A.258.258,0,0,0-73.072,0" transform="translate(83.452)" fill="#99e6fc" fill-rule="evenodd"/>
        </g>
        <g id="g5772" transform="translate(75.272 67.921)">
          <path id="path5774" d="M-37.761-34.213l-4.325-4.414a1.282,1.282,0,0,0-.992-.442A18.757,18.757,0,0,1-43.125-27.8h5.105a.261.261,0,0,0,.259-.259v-6.151Z" transform="translate(43.125 39.073)" fill="#68ca44" fill-rule="evenodd"/>
        </g>
        <g id="g5776" transform="translate(60.294 68.731)">
          <path id="path5778" d="M-104.976-73.628l-5.679-5.44-4.513-4.6a1.02,1.02,0,0,0-1.645,0l-3.075,3.134" transform="translate(119.888 84.086)" fill="none" stroke="#000" stroke-linecap="round" stroke-linejoin="round" stroke-miterlimit="10" stroke-width="1"/>
        </g>
        <g id="g5780" transform="translate(69.396 67.919)">
          <path id="path5782" d="M-79.129-40.126v-.838l-4.325-4.414a1.1,1.1,0,0,0-1.772,0l-5.143,5.252" transform="translate(90.369 45.827)" fill="none" stroke="#000" stroke-linecap="round" stroke-linejoin="round" stroke-miterlimit="10" stroke-width="1"/>
        </g>
        <g id="g5784" transform="translate(60.294 58.833)">
          <path id="path5786" d="M-141.379,0H-161.2a.258.258,0,0,0-.259.259V20.1a.261.261,0,0,0,.259.259h19.824a.261.261,0,0,0,.259-.259V.259A.258.258,0,0,0-141.379,0Z" transform="translate(161.462)" fill="none" stroke="#000" stroke-linecap="round" stroke-linejoin="round" stroke-miterlimit="10" stroke-width="1"/>
        </g>
        <g id="g5788" transform="translate(13.852 5.726)">
          <path id="path5790" d="M-402.691-147.486V-167.34a1.1,1.1,0,0,0-1.1-1.1H-458.8a1.1,1.1,0,0,0-1.1,1.1v19.854l30.1,3.515Z" transform="translate(459.894 168.437)" fill="#c8effe" fill-rule="evenodd"/>
        </g>
        <g id="g5792" transform="translate(22.949 18.588)">
          <path id="path5794" d="M0-56.946l7.644,2.762,8.509-2.762a8.083,8.083,0,0,0-8.076-8.089A8.083,8.083,0,0,0,0-56.946" transform="translate(0 65.036)" fill="#fee97d" fill-rule="evenodd"/>
        </g>
        <g id="g5796" transform="translate(13.852 30.743)">
          <path id="path5798" d="M0,0V16.894a1.1,1.1,0,0,0,1.1,1.1H56.108a1.1,1.1,0,0,0,1.1-1.1V0Z" fill="#fec165" fill-rule="evenodd"/>
        </g>
        <g id="g5800" transform="translate(13.852 26.677)">
          <path id="path5802" d="M0,0V16.17H28.564c3.14,0,4.292-4.8-.305-4.8H26.81c-3.822,0-3.733-4.9.338-4.9H57.2V0Z" fill="#00c0fa" fill-rule="evenodd"/>
        </g>
        <g id="g5804" transform="translate(28.473 18.588)">
          <path id="path5806" d="M0-2.915A8.084,8.084,0,0,1,5.524,4.76h5.105A8.076,8.076,0,0,0,0-2.915" transform="translate(0 3.329)" fill="#fec165" fill-rule="evenodd"/>
        </g>
        <g id="g5808" transform="translate(52.147 5.726)">
          <path id="path5810" d="M-125.394,0h-17.812c4.334,5.722,6.459,12.984,6.962,20.951H-124.3V1.1a1.1,1.1,0,0,0-1.1-1.1" transform="translate(143.206)" fill="#99e6fc" fill-rule="evenodd"/>
        </g>
        <g id="g5812" transform="translate(59.016 26.677)">
          <path id="path5814" d="M-84.755,0H-96.7q.049.762.07,1.539.014.544.014,1.087c0,.485-.009.965-.023,1.44-.028.809-.08,1.609-.155,2.4h12.04V0Z" transform="translate(96.794)" fill="#08a9f1" fill-rule="evenodd"/>
        </g>
        <g id="g5816" transform="translate(54.202 33.148)">
          <path id="path5818" d="M-118.642,0h-12.04A39.231,39.231,0,0,1-135.5,15.586h15.758a1.1,1.1,0,0,0,1.1-1.1Z" transform="translate(135.496)" fill="#fdb440" fill-rule="evenodd"/>
        </g>
        <g id="g5820" transform="translate(13.852 33.148)">
          <path id="path5822" d="M-82.537-68.277H-94.261m57.2-9.7H-67.112c-4.071,0-4.161,4.9-.338,4.9H-66c4.6,0,3.446,4.8.305,4.8H-76.792" transform="translate(94.261 77.976)" fill="none" stroke="#000" stroke-linecap="round" stroke-linejoin="round" stroke-miterlimit="10" stroke-width="1"/>
        </g>
        <g id="g5824" transform="translate(13.852 26.677)">
          <path id="path5826" d="M0,0H57.2" fill="none" stroke="#000" stroke-linecap="round" stroke-linejoin="round" stroke-miterlimit="10" stroke-width="1"/>
        </g>
        <g id="g5828" transform="translate(22.949 18.588)">
          <path id="path5830" d="M-56.855,0a8.083,8.083,0,0,1,8.076,8.089H-64.932A8.084,8.084,0,0,1-56.855,0Z" transform="translate(64.932)" fill="none" stroke="#000" stroke-linecap="round" stroke-linejoin="round" stroke-miterlimit="10" stroke-width="1"/>
        </g>
        <g id="g5832" transform="translate(31.025 11.322)">
          <path id="path5834" d="M0-14.411v-2.047" transform="translate(0 16.459)" fill="none" stroke="#000" stroke-linecap="round" stroke-linejoin="round" stroke-miterlimit="10" stroke-width="1"/>
        </g>
        <g id="g5836" transform="translate(22.225 13.67)">
          <path id="path5838" d="M-10.192-10.17l-1.448-1.445" transform="translate(11.64 11.615)" fill="none" stroke="#000" stroke-linecap="round" stroke-linejoin="round" stroke-miterlimit="10" stroke-width="1"/>
        </g>
        <g id="g5840" transform="translate(38.382 13.67)">
          <path id="path5842" d="M0-10.17l1.443-1.445" transform="translate(0 11.615)" fill="none" stroke="#000" stroke-linecap="round" stroke-linejoin="round" stroke-miterlimit="10" stroke-width="1"/>
        </g>
        <g id="g5844" transform="translate(13.852 5.722)">
          <path id="path5846" d="M-227.92,0l23.731,0a1.1,1.1,0,0,1,1.1,1.1v40.81a1.1,1.1,0,0,1-1.1,1.1H-259.2a1.1,1.1,0,0,1-1.1-1.1V1.106A1.1,1.1,0,0,1-259.2,0l25.536,0" transform="translate(260.297)" fill="none" stroke="#000" stroke-linecap="round" stroke-linejoin="round" stroke-miterlimit="10" stroke-width="1"/>
        </g>
        <g id="g5848" transform="translate(1.244 30.018)">
          <path id="path5850" d="M-28.3-28.358l-4.019-4.028" transform="translate(32.315 32.387)" fill="none" stroke="#000" stroke-linecap="round" stroke-linejoin="round" stroke-miterlimit="10" stroke-width="1"/>
        </g>
        <g id="g5852" transform="translate(1.244 25.99)">
          <path id="path5854" d="M-28.3,0l-4.019,4.028" transform="translate(32.315)" fill="none" stroke="#000" stroke-linecap="round" stroke-linejoin="round" stroke-miterlimit="10" stroke-width="1"/>
        </g>
        <g id="g5856" transform="translate(79.644 30.018)">
          <path id="path5858" d="M0-28.358l4.024-4.028" transform="translate(0 32.387)" fill="none" stroke="#000" stroke-linecap="round" stroke-linejoin="round" stroke-miterlimit="10" stroke-width="1"/>
        </g>
        <g id="g5860" transform="translate(79.644 25.99)">
          <path id="path5862" d="M0,0,4.024,4.028" fill="none" stroke="#000" stroke-linecap="round" stroke-linejoin="round" stroke-miterlimit="10" stroke-width="1"/>
        </g>
      </g>
    </g>
  </g>
</svg>
