<svg xmlns="http://www.w3.org/2000/svg" xmlns:xlink="http://www.w3.org/1999/xlink" width="295" height="241" viewBox="0 0 295 241">
  <defs>
    <clipPath id="clip-path">
      <path id="Rectangle_412352" data-name="Rectangle 412352" d="M15,0H280a15,15,0,0,1,15,15V241a0,0,0,0,1,0,0H0a0,0,0,0,1,0,0V15A15,15,0,0,1,15,0Z" transform="translate(1020.051 4515)" fill="#cff1ef" stroke="#707070" stroke-width="1"/>
    </clipPath>
    <linearGradient id="linear-gradient" x1="0.5" y1="5.231" x2="0.5" y2="-0.589" gradientUnits="objectBoundingBox">
      <stop offset="0" stop-color="#26abfa"/>
      <stop offset="1" stop-color="#8f3de1"/>
    </linearGradient>
    <linearGradient id="linear-gradient-2" x1="0.5" y1="3.135" x2="0.5" y2="-2.684" xlink:href="#linear-gradient"/>
    <linearGradient id="linear-gradient-3" x1="0.5" y1="1.04" x2="0.5" y2="-4.779" xlink:href="#linear-gradient"/>
    <linearGradient id="linear-gradient-4" x1="0.5" y1="9.422" x2="0.5" y2="0.82" gradientUnits="objectBoundingBox">
      <stop offset="0" stop-color="#f9b878"/>
      <stop offset="1" stop-color="#fc8d70"/>
    </linearGradient>
    <linearGradient id="linear-gradient-5" x1="0.5" y1="7.326" x2="0.5" y2="-1.275" xlink:href="#linear-gradient-4"/>
    <linearGradient id="linear-gradient-6" x1="0.5" y1="5.231" x2="0.5" y2="-3.371" xlink:href="#linear-gradient-4"/>
    <linearGradient id="linear-gradient-7" x1="0.5" y1="3.135" x2="0.5" y2="-5.466" xlink:href="#linear-gradient-4"/>
    <linearGradient id="linear-gradient-8" x1="0.5" y1="1.04" x2="0.5" y2="-7.562" xlink:href="#linear-gradient-4"/>
    <linearGradient id="linear-gradient-9" x1="0.5" y1="3.101" x2="0.5" y2="-0.078" gradientUnits="objectBoundingBox">
      <stop offset="0" stop-color="#02db96"/>
      <stop offset="1" stop-color="#01a5ac"/>
    </linearGradient>
    <linearGradient id="linear-gradient-10" x1="0.5" y1="1.005" x2="0.5" y2="-2.173" xlink:href="#linear-gradient-9"/>
    <linearGradient id="linear-gradient-11" x1="0.5" y1="0.914" x2="0.5" y2="0.038" xlink:href="#linear-gradient"/>
    <linearGradient id="linear-gradient-12" x1="0.5" y1="0.919" x2="0.5" y2="-0.015" xlink:href="#linear-gradient-4"/>
    <linearGradient id="linear-gradient-13" x1="0.5" y1="0.929" x2="0.5" y2="0.047" xlink:href="#linear-gradient-9"/>
    <linearGradient id="linear-gradient-14" x1="0.5" y1="0.067" x2="0.5" y2="0.949" gradientUnits="objectBoundingBox">
      <stop offset="0" stop-color="#17ddff"/>
      <stop offset="1" stop-color="#006c94" stop-opacity="0"/>
    </linearGradient>
    <linearGradient id="linear-gradient-15" x1="0" y1="0.5" x2="1" y2="0.5" xlink:href="#linear-gradient"/>
    <linearGradient id="linear-gradient-16" y1="0.5" x2="1" y2="0.5" gradientUnits="objectBoundingBox">
      <stop offset="0" stop-color="#fe7e73"/>
      <stop offset="1" stop-color="#e4499c"/>
    </linearGradient>
    <linearGradient id="linear-gradient-19" x1="0" y1="0.5" x2="1" y2="0.5" xlink:href="#linear-gradient-9"/>
    <linearGradient id="linear-gradient-20" x1="0" y1="0.5" x2="1" y2="0.5" xlink:href="#linear-gradient-4"/>
    <linearGradient id="linear-gradient-22" x1="0.219" y1="0.847" x2="0.801" y2="0.128" xlink:href="#linear-gradient-9"/>
    <linearGradient id="linear-gradient-24" x1="0" y1="0.5" x2="1" y2="0.5" xlink:href="#linear-gradient-16"/>
    <linearGradient id="linear-gradient-28" x1="0" y1="0.5" x2="1" y2="0.5" xlink:href="#linear-gradient-4"/>
    <linearGradient id="linear-gradient-29" x1="0" y1="0.5" x2="1" y2="0.5" xlink:href="#linear-gradient"/>
    <linearGradient id="linear-gradient-32" x1="0" y1="0.5" x2="1" y2="0.5" xlink:href="#linear-gradient"/>
  </defs>
  <g id="Mask_Group_1099575" data-name="Mask Group 1099575" transform="translate(-1020.051 -4515)" clip-path="url(#clip-path)">
    <g id="_5633132_2963856" data-name="5633132_2963856" transform="translate(1047.051 4515)">
      <g id="BACKGROUND" transform="translate(-27.051)">
        <rect id="Rectangle_412354" data-name="Rectangle 412354" width="315" height="263" transform="translate(0.051)" fill="#e9d8f5"/>
      </g>
      <g id="OBJECTS">
        <g id="Group_1202281" data-name="Group 1202281">
          <g id="Group_1202278" data-name="Group 1202278">
            <circle id="Ellipse_12531" data-name="Ellipse 12531" cx="2.254" cy="2.254" r="2.254" transform="translate(189.53 163.271)" fill="#001c28"/>
            <circle id="Ellipse_12532" data-name="Ellipse 12532" cx="2.254" cy="2.254" r="2.254" transform="translate(189.53 172.718)" fill="#001c28"/>
            <circle id="Ellipse_12533" data-name="Ellipse 12533" cx="2.254" cy="2.254" r="2.254" transform="translate(189.53 182.166)" fill="#001c28"/>
            <circle id="Ellipse_12534" data-name="Ellipse 12534" cx="2.254" cy="2.254" r="2.254" transform="translate(189.53 191.613)" fill="url(#linear-gradient)"/>
            <circle id="Ellipse_12535" data-name="Ellipse 12535" cx="2.254" cy="2.254" r="2.254" transform="translate(189.53 201.061)" fill="url(#linear-gradient-2)"/>
            <circle id="Ellipse_12536" data-name="Ellipse 12536" cx="2.254" cy="2.254" r="2.254" transform="translate(189.53 210.508)" fill="url(#linear-gradient-3)"/>
          </g>
          <g id="Group_1202279" data-name="Group 1202279">
            <path id="Path_1286344" data-name="Path 1286344" d="M207.641,165.525a2.254,2.254,0,1,1-2.254-2.254A2.254,2.254,0,0,1,207.641,165.525Z" fill="#001c28"/>
            <path id="Path_1286345" data-name="Path 1286345" d="M207.641,174.972a2.254,2.254,0,1,1-2.254-2.254A2.254,2.254,0,0,1,207.641,174.972Z" fill="url(#linear-gradient-4)"/>
            <path id="Path_1286346" data-name="Path 1286346" d="M207.641,184.42a2.254,2.254,0,1,1-2.254-2.254A2.254,2.254,0,0,1,207.641,184.42Z" fill="url(#linear-gradient-5)"/>
            <path id="Path_1286347" data-name="Path 1286347" d="M207.641,193.867a2.254,2.254,0,1,1-2.254-2.254A2.254,2.254,0,0,1,207.641,193.867Z" fill="url(#linear-gradient-6)"/>
            <path id="Path_1286348" data-name="Path 1286348" d="M207.641,203.315a2.254,2.254,0,1,1-2.254-2.254A2.254,2.254,0,0,1,207.641,203.315Z" fill="url(#linear-gradient-7)"/>
            <path id="Path_1286349" data-name="Path 1286349" d="M207.641,212.762a2.254,2.254,0,1,1-2.254-2.254A2.254,2.254,0,0,1,207.641,212.762Z" fill="url(#linear-gradient-8)"/>
          </g>
          <g id="Group_1202280" data-name="Group 1202280">
            <path id="Path_1286350" data-name="Path 1286350" d="M222.479,165.525a2.254,2.254,0,1,1-2.254-2.254A2.254,2.254,0,0,1,222.479,165.525Z" fill="#001c28"/>
            <path id="Path_1286351" data-name="Path 1286351" d="M222.479,174.972a2.254,2.254,0,1,1-2.254-2.254A2.254,2.254,0,0,1,222.479,174.972Z" fill="#001c28"/>
            <path id="Path_1286352" data-name="Path 1286352" d="M222.479,184.42a2.254,2.254,0,1,1-2.254-2.254A2.254,2.254,0,0,1,222.479,184.42Z" fill="#001c28"/>
            <path id="Path_1286353" data-name="Path 1286353" d="M222.479,193.867a2.254,2.254,0,1,1-2.254-2.254A2.254,2.254,0,0,1,222.479,193.867Z" fill="#001c28"/>
            <path id="Path_1286354" data-name="Path 1286354" d="M222.479,203.315a2.254,2.254,0,1,1-2.254-2.254A2.254,2.254,0,0,1,222.479,203.315Z" fill="url(#linear-gradient-9)"/>
            <path id="Path_1286355" data-name="Path 1286355" d="M222.479,212.762a2.254,2.254,0,1,1-2.254-2.254A2.254,2.254,0,0,1,222.479,212.762Z" fill="url(#linear-gradient-10)"/>
          </g>
        </g>
        <g id="Group_1202286" data-name="Group 1202286">
          <g id="Group_1202282" data-name="Group 1202282">
            <path id="Path_1286356" data-name="Path 1286356" d="M148.481,165.843v47.89a3,3,0,1,0,5.993,0v-47.89a3,3,0,0,0-5.993,0Z" fill="#001c28"/>
            <path id="Path_1286357" data-name="Path 1286357" d="M148.481,183.752v29.981a3,3,0,1,0,5.993,0V183.752a3,3,0,1,0-5.993,0Z" fill="url(#linear-gradient-11)"/>
          </g>
          <g id="Group_1202283" data-name="Group 1202283">
            <path id="Path_1286358" data-name="Path 1286358" d="M158.577,165.843v47.89a3,3,0,0,0,5.993,0v-47.89a3,3,0,1,0-5.993,0Z" fill="#001c28"/>
            <path id="Path_1286359" data-name="Path 1286359" d="M158.577,196.549v17.185a3,3,0,0,0,5.993,0V196.549a3,3,0,1,0-5.993,0Z" fill="url(#linear-gradient-12)"/>
          </g>
          <g id="Group_1202285" data-name="Group 1202285">
            <g id="Group_1202284" data-name="Group 1202284">
              <path id="Path_1286360" data-name="Path 1286360" d="M168.9,165.843v47.89a3,3,0,0,0,5.993,0v-47.89a3,3,0,0,0-5.993,0Z" fill="#001c28"/>
            </g>
            <path id="Path_1286361" data-name="Path 1286361" d="M168.9,174.456v39.277a3,3,0,0,0,5.993,0V174.456a3,3,0,0,0-5.993,0Z" fill="url(#linear-gradient-13)"/>
          </g>
        </g>
        <g id="Group_1202291" data-name="Group 1202291">
          <g id="Group_1202287" data-name="Group 1202287">
            <path id="Path_1286362" data-name="Path 1286362" d="M17.353,51.153c2.823.116,7.425-5.422,11.23-5.39,2.112.018,7.759,4.334,12.959,4.146,6.309-.227,8.7-3.473,12.534-7.973,6.177-7.256,8.248-10.791,11.918-10.592s9.581,8.741,11.458,10.374a6.557,6.557,0,0,0,3.572,1.855c3.491.3,6.3-4.193,9.692-3.306,3.456.9,3.86,6.534,7.328,7.391,1.9.471,3.936-.791,5.827-.27a8.742,8.742,0,0,1,2.893,1.918,12.533,12.533,0,0,0,12.081,1.846v6.732H17.353Z" fill="url(#linear-gradient-14)"/>
          </g>
          <g id="Group_1202289" data-name="Group 1202289">
            <g id="Group_1202288" data-name="Group 1202288">
              <path id="Path_1286363" data-name="Path 1286363" d="M17.353,52.243c3.883-.165,6.394-4.16,10-5.182,1.773-.5,3.266.511,4.833,1.246A29.358,29.358,0,0,0,38.519,50.7c9.732,2.041,15.1-6.541,20.5-13,1.7-2.037,4.432-6.151,7.611-5.088,3.261,1.091,5.931,5.185,8.064,7.691,1.959,2.3,4.416,4.922,7.759,4.26,1.893-.375,3.386-1.659,5.046-2.544,2.8-1.5,4.34-.118,5.8,2.282.876,1.444,1.76,3.071,3.285,3.935,2.589,1.466,5.572-.828,7.981.7,2.253,1.426,3.909,3.037,6.606,3.7a13.906,13.906,0,0,0,7.966-.43c1.316-.46.75-2.566-.579-2.1a11.841,11.841,0,0,1-8.243-.012c-2.375-.914-4.009-3.306-6.509-3.812-2.21-.447-4.766,1.241-6.679-.334-1.46-1.2-2.094-3.288-3.28-4.737-2.451-2.994-5.546-2.239-8.486-.449-2.559,1.559-4.59,2.471-7.135.188a29.614,29.614,0,0,1-2.643-2.963c-3.615-4.258-8.63-10.684-14.358-5.858-6.334,5.336-10.235,16.45-19.68,16.693-2.922.075-5.673-1.181-8.26-2.395-1.442-.676-3.059-1.691-4.7-1.752-1.871-.068-3.716,1.029-5.229,2-1.714,1.1-3.869,3.3-6,3.393-1.4.059-1.4,2.239,0,2.18Z" fill="#17ffff"/>
            </g>
          </g>
          <g id="Group_1202290" data-name="Group 1202290">
            <text id="_01" data-name="01" transform="translate(15.339 65.839)" fill="#fff" font-size="5" font-family="Poppins-Bold, Poppins" font-weight="700"><tspan x="0" y="0">01</tspan></text>
            <text id="_02" data-name="02" transform="translate(40.257 65.839)" fill="#fff" font-size="5" font-family="Poppins-Bold, Poppins" font-weight="700"><tspan x="0" y="0">02</tspan></text>
            <text id="_03" data-name="03" transform="translate(65.174 65.839)" fill="#fff" font-size="5" font-family="Poppins-Bold, Poppins" font-weight="700"><tspan x="0" y="0">03</tspan></text>
            <text id="_04" data-name="04" transform="translate(90.092 65.839)" fill="#fff" font-size="5" font-family="Poppins-Bold, Poppins" font-weight="700"><tspan x="0" y="0">04</tspan></text>
            <text id="_05" data-name="05" transform="translate(115.01 65.839)" fill="#fff" font-size="5" font-family="Poppins-Bold, Poppins" font-weight="700"><tspan x="0" y="0">05</tspan></text>
          </g>
          <path id="Path_1286364" data-name="Path 1286364" d="M70.846,18.486H62.192a.974.974,0,0,0-.974.974v4.884a.973.973,0,0,0,.974.974h2.4l1.789,3.1,1.789-3.1h2.674a.973.973,0,0,0,.974-.974V19.46A.974.974,0,0,0,70.846,18.486Z" fill="#17ffff"/>
          <path id="Path_1286365" data-name="Path 1286365" d="M33.36,32.722H24.707a.974.974,0,0,0-.974.974V38.58a.973.973,0,0,0,.974.974h2.4l1.789,3.1,1.789-3.1H33.36a.973.973,0,0,0,.974-.974V33.7A.974.974,0,0,0,33.36,32.722Z" fill="#17ffff"/>
          <path id="Path_1286366" data-name="Path 1286366" d="M94.71,27.7H86.056a.974.974,0,0,0-.974.974v4.884a.973.973,0,0,0,.974.974h2.4l1.789,3.1,1.789-3.1H94.71a.974.974,0,0,0,.974-.974V28.678A.974.974,0,0,0,94.71,27.7Z" fill="#17ffff"/>
        </g>
        <g id="Group_1202300" data-name="Group 1202300">
          <g id="Group_1202293" data-name="Group 1202293">
            <path id="Path_1286367" data-name="Path 1286367" d="M155.133,60.757h-.183l.044-4.967h.138c.383,0,.768-.014,1.147-.042l.362,4.953C156.143,60.738,155.636,60.757,155.133,60.757Zm-1.872-.085c-.563-.052-1.129-.127-1.682-.224l.862-4.891c.416.073.844.13,1.27.169Zm5.064-.164-.771-4.906c.421-.066.844-.151,1.256-.252l1.179,4.824C159.443,60.308,158.883,60.42,158.325,60.508Zm-8.4-.423c-.545-.143-1.09-.312-1.622-.5l1.662-4.68c.4.143.813.27,1.224.378Zm11.7-.382-1.578-4.709c.4-.134.8-.288,1.2-.457L163.2,59.1C162.685,59.32,162.152,59.524,161.62,59.7Zm-14.893-.754c-.514-.233-1.023-.49-1.515-.764l2.419-4.338c.372.207.757.4,1.146.577Zm18.005-.588-2.341-4.38c.375-.2.746-.419,1.1-.651l2.7,4.171C165.718,57.807,165.227,58.1,164.732,58.361ZM143.767,57.3c-.468-.314-.928-.652-1.367-1l3.1-3.878c.333.266.681.522,1.034.76Zm23.81-.775-3.033-3.932c.338-.261.67-.539.984-.826l3.347,3.669C168.459,55.812,168.023,56.178,167.576,56.522Zm-26.455-1.341c-.412-.39-.81-.8-1.183-1.217l3.7-3.309c.281.314.582.623.894.918Zm28.957-.941-3.641-3.378c.292-.315.573-.643.835-.977l3.905,3.068C170.832,53.393,170.462,53.826,170.079,54.24Zm-31.217-1.58c-.34-.449-.665-.918-.966-1.392l4.194-2.659c.228.36.474.714.731,1.054Zm33.308-1.082-4.146-2.734c.234-.355.457-.725.661-1.1l4.359,2.38C172.773,50.619,172.48,51.108,172.17,51.578ZM137.049,49.8c-.26-.5-.5-1.015-.723-1.535l4.579-1.925c.165.392.348.782.545,1.158ZM173.8,48.6l-4.543-2.006c.172-.39.33-.792.469-1.2l4.694,1.623C174.231,47.554,174.023,48.085,173.8,48.6Zm-38.061-1.926c-.174-.536-.328-1.086-.457-1.635l4.835-1.134c.1.414.213.829.344,1.233ZM174.9,45.394l-4.814-1.22c.105-.415.193-.837.263-1.255l4.9.815C175.158,44.288,175.041,44.846,174.9,45.394Zm-39.943-2.02c-.081-.552-.142-1.119-.178-1.684l4.955-.322c.028.43.074.86.136,1.278Zm40.5-1.322-4.95-.406c.035-.423.053-.855.053-1.285h4.967C175.528,40.927,175.5,41.5,175.46,42.053Zm-35.752-1.968L134.742,40c.01-.564.043-1.133.1-1.69l4.942.494C139.74,39.224,139.715,39.656,139.707,40.085Zm30.837-.456c-.019-.425-.057-.855-.112-1.276l4.925-.641c.073.558.123,1.127.148,1.69Zm-30.581-2.1-4.884-.9c.1-.552.229-1.109.378-1.654l4.791,1.308C140.137,36.7,140.04,37.116,139.964,37.532Zm30.251-.443c-.09-.416-.2-.833-.322-1.24l4.75-1.449c.164.539.308,1.091.427,1.642Zm-29.576-2.025-4.665-1.705c.194-.532.413-1.06.65-1.57l4.5,2.092C140.949,34.264,140.785,34.663,140.638,35.064Zm28.829-.422c-.158-.394-.334-.787-.525-1.17l4.443-2.22c.252.5.486,1.025.694,1.546Zm-27.752-1.9L137.4,30.281c.279-.489.581-.972.9-1.437l4.1,2.807C142.156,32,141.926,32.369,141.716,32.739Zm26.606-.389c-.221-.363-.461-.722-.712-1.067l4.014-2.925c.332.456.648.93.94,1.41Zm-25.157-1.727-3.85-3.137c.356-.436.734-.863,1.125-1.269l3.576,3.445C143.721,29.97,143.435,30.293,143.166,30.623Zm23.646-.345c-.28-.323-.575-.638-.879-.936l3.476-3.547c.4.393.791.809,1.16,1.235Zm-21.866-1.5-3.281-3.728c.424-.373.867-.732,1.318-1.067l2.96,3.988C145.6,28.222,145.266,28.493,144.946,28.775Zm20.033-.294c-.326-.271-.67-.533-1.02-.777l2.845-4.071c.463.323.916.669,1.348,1.028ZM147,27.246l-2.622-4.218c.479-.3.976-.579,1.477-.835l2.26,4.423C147.742,26.808,147.367,27.02,147,27.246Zm15.872-.232c-.369-.214-.751-.415-1.135-.6l2.13-4.486c.508.241,1.013.507,1.5.791Zm-13.591-.934L147.4,21.486c.522-.214,1.059-.409,1.6-.578l1.492,4.737C150.083,25.772,149.678,25.919,149.285,26.08Zm11.275-.165c-.4-.149-.807-.284-1.216-.4l1.351-4.779c.543.153,1.085.332,1.613.53Zm-8.836-.6-1.091-4.845c.549-.124,1.111-.226,1.669-.3l.682,4.919C152.564,25.14,152.14,25.217,151.725,25.31Zm6.373-.093c-.418-.081-.844-.146-1.268-.192l.539-4.937c.56.061,1.124.147,1.676.254Zm-3.835-.261L153.988,20q.562-.031,1.131-.031c.211,0,.373,0,.559.007l-.128,4.965c-.142,0-.29,0-.428-.006Q154.688,24.934,154.263,24.957Z" fill="url(#linear-gradient-15)"/>
            <g id="Group_1202292" data-name="Group 1202292">
              <path id="Path_1286368" data-name="Path 1286368" d="M155.147,53.894a13.762,13.762,0,0,1-2.664-.264l.664-3.33a10.314,10.314,0,0,0,2,.2Zm2.665-.257-.656-3.332a10.226,10.226,0,0,0,1.926-.581l1.3,3.138A13.575,13.575,0,0,1,157.812,53.637Zm-7.9-.789a13.65,13.65,0,0,1-2.361-1.27l1.894-2.818a10.276,10.276,0,0,0,1.772.953ZM162.744,51.6l-1.888-2.823a10.369,10.369,0,0,0,1.558-1.278l2.4,2.4A13.814,13.814,0,0,1,162.744,51.6ZM145.49,49.875a13.729,13.729,0,0,1-1.7-2.074l2.826-1.882a10.339,10.339,0,0,0,1.275,1.559Zm21.026-2.043-2.821-1.89a10.21,10.21,0,0,0,.95-1.774l3.136,1.3A13.636,13.636,0,0,1,166.516,47.833Zm-23.981-2.4a13.615,13.615,0,0,1-.771-2.568l3.333-.652a10.22,10.22,0,0,0,.579,1.927ZM168.56,42.9l-3.331-.66a10.343,10.343,0,0,0,.2-2h3.4A13.722,13.722,0,0,1,168.56,42.9Zm-23.655-2.693-3.4-.009a13.755,13.755,0,0,1,.268-2.665l3.329.669A10.372,10.372,0,0,0,144.905,40.211Zm20.335-1.923a10.2,10.2,0,0,0-.573-1.928l3.144-1.284a13.627,13.627,0,0,1,.764,2.57Zm-19.545-2-3.133-1.31a13.631,13.631,0,0,1,1.273-2.359l2.815,1.9A10.278,10.278,0,0,0,145.695,36.284Zm18.031-1.7a10.3,10.3,0,0,0-1.271-1.563l2.412-2.39a13.71,13.71,0,0,1,1.69,2.078Zm-15.79-1.622-2.393-2.409a13.74,13.74,0,0,1,2.076-1.693l1.879,2.828A10.325,10.325,0,0,0,147.935,32.96Zm3.339-2.217L149.984,27.6a13.6,13.6,0,0,1,2.57-.768l.645,3.334A10.2,10.2,0,0,0,151.274,30.742Zm5.937-.56a10.344,10.344,0,0,0-2-.2l.014-3.4a13.753,13.753,0,0,1,2.664.271Z" fill="url(#linear-gradient-16)"/>
              <text id="_15" data-name="15" transform="translate(150.316 43.828)" fill="#fff" font-size="9" font-family="Poppins-Bold, Poppins" font-weight="700"><tspan x="0" y="0">15</tspan></text>
            </g>
          </g>
          <g id="Group_1202295" data-name="Group 1202295">
            <path id="Path_1286369" data-name="Path 1286369" d="M205.263,60.757h-.183l.045-4.967h.138c.383,0,.768-.014,1.147-.042l.362,4.953C206.273,60.738,205.765,60.757,205.263,60.757Zm-1.873-.085c-.563-.052-1.129-.127-1.682-.224l.862-4.891c.416.073.844.13,1.27.169Zm5.065-.164-.771-4.906c.421-.066.844-.151,1.256-.252l1.179,4.824C209.573,60.308,209.013,60.42,208.455,60.508Zm-8.4-.423c-.545-.143-1.09-.312-1.622-.5l1.662-4.68c.4.143.813.27,1.224.378Zm11.7-.382-1.578-4.709c.4-.134.8-.288,1.2-.457l1.966,4.56C212.815,59.32,212.282,59.524,211.749,59.7Zm-14.893-.754c-.514-.233-1.023-.49-1.515-.764l2.419-4.338c.372.207.757.4,1.146.577Zm18.005-.588-2.341-4.38c.375-.2.746-.419,1.1-.651l2.7,4.171C215.847,57.807,215.356,58.1,214.861,58.361ZM193.9,57.3c-.468-.314-.928-.652-1.367-1l3.1-3.878c.333.266.681.522,1.034.76Zm23.81-.775-3.033-3.932c.338-.261.67-.539.984-.826L219,55.434C218.588,55.812,218.152,56.178,217.706,56.522Zm-26.455-1.341c-.412-.39-.81-.8-1.183-1.217l3.7-3.309c.281.314.582.623.894.918Zm28.957-.941-3.641-3.378c.292-.315.573-.643.835-.977l3.905,3.068C220.961,53.393,220.592,53.826,220.208,54.24Zm-31.217-1.58c-.34-.449-.665-.918-.966-1.392l4.194-2.659c.228.36.474.714.731,1.054ZM222.3,51.578l-4.146-2.734c.234-.355.457-.725.661-1.1l4.359,2.38C222.9,50.619,222.609,51.108,222.3,51.578ZM187.178,49.8c-.26-.5-.5-1.015-.723-1.535l4.579-1.925c.165.392.348.782.545,1.158Zm36.746-1.2-4.543-2.006c.172-.39.33-.792.469-1.2l4.694,1.623C224.361,47.554,224.152,48.085,223.925,48.6Zm-38.06-1.926c-.174-.536-.328-1.086-.457-1.635l4.835-1.134c.1.414.213.829.344,1.233Zm39.167-1.281-4.814-1.22c.105-.415.194-.837.263-1.255l4.9.815C225.288,44.288,225.17,44.846,225.031,45.394Zm-39.942-2.02c-.081-.552-.142-1.119-.178-1.684l4.955-.322c.028.43.074.86.136,1.278Zm40.5-1.322-4.95-.406c.035-.423.053-.855.053-1.285h4.967C225.658,40.927,225.634,41.5,225.589,42.053Zm-35.752-1.968L184.872,40c.01-.564.043-1.133.1-1.69l4.942.494C189.869,39.224,189.844,39.656,189.837,40.085Zm30.837-.456c-.019-.425-.057-.855-.111-1.276l4.925-.641c.073.558.122,1.127.148,1.69Zm-30.581-2.1-4.884-.9c.1-.552.229-1.109.378-1.654l4.791,1.308C190.266,36.7,190.17,37.116,190.093,37.532Zm30.251-.443c-.09-.416-.2-.833-.322-1.24l4.75-1.449c.164.539.308,1.091.427,1.642Zm-29.576-2.025L186.1,33.358c.194-.532.413-1.06.65-1.57l4.5,2.092C191.079,34.264,190.914,34.663,190.767,35.064Zm28.829-.422c-.158-.394-.334-.787-.525-1.17l4.443-2.22c.252.5.486,1.025.694,1.546Zm-27.752-1.9-4.314-2.459c.279-.489.581-.972.9-1.437l4.1,2.807C192.285,32,192.056,32.369,191.845,32.739Zm26.606-.389c-.221-.363-.461-.722-.712-1.067l4.014-2.925c.332.456.648.93.94,1.41ZM193.3,30.623l-3.85-3.137c.356-.436.734-.863,1.125-1.269l3.576,3.445C193.85,29.97,193.564,30.293,193.3,30.623Zm23.646-.345c-.279-.323-.575-.638-.879-.936l3.476-3.547c.4.393.791.809,1.16,1.235Zm-21.866-1.5-3.281-3.728c.424-.373.867-.732,1.318-1.067l2.96,3.988C195.731,28.222,195.4,28.493,195.075,28.775Zm20.033-.294c-.326-.271-.67-.533-1.02-.777l2.845-4.071c.463.323.916.669,1.348,1.028Zm-17.975-1.236-2.622-4.218c.479-.3.976-.579,1.477-.835l2.26,4.423C197.871,26.808,197.5,27.02,197.134,27.246Zm15.872-.232c-.369-.214-.751-.415-1.135-.6L214,21.93c.508.241,1.013.507,1.5.791Zm-13.591-.934-1.886-4.594c.522-.214,1.059-.409,1.6-.578l1.492,4.737C200.213,25.772,199.807,25.919,199.414,26.08Zm11.275-.165c-.4-.149-.807-.284-1.216-.4l1.351-4.779c.543.153,1.085.332,1.613.53Zm-8.836-.6-1.091-4.845c.549-.124,1.111-.226,1.669-.3l.682,4.919C202.693,25.14,202.269,25.217,201.854,25.31Zm6.373-.093c-.418-.081-.844-.146-1.268-.192l.539-4.937c.56.061,1.124.147,1.676.254Zm-3.835-.261L204.118,20q.562-.031,1.132-.031c.211,0,.373,0,.559.007l-.128,4.965c-.142,0-.29,0-.428-.006C204.962,24.933,204.676,24.942,204.393,24.957Z" fill="url(#linear-gradient-16)"/>
            <g id="Group_1202294" data-name="Group 1202294">
              <path id="Path_1286370" data-name="Path 1286370" d="M205.158,53.894a13.766,13.766,0,0,1-2.664-.264l.664-3.33a10.318,10.318,0,0,0,2,.2Zm2.665-.257-.656-3.332a10.227,10.227,0,0,0,1.926-.581l1.3,3.138A13.575,13.575,0,0,1,207.824,53.637Zm-7.9-.789a13.65,13.65,0,0,1-2.361-1.27l1.894-2.818a10.262,10.262,0,0,0,1.773.953ZM212.756,51.6l-1.888-2.823a10.368,10.368,0,0,0,1.558-1.278l2.4,2.4A13.79,13.79,0,0,1,212.756,51.6ZM195.5,49.875a13.729,13.729,0,0,1-1.7-2.074l2.826-1.882a10.339,10.339,0,0,0,1.275,1.559Zm21.026-2.043-2.821-1.89a10.21,10.21,0,0,0,.951-1.774l3.136,1.3A13.637,13.637,0,0,1,216.527,47.833Zm-23.981-2.4a13.651,13.651,0,0,1-.771-2.568l3.333-.652a10.22,10.22,0,0,0,.579,1.927ZM218.572,42.9l-3.331-.66a10.343,10.343,0,0,0,.2-2h3.4A13.72,13.72,0,0,1,218.572,42.9Zm-23.654-2.693-3.4-.009a13.757,13.757,0,0,1,.268-2.665l3.329.669A10.334,10.334,0,0,0,194.917,40.211Zm20.334-1.923a10.2,10.2,0,0,0-.573-1.928l3.144-1.284a13.627,13.627,0,0,1,.764,2.57Zm-1.514-3.707a10.3,10.3,0,0,0-1.271-1.563l2.412-2.39a13.74,13.74,0,0,1,1.69,2.078Zm-2.823-2.849a10.241,10.241,0,0,0-1.77-.958l1.315-3.131a13.681,13.681,0,0,1,2.357,1.276Zm-9.629-.99L200,27.6a13.6,13.6,0,0,1,2.57-.768l.645,3.334A10.2,10.2,0,0,0,201.286,30.742Zm5.937-.56a10.344,10.344,0,0,0-2-.2l.014-3.4a13.753,13.753,0,0,1,2.664.271Z" fill="url(#linear-gradient-15)"/>
              <text id="_45" data-name="45" transform="translate(199.015 43.828)" fill="#fff" font-size="9" font-family="Poppins-Bold, Poppins" font-weight="700"><tspan x="0" y="0">45</tspan></text>
            </g>
          </g>
          <g id="Group_1202297" data-name="Group 1202297">
            <path id="Path_1286371" data-name="Path 1286371" d="M154.591,107.055h-.183l.044-4.967h.138c.383,0,.768-.014,1.147-.042L156.1,107C155.6,107.036,155.094,107.055,154.591,107.055Zm-1.873-.085c-.563-.052-1.129-.127-1.682-.224l.862-4.891c.416.073.844.13,1.27.169Zm5.065-.163-.771-4.906c.421-.066.844-.151,1.256-.252l1.179,4.824C158.9,106.606,158.341,106.718,157.783,106.806Zm-8.4-.424c-.545-.143-1.09-.312-1.622-.5l1.662-4.68c.4.143.813.27,1.224.378Zm11.7-.381-1.578-4.709c.4-.134.8-.288,1.2-.457l1.966,4.56C162.143,105.618,161.61,105.822,161.077,106Zm-14.893-.755c-.513-.233-1.023-.49-1.515-.764l2.419-4.337c.372.207.757.4,1.146.577Zm18.005-.587-2.341-4.38c.375-.2.746-.419,1.1-.651l2.7,4.171C165.176,104.105,164.684,104.394,164.189,104.659ZM143.224,103.6c-.468-.314-.928-.652-1.367-1l3.1-3.878c.333.266.681.522,1.034.76Zm23.81-.775L164,98.888c.338-.261.67-.539.984-.826l3.347,3.669C167.917,102.11,167.48,102.476,167.034,102.82Zm-26.455-1.341c-.412-.39-.81-.8-1.183-1.217l3.7-3.309c.281.314.582.623.893.918Zm28.957-.941L165.9,97.16c.292-.315.573-.643.835-.977l3.905,3.068C170.29,99.691,169.92,100.124,169.536,100.538Zm-31.217-1.58c-.34-.449-.665-.918-.966-1.393l4.194-2.659c.228.36.474.714.731,1.054Zm33.308-1.082-4.146-2.734c.234-.355.457-.725.661-1.1l4.359,2.38C172.231,96.917,171.937,97.406,171.627,97.875ZM136.507,96.1c-.26-.5-.5-1.015-.723-1.535l4.579-1.925c.165.393.348.782.545,1.158Zm36.746-1.2-4.543-2.006c.172-.39.33-.792.469-1.2l4.694,1.623C173.689,93.852,173.48,94.383,173.253,94.9Zm-38.06-1.925c-.174-.536-.328-1.086-.457-1.635l4.835-1.134c.1.414.213.829.344,1.233Zm39.167-1.281-4.814-1.22c.105-.415.193-.837.263-1.255l4.9.815C174.616,90.586,174.5,91.144,174.36,91.692Zm-39.942-2.02c-.081-.552-.142-1.119-.178-1.684l4.955-.322c.028.43.074.86.136,1.278Zm40.5-1.322-4.95-.406c.035-.423.053-.856.053-1.285h4.967C174.986,87.225,174.963,87.793,174.917,88.351Zm-35.752-1.968L134.2,86.3c.01-.564.043-1.133.1-1.69l4.942.494C139.2,85.522,139.173,85.953,139.165,86.382ZM170,85.926c-.019-.425-.057-.855-.112-1.276l4.925-.641c.073.558.123,1.127.148,1.69Zm-30.581-2.1-4.884-.9c.1-.552.229-1.109.378-1.654l4.791,1.308C139.594,82.994,139.5,83.414,139.421,83.83Zm30.25-.443c-.09-.416-.2-.833-.322-1.24L174.1,80.7c.164.539.308,1.091.427,1.642ZM140.1,81.362l-4.665-1.705c.195-.532.413-1.06.65-1.57l4.5,2.092C140.407,80.562,140.242,80.96,140.1,81.362Zm28.829-.422c-.158-.394-.334-.787-.525-1.17l4.443-2.22c.252.5.486,1.025.694,1.546Zm-27.752-1.9-4.314-2.459c.279-.489.581-.972.9-1.437l4.1,2.807C141.614,78.3,141.384,78.667,141.173,79.037Zm26.606-.389c-.221-.363-.461-.722-.712-1.067l4.014-2.925c.332.456.648.93.94,1.409Zm-25.157-1.727-3.85-3.137c.356-.436.734-.863,1.125-1.269l3.576,3.445C143.179,76.268,142.892,76.591,142.623,76.921Zm23.646-.345c-.279-.323-.575-.638-.879-.936l3.476-3.547c.4.393.791.809,1.16,1.235Zm-21.866-1.5-3.281-3.728c.424-.373.867-.732,1.318-1.067l2.96,3.988C145.059,74.519,144.724,74.79,144.4,75.073Zm20.033-.293c-.326-.271-.67-.533-1.02-.777l2.845-4.071c.463.323.916.67,1.348,1.028Zm-17.974-1.237-2.622-4.217c.479-.3.977-.579,1.477-.835l2.26,4.423C147.2,73.106,146.824,73.318,146.462,73.543Zm15.872-.231c-.369-.214-.751-.415-1.135-.6l2.13-4.486c.508.241,1.013.508,1.5.791Zm-13.591-.934-1.886-4.594c.522-.214,1.059-.409,1.6-.578l1.492,4.737C149.541,72.07,149.136,72.217,148.742,72.378Zm11.276-.165c-.4-.149-.807-.284-1.216-.4l1.351-4.779c.543.153,1.085.332,1.613.53Zm-8.836-.6-1.091-4.845c.549-.124,1.111-.226,1.669-.3l.682,4.919C152.021,71.438,151.6,71.515,151.183,71.608Zm6.373-.093c-.418-.081-.844-.146-1.268-.192l.539-4.937c.56.061,1.124.147,1.676.254Zm-3.835-.26-.275-4.959q.562-.031,1.131-.031c.211,0,.373,0,.559.007l-.128,4.965c-.142,0-.29,0-.428-.006C154.29,71.231,154,71.24,153.721,71.255Z" fill="url(#linear-gradient-19)"/>
            <g id="Group_1202296" data-name="Group 1202296">
              <path id="Path_1286372" data-name="Path 1286372" d="M154.584,100.192a13.726,13.726,0,0,1-2.665-.264l.664-3.33a10.317,10.317,0,0,0,2,.2Zm-5.23-1.045a13.65,13.65,0,0,1-2.361-1.27l1.894-2.818a10.276,10.276,0,0,0,1.772.953ZM162.181,97.9l-1.888-2.823a10.369,10.369,0,0,0,1.558-1.278l2.4,2.4A13.813,13.813,0,0,1,162.181,97.9Zm-17.254-1.725a13.729,13.729,0,0,1-1.7-2.074l2.826-1.882a10.338,10.338,0,0,0,1.275,1.559Zm21.026-2.043-2.821-1.89a10.261,10.261,0,0,0,.951-1.774l3.136,1.3A13.649,13.649,0,0,1,165.953,94.13Zm-23.982-2.4a13.652,13.652,0,0,1-.771-2.568l3.333-.652a10.219,10.219,0,0,0,.579,1.927ZM168,89.2l-3.331-.66a10.343,10.343,0,0,0,.2-2h3.4A13.75,13.75,0,0,1,168,89.2Zm-23.655-2.693-3.4-.009a13.72,13.72,0,0,1,.268-2.665l3.329.67A10.38,10.38,0,0,0,144.343,86.509Zm.79-3.927L142,81.272a13.664,13.664,0,0,1,1.273-2.359l2.815,1.9A10.261,10.261,0,0,0,145.132,82.582Zm18.031-1.7a10.3,10.3,0,0,0-1.271-1.563l2.412-2.39A13.711,13.711,0,0,1,165.994,79Zm-15.79-1.622-2.393-2.409a13.692,13.692,0,0,1,2.075-1.693l1.879,2.828A10.3,10.3,0,0,0,147.372,79.258ZM160.34,78.03a10.241,10.241,0,0,0-1.77-.958l1.315-3.131a13.625,13.625,0,0,1,2.357,1.276Zm-9.629-.99L149.422,73.9a13.6,13.6,0,0,1,2.57-.768l.645,3.334A10.191,10.191,0,0,0,150.711,77.04Zm5.937-.56a10.344,10.344,0,0,0-2-.2l.014-3.4a13.753,13.753,0,0,1,2.664.271Z" fill="url(#linear-gradient-20)"/>
              <text id="_60" data-name="60" transform="translate(149.017 90.126)" fill="#fff" font-size="9" font-family="Poppins-Bold, Poppins" font-weight="700"><tspan x="0" y="0">60</tspan></text>
            </g>
          </g>
          <g id="Group_1202299" data-name="Group 1202299">
            <path id="Path_1286373" data-name="Path 1286373" d="M206.764,107.055h-.183l.045-4.967h.138c.383,0,.768-.014,1.147-.042l.362,4.953C207.775,107.036,207.267,107.055,206.764,107.055Zm-1.873-.085c-.563-.052-1.129-.127-1.682-.224l.862-4.891c.416.073.844.13,1.27.169Zm5.064-.163-.771-4.906c.421-.066.844-.151,1.256-.252l1.179,4.824C211.074,106.606,210.514,106.718,209.956,106.806Zm-8.4-.424c-.545-.143-1.09-.312-1.622-.5l1.662-4.68c.4.143.813.27,1.224.378Zm11.7-.381-1.578-4.709c.4-.134.8-.288,1.2-.457l1.966,4.56C214.316,105.618,213.783,105.822,213.251,106Zm-14.893-.755c-.514-.233-1.023-.49-1.515-.764l2.419-4.337c.372.207.757.4,1.146.577Zm18.006-.587-2.341-4.38c.375-.2.746-.419,1.1-.651l2.7,4.171C217.349,104.105,216.858,104.394,216.363,104.659ZM195.4,103.6c-.468-.314-.928-.652-1.367-1l3.1-3.878c.333.266.681.522,1.034.76Zm23.81-.775-3.033-3.932c.338-.261.669-.539.984-.826l3.347,3.669C220.09,102.11,219.654,102.476,219.207,102.82Zm-26.455-1.341c-.412-.39-.81-.8-1.183-1.217l3.7-3.309c.281.314.581.623.893.918Zm28.957-.941-3.641-3.378c.292-.315.573-.643.835-.977l3.905,3.068C222.463,99.691,222.093,100.124,221.709,100.538Zm-31.217-1.58c-.34-.449-.665-.918-.966-1.393l4.194-2.659c.228.36.474.714.731,1.054ZM223.8,97.875l-4.146-2.734c.234-.355.457-.725.661-1.1l4.359,2.38C224.4,96.917,224.111,97.406,223.8,97.875ZM188.68,96.1c-.26-.5-.5-1.015-.723-1.535l4.579-1.925c.165.393.348.782.545,1.158Zm36.747-1.2-4.543-2.006c.172-.39.33-.792.469-1.2l4.694,1.623C225.862,93.852,225.654,94.383,225.427,94.9Zm-38.061-1.925c-.174-.536-.328-1.086-.457-1.635l4.835-1.134c.1.414.213.829.344,1.233Zm39.167-1.281-4.814-1.22c.105-.415.193-.837.263-1.255l4.9.815C226.789,90.586,226.672,91.144,226.533,91.692Zm-39.943-2.02c-.081-.552-.142-1.119-.178-1.684l4.955-.322c.028.43.074.86.136,1.278Zm40.5-1.322-4.95-.406c.035-.423.053-.856.053-1.285h4.967C227.159,87.225,227.136,87.793,227.09,88.351Zm-35.752-1.968-4.966-.087c.01-.564.043-1.133.1-1.69l4.942.494C191.371,85.522,191.346,85.953,191.338,86.382Zm30.837-.456c-.019-.425-.057-.855-.111-1.276l4.925-.641c.073.558.123,1.127.148,1.69Zm-30.581-2.1-4.884-.9c.1-.552.229-1.109.378-1.654l4.791,1.308C191.768,82.994,191.671,83.414,191.595,83.83Zm30.251-.443c-.09-.416-.2-.833-.322-1.24l4.75-1.448c.164.539.308,1.091.427,1.642Zm-29.576-2.025L187.6,79.656c.195-.532.413-1.06.65-1.57l4.5,2.092C192.58,80.562,192.415,80.96,192.269,81.362Zm28.829-.422c-.158-.394-.334-.787-.525-1.17l4.443-2.22c.252.5.486,1.025.694,1.546Zm-27.752-1.9-4.314-2.459c.279-.489.581-.972.9-1.437l4.1,2.807C193.787,78.3,193.558,78.667,193.347,79.037Zm26.607-.389c-.221-.363-.461-.722-.712-1.067l4.014-2.925c.332.456.648.93.94,1.409ZM194.8,76.921l-3.85-3.137c.356-.436.734-.863,1.125-1.269l3.576,3.445C195.352,76.268,195.066,76.591,194.8,76.921Zm23.646-.345c-.28-.323-.575-.638-.879-.936l3.477-3.547c.4.393.791.809,1.16,1.235Zm-21.866-1.5-3.281-3.728c.424-.373.867-.732,1.318-1.067l2.96,3.988C197.233,74.519,196.9,74.79,196.576,75.073Zm20.033-.293c-.326-.271-.669-.533-1.02-.777l2.845-4.071c.463.323.916.67,1.348,1.028Zm-17.974-1.237-2.622-4.217c.479-.3.977-.579,1.477-.835l2.26,4.423C199.373,73.106,199,73.318,198.636,73.543Zm15.872-.231c-.369-.214-.751-.415-1.135-.6l2.13-4.486c.508.241,1.013.508,1.5.791Zm-13.591-.934-1.886-4.594c.522-.214,1.059-.409,1.6-.578l1.492,4.737C201.714,72.07,201.309,72.217,200.916,72.378Zm11.275-.165c-.4-.149-.807-.284-1.216-.4l1.351-4.779c.543.153,1.085.332,1.613.53Zm-8.836-.6-1.091-4.845c.549-.124,1.111-.226,1.669-.3l.682,4.919C204.195,71.438,203.771,71.515,203.356,71.608Zm6.374-.093c-.418-.081-.844-.146-1.268-.192L209,66.386c.56.061,1.124.147,1.676.254Zm-3.835-.26L205.62,66.3q.562-.031,1.132-.031c.211,0,.373,0,.559.007l-.128,4.965c-.142,0-.29,0-.428-.006Q206.319,71.231,205.894,71.255Z" fill="url(#linear-gradient-20)"/>
            <g id="Group_1202298" data-name="Group 1202298">
              <path id="Path_1286374" data-name="Path 1286374" d="M206.757,100.192a13.725,13.725,0,0,1-2.664-.264l.664-3.33a10.312,10.312,0,0,0,2,.2Zm-5.23-1.045a13.65,13.65,0,0,1-2.361-1.27l1.894-2.818a10.276,10.276,0,0,0,1.772.953ZM214.355,97.9l-1.888-2.823a10.37,10.37,0,0,0,1.558-1.278l2.4,2.4A13.789,13.789,0,0,1,214.355,97.9ZM197.1,96.173a13.729,13.729,0,0,1-1.7-2.074l2.826-1.882a10.338,10.338,0,0,0,1.275,1.559Zm21.026-2.043-2.821-1.89a10.26,10.26,0,0,0,.951-1.774l3.136,1.3A13.616,13.616,0,0,1,218.126,94.13Zm-23.981-2.4a13.616,13.616,0,0,1-.771-2.568l3.333-.652a10.219,10.219,0,0,0,.579,1.927ZM220.17,89.2l-3.331-.66a10.343,10.343,0,0,0,.2-2h3.4A13.713,13.713,0,0,1,220.17,89.2Zm-23.654-2.693-3.4-.009a13.757,13.757,0,0,1,.268-2.665l3.329.67A10.38,10.38,0,0,0,196.516,86.509Zm.79-3.927-3.133-1.31a13.631,13.631,0,0,1,1.273-2.359l2.815,1.9A10.261,10.261,0,0,0,197.306,82.582Zm18.03-1.7a10.3,10.3,0,0,0-1.271-1.563l2.412-2.39A13.739,13.739,0,0,1,218.167,79Zm-15.79-1.622-2.393-2.409a13.739,13.739,0,0,1,2.076-1.693l1.879,2.828A10.326,10.326,0,0,0,199.546,79.258Zm12.968-1.228a10.24,10.24,0,0,0-1.77-.958l1.315-3.131a13.625,13.625,0,0,1,2.357,1.276Zm-9.629-.99L201.6,73.9a13.6,13.6,0,0,1,2.57-.768l.645,3.334A10.2,10.2,0,0,0,202.884,77.04Zm5.937-.56a10.344,10.344,0,0,0-2-.2l.014-3.4a13.753,13.753,0,0,1,2.664.271Z" fill="url(#linear-gradient-22)"/>
              <text id="_60-2" data-name="60" transform="translate(201.191 90.126)" fill="#fff" font-size="9" font-family="Poppins-Bold, Poppins" font-weight="700"><tspan x="0" y="0">60</tspan></text>
            </g>
          </g>
        </g>
        <g id="Group_1202302" data-name="Group 1202302">
          <g id="Group_1202301" data-name="Group 1202301">
            <circle id="Ellipse_12537" data-name="Ellipse 12537" cx="12.035" cy="12.035" r="12.035" transform="translate(130.886 118.285)" fill="none" stroke="#001c28" stroke-miterlimit="10" stroke-width="4.596"/>
            <path id="Path_1286375" data-name="Path 1286375" d="M142.921,144.652a14.334,14.334,0,0,1-8.015-26.216,2.3,2.3,0,1,1,2.573,3.808,9.737,9.737,0,1,0,14.98,10.04,2.3,2.3,0,0,1,4.5.922A14.375,14.375,0,0,1,142.921,144.652Z" fill="url(#linear-gradient-15)"/>
            <circle id="Ellipse_12538" data-name="Ellipse 12538" cx="12.035" cy="12.035" r="12.035" transform="translate(165.705 118.285)" fill="none" stroke="#001c28" stroke-miterlimit="10" stroke-width="4.596"/>
            <path id="Path_1286376" data-name="Path 1286376" d="M173.548,143.9a2.293,2.293,0,0,1-.8-.145,14.337,14.337,0,0,1-3.024-25.322,2.3,2.3,0,1,1,2.573,3.808,9.741,9.741,0,0,0,2.051,17.205,2.3,2.3,0,0,1-.8,4.453Z" fill="url(#linear-gradient-24)"/>
            <circle id="Ellipse_12539" data-name="Ellipse 12539" cx="12.035" cy="12.035" r="12.035" transform="translate(200.525 118.285)" fill="none" stroke="#001c28" stroke-miterlimit="10" stroke-width="4.596"/>
            <path id="Path_1286377" data-name="Path 1286377" d="M212.56,144.652a14.265,14.265,0,0,1-12.824-7.925,2.3,2.3,0,1,1,4.11-2.057,9.692,9.692,0,0,0,8.713,5.386c.285,0,.575-.013.859-.038a2.3,2.3,0,0,1,.4,4.579C213.4,144.633,212.977,144.652,212.56,144.652Z" fill="url(#linear-gradient-19)"/>
          </g>
          <text id="_15-2" data-name="15" transform="translate(139.218 133.742)" fill="#fff" font-size="9" font-family="Poppins-Bold, Poppins" font-weight="700"><tspan x="0" y="0">15</tspan></text>
          <text id="_35" data-name="35" transform="translate(172.264 133.742)" fill="#fff" font-size="9" font-family="Poppins-Bold, Poppins" font-weight="700"><tspan x="0" y="0">35</tspan></text>
          <text id="_10" data-name="10" transform="translate(208.736 133.742)" fill="#fff" font-size="9" font-family="Poppins-Bold, Poppins" font-weight="700"><tspan x="0" y="0">10</tspan></text>
        </g>
        <g id="Group_1202307" data-name="Group 1202307">
          <g id="Group_1202306" data-name="Group 1202306">
            <g id="Group_1202303" data-name="Group 1202303">
              <path id="Path_1286378" data-name="Path 1286378" d="M79.815,102.48H17.735a3.894,3.894,0,1,0,0,7.788h62.08a3.894,3.894,0,0,0,0-7.788Z" fill="url(#linear-gradient-20)"/>
              <path id="Path_1286379" data-name="Path 1286379" d="M107.809,102.48H91.459a3.894,3.894,0,0,0,0,7.788h16.35a3.894,3.894,0,0,0,0-7.788Z" fill="url(#linear-gradient-15)"/>
            </g>
            <g id="Group_1202304" data-name="Group 1202304">
              <path id="Path_1286380" data-name="Path 1286380" d="M55.557,115.765H17.735a3.894,3.894,0,1,0,0,7.788H55.557a3.894,3.894,0,1,0,0-7.788Z" fill="url(#linear-gradient-28)"/>
              <path id="Path_1286381" data-name="Path 1286381" d="M107.809,115.765H66.628a3.894,3.894,0,0,0,0,7.788h41.181a3.894,3.894,0,0,0,0-7.788Z" fill="url(#linear-gradient-29)"/>
            </g>
            <g id="Group_1202305" data-name="Group 1202305">
              <path id="Path_1286382" data-name="Path 1286382" d="M38,129.051H17.735a3.894,3.894,0,0,0,0,7.788H38a3.894,3.894,0,0,0,0-7.788Z" fill="url(#linear-gradient-20)"/>
              <path id="Path_1286383" data-name="Path 1286383" d="M107.809,129.051h-58.1a3.894,3.894,0,0,0,0,7.788h58.1a3.894,3.894,0,0,0,0-7.788Z" fill="url(#linear-gradient-15)"/>
            </g>
          </g>
          <text id="Lorem_ipsum" data-name="Lorem ipsum" transform="translate(13.841 98.421)" fill="#fff" font-size="5" font-family="SegoeUI, Segoe UI"><tspan x="0" y="0">Lorem ipsum</tspan></text>
        </g>
        <g id="Group_1202309" data-name="Group 1202309">
          <g id="Group_1202308" data-name="Group 1202308">
            <path id="Path_1286384" data-name="Path 1286384" d="M112.815,161.889H19.669a5.828,5.828,0,1,0,0,11.657h93.145a5.828,5.828,0,1,0,0-11.657Z" fill="#001c28"/>
            <path id="Path_1286385" data-name="Path 1286385" d="M91.687,164.08H21.564a3.638,3.638,0,0,0,0,7.276H91.687a3.638,3.638,0,0,0,0-7.276Z" fill="url(#linear-gradient-32)"/>
            <path id="Path_1286386" data-name="Path 1286386" d="M112.815,177.575H19.669a5.828,5.828,0,1,0,0,11.657h93.145a5.828,5.828,0,1,0,0-11.657Z" fill="#001c28"/>
            <path id="Path_1286387" data-name="Path 1286387" d="M79.2,179.765H21.564a3.638,3.638,0,0,0,0,7.276H79.2a3.638,3.638,0,0,0,0-7.276Z" fill="url(#linear-gradient-20)"/>
            <path id="Path_1286388" data-name="Path 1286388" d="M112.815,193.26H19.669a5.828,5.828,0,1,0,0,11.657h93.145a5.828,5.828,0,1,0,0-11.657Z" fill="#001c28"/>
            <path id="Path_1286389" data-name="Path 1286389" d="M43.47,195.451H21.564a3.638,3.638,0,0,0,0,7.276H43.47a3.638,3.638,0,0,0,0-7.276Z" fill="url(#linear-gradient-19)"/>
          </g>
          <text id="Lorem_ipsum-2" data-name="Lorem ipsum" transform="translate(13.841 158.772)" fill="#fff" font-size="5" font-family="SegoeUI, Segoe UI"><tspan x="0" y="0">Lorem ipsum</tspan></text>
          <text id="_75" data-name="75" transform="translate(121.071 169.333)" fill="#fff" font-size="5" font-family="SegoeUI, Segoe UI"><tspan x="0" y="0">75</tspan></text>
          <text id="_50" data-name="50" transform="translate(121.071 185.505)" fill="#fff" font-size="5" font-family="SegoeUI, Segoe UI"><tspan x="0" y="0">50</tspan></text>
          <text id="_25" data-name="25" transform="translate(121.071 201.677)" fill="#fff" font-size="5" font-family="SegoeUI, Segoe UI"><tspan x="0" y="0">25</tspan></text>
        </g>
      </g>
    </g>
  </g>
</svg>
