<svg xmlns="http://www.w3.org/2000/svg" xmlns:xlink="http://www.w3.org/1999/xlink" width="295" height="241" viewBox="0 0 295 241">
  <defs>
    <clipPath id="clip-path">
      <path id="Rectangle_412353" data-name="Rectangle 412353" d="M15,0H280a15,15,0,0,1,15,15V241a0,0,0,0,1,0,0H0a0,0,0,0,1,0,0V15A15,15,0,0,1,15,0Z" transform="translate(-3019 -7089)" fill="#fff" stroke="#707070" stroke-width="1"/>
    </clipPath>
  </defs>
  <g id="Mask_Group_1099576" data-name="Mask Group 1099576" transform="translate(3019 7089)" clip-path="url(#clip-path)">
    <g id="Isolation_Mode" transform="translate(-3025.941 -7089)">
      <rect id="Rectangle_412355" data-name="Rectangle 412355" width="302" height="241" transform="translate(-0.059)" fill="#e9d8f5"/>
      <g id="Group_1202331" data-name="Group 1202331" transform="translate(71.047 30.111)">
        <path id="Path_1286390" data-name="Path 1286390" d="M114.58,90.225v53.891h38.3l20.556,39.53v-39.53H190.8V90.225Z" transform="translate(-40.577 -30.111)" fill="#009444"/>
        <g id="Group_1202310" data-name="Group 1202310" transform="translate(68.19 54.301)">
          <path id="Path_1286391" data-name="Path 1286391" d="M167.619,177.833,147.063,138.3h-38.3V84.412h76.218V138.3H167.619v39.53Z" transform="translate(-108.767 -84.412)" fill="#d7df23"/>
          <path id="Path_1286392" data-name="Path 1286392" d="M172.407,113.071H121.386a2.757,2.757,0,0,1,0-5.513h51.021a2.757,2.757,0,0,1,0,5.513Z" transform="translate(-108.767 -84.412)" fill="#39b54a"/>
          <path id="Path_1286393" data-name="Path 1286393" d="M172.407,100.495H121.386a2.757,2.757,0,0,1,0-5.513h51.021a2.757,2.757,0,0,1,0,5.513Z" transform="translate(-108.767 -84.412)" fill="#39b54a"/>
          <path id="Path_1286394" data-name="Path 1286394" d="M172.407,126.61H121.386a2.756,2.756,0,0,1,0-5.513h51.021a2.756,2.756,0,1,1,0,5.513Z" transform="translate(-108.767 -84.412)" fill="#39b54a"/>
        </g>
        <path id="Path_1286395" data-name="Path 1286395" d="M72.25,72.576v53.891H89.616V166l20.556-39.53h38.3V72.576Z" transform="translate(-40.577 -30.111)" fill="#009444"/>
        <g id="Group_1202311" data-name="Group 1202311" transform="translate(25.86 36.652)">
          <path id="Path_1286396" data-name="Path 1286396" d="M83.8,120.654H66.437V66.763h76.218v53.891h-38.3L83.8,160.184v-39.53Z" transform="translate(-66.437 -66.763)" fill="#e6e7e8"/>
          <path id="Path_1286397" data-name="Path 1286397" d="M79.016,95.422h51.021a2.757,2.757,0,1,0,0-5.513H79.016a2.757,2.757,0,0,0,0,5.513Z" transform="translate(-66.437 -66.763)" fill="#39b54a"/>
          <path id="Path_1286398" data-name="Path 1286398" d="M79.016,82.846h51.021a2.757,2.757,0,1,0,0-5.513H79.016a2.757,2.757,0,0,0,0,5.513Z" transform="translate(-66.437 -66.763)" fill="#39b54a"/>
          <path id="Path_1286399" data-name="Path 1286399" d="M79.016,108.962h51.021a2.757,2.757,0,1,0,0-5.513H79.016a2.757,2.757,0,0,0,0,5.513Z" transform="translate(-66.437 -66.763)" fill="#39b54a"/>
        </g>
        <g id="Group_1202312" data-name="Group 1202312" transform="translate(12.97 22.792)">
          <path id="Path_1286400" data-name="Path 1286400" d="M77.39,64.825a12.068,12.068,0,0,1-.163,1.976,11.934,11.934,0,1,1,.163-1.976Z" transform="translate(-53.547 -52.903)" fill="#8ebce5"/>
          <path id="Path_1286401" data-name="Path 1286401" d="M77.227,66.8a11.938,11.938,0,0,1-6.755,8.848L64.749,70.7V66.252l1.347-2,2.191-2.261-.423-3.208Z" transform="translate(-53.547 -52.903)" fill="#bcbec0"/>
          <path id="Path_1286402" data-name="Path 1286402" d="M63.126,60.371a2.2,2.2,0,0,1-.391-1.117.939.939,0,0,1,.19-.6,1.447,1.447,0,0,1,.5-.4,2.556,2.556,0,0,1,.708-.224,4.722,4.722,0,0,1,.812-.069,5.947,5.947,0,0,1,1.56.207,4.479,4.479,0,0,1,1.358.61,3.256,3.256,0,0,1,.961,1.007,2.655,2.655,0,0,1,.368,1.41,2.467,2.467,0,0,1-.167.938,2.94,2.94,0,0,1-.443.748,4.194,4.194,0,0,1-.645.633q-.369.294-.771.581l-.668.466a4.811,4.811,0,0,0-.576.466,2.177,2.177,0,0,0-.409.524,1.3,1.3,0,0,0-.155.639,1.767,1.767,0,0,0,.155.7,5.035,5.035,0,0,0,.489.846,2.632,2.632,0,0,1-.524.288,1.346,1.346,0,0,1-.5.1,1.405,1.405,0,0,1-.587-.115,1.245,1.245,0,0,1-.426-.311,1.361,1.361,0,0,1-.265-.461,1.7,1.7,0,0,1-.092-.564,2.041,2.041,0,0,1,.207-.915,3.417,3.417,0,0,1,.535-.783A5.328,5.328,0,0,1,65.1,64.3q.42-.316.846-.616.391-.276.766-.547a5.761,5.761,0,0,0,.662-.553,2.661,2.661,0,0,0,.46-.587,1.32,1.32,0,0,0,.173-.662,1.27,1.27,0,0,0-.207-.731,1.586,1.586,0,0,0-.547-.5,2.621,2.621,0,0,0-.783-.276,4.84,4.84,0,0,0-.927-.086A4.386,4.386,0,0,0,63.126,60.371Z" transform="translate(-53.547 -52.903)"/>
          <path id="Path_1286403" data-name="Path 1286403" d="M66.1,69.484a1.154,1.154,0,0,1-.345.921,1.487,1.487,0,0,1-1,.3,1.021,1.021,0,0,1-.817-.334,1.31,1.31,0,0,1-.288-.886A1.144,1.144,0,0,1,64,68.539a1.537,1.537,0,0,1,.99-.288,1.032,1.032,0,0,1,.829.322A1.355,1.355,0,0,1,66.1,69.484Z" transform="translate(-53.547 -52.903)"/>
        </g>
        <g id="Group_1202313" data-name="Group 1202313" transform="translate(136.003 74.041)">
          <path id="Path_1286404" data-name="Path 1286404" d="M200.423,116.073a12.057,12.057,0,0,1-.121,1.706,11.932,11.932,0,1,1,.121-1.706Z" transform="translate(-176.58 -104.152)" fill="#8ebce5"/>
          <path id="Path_1286405" data-name="Path 1286405" d="M200.3,117.779a11.937,11.937,0,0,1-6.7,9.076l-5.579-5.359.791-8.739.74-3.582Z" transform="translate(-176.58 -104.152)" fill="#bcbec0"/>
          <path id="Path_1286406" data-name="Path 1286406" d="M189.365,120.277a1.154,1.154,0,0,1-.345.921,1.487,1.487,0,0,1-1,.3,1.02,1.02,0,0,1-.817-.334,1.31,1.31,0,0,1-.288-.886,1.144,1.144,0,0,1,.357-.944,1.537,1.537,0,0,1,.99-.288,1.032,1.032,0,0,1,.829.322A1.353,1.353,0,0,1,189.365,120.277Z" transform="translate(-176.58 -104.152)"/>
          <path id="Path_1286407" data-name="Path 1286407" d="M189.251,109.176a.328.328,0,0,1,.2.058.2.2,0,0,1,.081.173v.058l-.886,9.359a.281.281,0,0,1-.052.167.239.239,0,0,1-.144.052l-.53.034a.215.215,0,0,1-.167-.029.28.28,0,0,1-.052-.167l-.449-9.244V109.6q0-.23.276-.288.184-.035.443-.058t.518-.04l.466-.029Q189.158,109.176,189.251,109.176Z" transform="translate(-176.58 -104.152)"/>
        </g>
        <g id="Group_1202315" data-name="Group 1202315" transform="translate(0 65.497)">
          <g id="Group_1202314" data-name="Group 1202314">
            <path id="Path_1286408" data-name="Path 1286408" d="M61.294,112.741a3.639,3.639,0,0,1-3.639,3.639H44.216a3.639,3.639,0,0,1-3.639-3.639V99.247a3.639,3.639,0,0,1,3.639-3.639h13.44a3.639,3.639,0,0,1,3.639,3.639v13.494Z" transform="translate(-40.577 -95.608)" fill="#f7941d" fill-rule="evenodd"/>
            <path id="Path_1286409" data-name="Path 1286409" d="M61.276,112.656l.019-6.251-3.408-3.55-9.021,9.021,4.823,4.5,3.948-.085A3.638,3.638,0,0,0,61.276,112.656Z" transform="translate(-40.577 -95.608)" fill="#a7a9ac" fill-rule="evenodd"/>
            <path id="Path_1286410" data-name="Path 1286410" d="M57.887,102.855l-1.921-1.921L48.85,108.05l-2.469-2.468L44.46,107.5l3.9,3.9.016-.016.485.485Z" transform="translate(-40.577 -95.608)" fill="#fff"/>
          </g>
        </g>
        <g id="Group_1202317" data-name="Group 1202317" transform="translate(94.834 138.547)">
          <g id="Group_1202316" data-name="Group 1202316">
            <path id="Path_1286411" data-name="Path 1286411" d="M153.714,183.794a3.215,3.215,0,0,1-3.215,3.215H138.626a3.214,3.214,0,0,1-3.215-3.215V171.872a3.215,3.215,0,0,1,3.215-3.215H150.5a3.215,3.215,0,0,1,3.215,3.215Z" transform="translate(-135.411 -168.657)" fill="#f7941d" fill-rule="evenodd"/>
            <path id="Path_1286412" data-name="Path 1286412" d="M153.7,183.719l.017-6.936-3.851-4-5.943,6.726-.564,1.05-3.99,2.721,3.844,3.729,7.273-.075A3.215,3.215,0,0,0,153.7,183.719Z" transform="translate(-135.411 -168.657)" fill="#a7a9ac" fill-rule="evenodd"/>
            <path id="Path_1286413" data-name="Path 1286413" d="M151.113,174.153l-2.621-2.62-3.878,3.878-3.878-3.878-2.621,2.62,3.878,3.878-3.878,3.878,2.621,2.621,3.878-3.878,3.878,3.878,2.621-2.621-3.878-3.878Z" transform="translate(-135.411 -168.657)" fill="#fff"/>
          </g>
        </g>
        <g id="Group_1202319" data-name="Group 1202319" transform="translate(80.06 4.844)">
          <path id="Path_1286414" data-name="Path 1286414" d="M178.873,65.725a28.6,28.6,0,0,0-53.925-10.372l-4.31-2.211a33.453,33.453,0,0,1,57.6-3.271A33.678,33.678,0,0,1,183.7,65.266Z" transform="translate(-120.637 -34.955)" fill="#006838"/>
          <g id="Group_1202318" data-name="Group 1202318" transform="translate(48.44 25.166)">
            <path id="Path_1286415" data-name="Path 1286415" d="M169.077,60.121,178,82.566l14.98-18.946Z" transform="translate(-169.077 -60.121)" fill="#006838"/>
          </g>
        </g>
        <g id="Group_1202321" data-name="Group 1202321" transform="translate(13.283 109.901)">
          <path id="Path_1286416" data-name="Path 1286416" d="M96.441,187.623q-1.238,0-2.48-.092A33.514,33.514,0,0,1,68.6,172.707a33.678,33.678,0,0,1-5.456-15.395l4.822-.459a28.6,28.6,0,0,0,53.925,10.372l4.31,2.211a33.489,33.489,0,0,1-29.759,18.188Z" transform="translate(-53.86 -140.012)" fill="#006838"/>
          <g id="Group_1202320" data-name="Group 1202320">
            <path id="Path_1286417" data-name="Path 1286417" d="M77.759,162.457l-8.92-22.445L53.86,158.957Z" transform="translate(-53.86 -140.012)" fill="#006838"/>
          </g>
        </g>
        <g id="Group_1202323" data-name="Group 1202323" transform="translate(75.216)">
          <path id="Path_1286418" data-name="Path 1286418" d="M174.029,60.881A28.6,28.6,0,0,0,120.1,50.509l-4.31-2.211a33.453,33.453,0,0,1,57.6-3.271,33.677,33.677,0,0,1,5.456,15.395Z" transform="translate(-115.793 -30.111)" fill="#8dc63f"/>
          <g id="Group_1202322" data-name="Group 1202322" transform="translate(48.44 25.166)">
            <path id="Path_1286419" data-name="Path 1286419" d="M164.233,55.277l8.92,22.445,14.98-18.946Z" transform="translate(-164.233 -55.277)" fill="#8dc63f"/>
          </g>
        </g>
        <g id="Group_1202325" data-name="Group 1202325" transform="translate(8.438 105.057)">
          <path id="Path_1286420" data-name="Path 1286420" d="M91.6,182.779q-1.238,0-2.48-.092a33.513,33.513,0,0,1-25.364-14.824,33.679,33.679,0,0,1-5.456-15.4l4.822-.459a28.6,28.6,0,0,0,53.925,10.372l4.31,2.211A33.488,33.488,0,0,1,91.6,182.779Z" transform="translate(-49.015 -135.168)" fill="#8dc63f"/>
          <g id="Group_1202324" data-name="Group 1202324">
            <path id="Path_1286421" data-name="Path 1286421" d="M72.915,157.612,64,135.168l-14.98,18.945Z" transform="translate(-49.015 -135.168)" fill="#8dc63f"/>
          </g>
        </g>
        <g id="Group_1202327" data-name="Group 1202327" transform="translate(98.656 12.488)">
          <path id="Path_1286422" data-name="Path 1286422" d="M162.993,54.48q0,.388-.025.769a11.885,11.885,0,1,1,.025-.769Z" transform="translate(-139.233 -42.599)" fill="#fff200"/>
          <g id="Group_1202326" data-name="Group 1202326" transform="translate(4.822 4.161)">
            <path id="Path_1286423" data-name="Path 1286423" d="M162.969,55.249a11.891,11.891,0,0,1-13.975,10.923l-4.677-5.4,5.926-5.9,2.615,1.729,3.416-1.012,1.833-3.256-1.035-4.072Z" transform="translate(-144.055 -46.76)" fill="#bcbec0"/>
            <path id="Path_1286424" data-name="Path 1286424" d="M144.318,60.775a.948.948,0,0,0,1.34.029l4.912-4.7a5.113,5.113,0,1,0-1.34-1.34l-4.882,4.672A.948.948,0,0,0,144.318,60.775Zm5.7-6.543a4.173,4.173,0,1,1,1.1,1.091A4.145,4.145,0,0,1,150.018,54.232Z" transform="translate(-144.055 -46.76)"/>
          </g>
        </g>
        <g id="Group_1202328" data-name="Group 1202328" transform="translate(48.306 11.851)">
          <rect id="Rectangle_412356" data-name="Rectangle 412356" width="8.997" height="1.453" transform="translate(0 3.772)"/>
          <rect id="Rectangle_412357" data-name="Rectangle 412357" width="1.453" height="8.997" transform="translate(3.772)"/>
        </g>
        <g id="Group_1202329" data-name="Group 1202329" transform="translate(142.943 123.031)">
          <rect id="Rectangle_412358" data-name="Rectangle 412358" width="8.997" height="0.484" transform="translate(0 4.257)" fill="#fff"/>
          <rect id="Rectangle_412359" data-name="Rectangle 412359" width="0.484" height="8.997" transform="translate(4.257)" fill="#fff"/>
        </g>
        <g id="Group_1202330" data-name="Group 1202330" transform="translate(63.692 118.532)">
          <rect id="Rectangle_412360" data-name="Rectangle 412360" width="8.997" height="1.938" transform="translate(0 3.53)" fill="#fff"/>
          <rect id="Rectangle_412361" data-name="Rectangle 412361" width="1.938" height="8.997" transform="translate(3.53)" fill="#fff"/>
        </g>
        <path id="Path_1286425" data-name="Path 1286425" d="M192.36,85.134a.368.368,0,0,1-.345-.24l-.124-.341a.088.088,0,0,0-.064-.042h-.018l-1.041-.032h0a.088.088,0,0,0-.071.039l-.163.348a.364.364,0,0,1-.331.211.361.361,0,0,1-.155-.035l-.71-.329a.367.367,0,0,1-.178-.487l.153-.326a.078.078,0,0,0-.016-.069l-.018-.017-.806-.865a.086.086,0,0,0-.062-.025.047.047,0,0,0-.016,0l-.347.127a.362.362,0,0,1-.124.022.368.368,0,0,1-.345-.242l-.268-.735a.366.366,0,0,1,.218-.47l.347-.126a.08.08,0,0,0,.042-.063v-.01l.03-1.029a.089.089,0,0,0-.04-.072l-.342-.16a.366.366,0,0,1-.178-.487l.33-.709a.368.368,0,0,1,.333-.212.363.363,0,0,1,.154.034l.313.146h0a.062.062,0,0,0,.018,0,.074.074,0,0,0,.05-.017l.016-.017.877-.823a.091.091,0,0,0,.024-.079l-.119-.327a.367.367,0,0,1,.219-.47l.736-.269a.367.367,0,0,1,.469.219l.119.327a.085.085,0,0,0,.063.042h.02l1.029.032a.11.11,0,0,0,.074-.04l.148-.32a.372.372,0,0,1,.334-.213.362.362,0,0,1,.155.035l.709.33a.367.367,0,0,1,.178.487l-.137.295a.081.081,0,0,0,.017.073l.014.013.819.872a.085.085,0,0,0,.06.024.048.048,0,0,0,.016,0l.319-.116a.364.364,0,0,1,.125-.022.369.369,0,0,1,.345.24l.268.735a.367.367,0,0,1-.218.47l-.319.117a.085.085,0,0,0-.043.064v.01l-.035,1.061a.091.091,0,0,0,.04.073l.325.151a.365.365,0,0,1,.177.488l-.33.709a.37.37,0,0,1-.334.212h0a.365.365,0,0,1-.152-.033l-.309-.145h0a.062.062,0,0,0-.018,0,.079.079,0,0,0-.054.019l-.014.015-.858.8a.088.088,0,0,0-.024.077l.125.34a.367.367,0,0,1-.219.47l-.736.268A.354.354,0,0,1,192.36,85.134Zm-.532-.986a.443.443,0,0,1,.4.28l.128.343h0l.736-.268-.122-.345a.445.445,0,0,1,.139-.485l.83-.776a.448.448,0,0,1,.491-.1l.31.146.335-.713-.329-.156a.45.45,0,0,1-.246-.44l.032-1.015a.443.443,0,0,1,.279-.421l.321-.117-.266-.74-.324.114a.409.409,0,0,1-.14.024.444.444,0,0,1-.345-.162l-.792-.842a.438.438,0,0,1-.1-.494l.137-.294-.711-.335-.154.322a.453.453,0,0,1-.44.248l-.995-.03a.442.442,0,0,1-.421-.28l-.119-.327-.74.267.117.331a.448.448,0,0,1-.136.485l-.85.8a.432.432,0,0,1-.322.139.415.415,0,0,1-.169-.035l-.315-.147-.335.712.343.165a.447.447,0,0,1,.248.439l-.028.984a.438.438,0,0,1-.28.422l-.347.126.267.739.351-.123a.454.454,0,0,1,.486.137l.781.836a.435.435,0,0,1,.105.492l-.153.327.712.334.167-.349a.448.448,0,0,1,.439-.245l1.006.03Zm-.43-1.618a1.5,1.5,0,0,1-1.407-.985,1.5,1.5,0,0,1,1.407-2.011,1.5,1.5,0,0,1,.514,2.905A1.488,1.488,0,0,1,191.4,82.53Zm0-2.633a1.135,1.135,0,1,0,1.066.746A1.132,1.132,0,0,0,191.4,79.9Z" transform="translate(-40.577 -30.111)" fill="#fff"/>
        <path id="Path_1286426" data-name="Path 1286426" d="M52.022,182.22a.687.687,0,0,1-.643-.448l-.232-.636a.163.163,0,0,0-.118-.078h-.035L49.053,181h0a.164.164,0,0,0-.133.072l-.3.648a.68.68,0,0,1-.907.329l-1.323-.614a.684.684,0,0,1-.331-.907l.285-.607a.145.145,0,0,0-.03-.128l-.034-.031-1.5-1.613a.161.161,0,0,0-.115-.046.092.092,0,0,0-.03,0l-.647.236a.673.673,0,0,1-.232.041.687.687,0,0,1-.643-.452l-.5-1.37a.683.683,0,0,1,.406-.876l.647-.236a.15.15,0,0,0,.078-.118l0-.019.057-1.919a.164.164,0,0,0-.074-.135l-.638-.3a.682.682,0,0,1-.331-.908l.615-1.323a.687.687,0,0,1,.621-.4.675.675,0,0,1,.287.064l.584.272h0a.114.114,0,0,0,.034,0,.138.138,0,0,0,.094-.032l.03-.032,1.635-1.535a.171.171,0,0,0,.045-.147l-.223-.61a.684.684,0,0,1,.408-.875l1.372-.5a.679.679,0,0,1,.232-.041.686.686,0,0,1,.643.449l.223.609a.158.158,0,0,0,.118.078H49.5l1.92.059a.179.179,0,0,0,.137-.075l.275-.6a.693.693,0,0,1,.622-.4.675.675,0,0,1,.289.065l1.321.615a.684.684,0,0,1,.332.907l-.255.549a.153.153,0,0,0,.031.137l.026.025,1.526,1.626a.159.159,0,0,0,.113.044.088.088,0,0,0,.029,0l.6-.217a.676.676,0,0,1,.233-.041.687.687,0,0,1,.643.448l.5,1.371a.684.684,0,0,1-.407.876l-.6.217a.159.159,0,0,0-.081.119l0,.019-.065,1.979a.17.17,0,0,0,.074.136l.607.281a.681.681,0,0,1,.331.909l-.615,1.323a.691.691,0,0,1-.623.395h0a.678.678,0,0,1-.285-.062l-.575-.27a.109.109,0,0,0-.033,0,.148.148,0,0,0-.1.036l-.026.027-1.6,1.492a.162.162,0,0,0-.045.143l.232.634a.685.685,0,0,1-.408.876l-1.372.5A.678.678,0,0,1,52.022,182.22Zm-.993-1.839a.825.825,0,0,1,.754.523l.232.636.007,0h0l1.372-.5a.009.009,0,0,0,0-.009l-.232-.635a.83.83,0,0,1,.259-.9l1.548-1.447a.818.818,0,0,1,.6-.256.764.764,0,0,1,.316.066l.578.271s.008,0,.009-.006l.615-1.324-.613-.291a.839.839,0,0,1-.458-.821l.06-1.893a.826.826,0,0,1,.521-.785l.6-.219-.5-1.379h0l-.009,0-.595.217a.757.757,0,0,1-.262.045.828.828,0,0,1-.644-.3l-1.478-1.57a.818.818,0,0,1-.188-.922l.255-.549h0l0-.009-1.322-.616a.01.01,0,0,0-.012.007l-.275.594a.845.845,0,0,1-.821.463l-1.855-.055a.823.823,0,0,1-.786-.522l-.223-.609-1.38.5.218.618a.835.835,0,0,1-.254.9l-1.584,1.49a.805.805,0,0,1-.6.26.776.776,0,0,1-.316-.066l-.588-.274-.316-.139.307.143-.616,1.323h0l0,.009.635.3a.834.834,0,0,1,.463.818L44.41,175.3a.817.817,0,0,1-.522.788l-.647.236.506,1.386.646-.236a.763.763,0,0,1,.262-.045.834.834,0,0,1,.644.3l1.456,1.56a.81.81,0,0,1,.2.918l-.286.61,1.328.622.312-.651a.839.839,0,0,1,.819-.458l1.876.056Zm-.8-3.018a2.8,2.8,0,0,1-2.624-1.836,2.794,2.794,0,0,1,2.623-3.751,2.794,2.794,0,0,1,0,5.587Zm0-4.911a2.117,2.117,0,1,0,1.988,1.391A2.109,2.109,0,0,0,50.226,172.452Z" transform="translate(-40.577 -30.111)" fill="#fff200"/>
      </g>
    </g>
  </g>
</svg>
