<svg xmlns="http://www.w3.org/2000/svg" xmlns:xlink="http://www.w3.org/1999/xlink" width="98.993" height="88.352" viewBox="0 0 98.993 88.352">
  <defs>
    <clipPath id="clip-path">
      <rect id="Rectangle_412009" data-name="Rectangle 412009" width="85" height="77" transform="translate(1124.536 4406.592)" fill="#fff" stroke="#707070" stroke-width="1"/>
    </clipPath>
  </defs>
  <g id="Group_1200850" data-name="Group 1200850" transform="translate(-1116.137 -4400.592)">
    <g id="Group_1200823" data-name="Group 1200823">
      <g id="Group_1200591" data-name="Group 1200591" transform="translate(1116.137 4400.592)">
        <g id="Group_1200589" data-name="Group 1200589">
          <ellipse id="Ellipse_12397" data-name="Ellipse 12397" cx="24.92" cy="24.92" rx="24.92" ry="24.92" transform="translate(49.154 38.512)" fill="#e6e51d"/>
          <ellipse id="Ellipse_12398" data-name="Ellipse 12398" cx="18.123" cy="18.123" rx="18.123" ry="18.123" fill="#e6e51d"/>
        </g>
      </g>
      <g id="Mask_Group_1099553" data-name="Mask Group 1099553" clip-path="url(#clip-path)">
        <g id="website_5358559" transform="translate(1128.533 4406.592)">
          <path id="Path_1276179" data-name="Path 1276179" d="M68.017,11.55V64.167a3.85,3.85,0,0,1-3.85,3.85H5.133a3.85,3.85,0,0,1-3.85-3.85V11.55l1.283-1.283H66.733Z" fill="#e6f1ff"/>
          <path id="Path_1276180" data-name="Path 1276180" d="M68.017,5.133V11.55H1.283V5.133a3.85,3.85,0,0,1,3.85-3.85H64.167a3.85,3.85,0,0,1,3.85,3.85Z" fill="#499cbc"/>
          <path id="Path_1276181" data-name="Path 1276181" d="M75.094,69.069,69.069,75.1a2.119,2.119,0,0,1-3,0L49.421,58.469l-4.513,12.07a2.225,2.225,0,0,1-4.235-.191L30.858,33.584a2.224,2.224,0,0,1,2.726-2.7l36.764,9.792a2.229,2.229,0,0,1,.191,4.235l-12.07,4.515L75.094,66.069a2.119,2.119,0,0,1,0,3Z" fill="#499cbc"/>
          <g id="Group_1200822" data-name="Group 1200822">
            <path id="Path_1276182" data-name="Path 1276182" d="M69.3,58.449V46.742l1.693-.633a3.512,3.512,0,0,0-.316-6.673L69.3,39.065V5.133A5.133,5.133,0,0,0,64.167,0H5.133A5.133,5.133,0,0,0,0,5.133V64.167A5.133,5.133,0,0,0,5.133,69.3h33.93l.368,1.376a3.507,3.507,0,0,0,6.673.312l.637-1.688H58.451L65.16,76a3.4,3.4,0,0,0,4.816,0l6.032-6.024a3.406,3.406,0,0,0,0-4.818Zm-2.567-2.567-5.948-5.961,5.948-2.22ZM5.133,2.567H64.167a2.567,2.567,0,0,1,2.567,2.567v5.133H2.567V5.133A2.567,2.567,0,0,1,5.133,2.567ZM47.7,66.733l2.221-5.948,5.959,5.948Zm26.487,1.428-6.032,6.032a.853.853,0,0,1-1.186,0L50.328,57.56a1.283,1.283,0,0,0-2.11.458L43.706,70.082a.934.934,0,0,1-.937.622.91.91,0,0,1-.859-.694L32.1,33.26a.941.941,0,0,1,1.155-1.142L47.411,35.89a1.283,1.283,0,1,0,.662-2.48L33.921,29.645a3.507,3.507,0,0,0-4.3,4.273l8.76,32.815H5.133a2.567,2.567,0,0,1-2.567-2.567V12.833H66.733V38.381L52.948,34.709a1.284,1.284,0,1,0-.662,2.481l17.732,4.723a.884.884,0,0,1,.684.848.929.929,0,0,1-.613.946L58.025,48.219a1.283,1.283,0,0,0-.458,2.11l16.62,16.646a.838.838,0,0,1,0,1.187Z" fill="#373737"/>
            <path id="Path_1276183" data-name="Path 1276183" d="M6.417,7.7H7.7a1.283,1.283,0,1,0,0-2.567H6.417a1.283,1.283,0,1,0,0,2.567Z" fill="#373737"/>
            <path id="Path_1276184" data-name="Path 1276184" d="M12.833,7.7h1.283a1.283,1.283,0,0,0,0-2.567H12.833a1.283,1.283,0,1,0,0,2.567Z" fill="#373737"/>
            <path id="Path_1276185" data-name="Path 1276185" d="M19.25,7.7h1.283a1.283,1.283,0,0,0,0-2.567H19.25a1.283,1.283,0,0,0,0,2.567Z" fill="#373737"/>
            <path id="Path_1276186" data-name="Path 1276186" d="M55.183,7.7h7.7a1.283,1.283,0,0,0,0-2.567h-7.7a1.283,1.283,0,0,0,0,2.567Z" fill="#373737"/>
            <path id="Path_1276187" data-name="Path 1276187" d="M24.007,22.193a1.283,1.283,0,1,0-1.815,1.815l3.85,3.85a1.283,1.283,0,1,0,1.815-1.815Z" fill="#373737"/>
            <path id="Path_1276188" data-name="Path 1276188" d="M24.143,41.018,18.882,42.43a1.283,1.283,0,0,0,.331,2.522,1.232,1.232,0,0,0,.332-.044L24.807,43.5a1.283,1.283,0,0,0-.665-2.479Z" fill="#373737"/>
            <path id="Path_1276189" data-name="Path 1276189" d="M24.808,33.5l-5.262-1.412a1.283,1.283,0,1,0-.663,2.478l5.262,1.412a1.249,1.249,0,0,0,.334.044,1.283,1.283,0,0,0,.331-2.523Z" fill="#373737"/>
            <path id="Path_1276190" data-name="Path 1276190" d="M44,17.977a1.283,1.283,0,0,0-1.571.907l-1.412,5.262a1.283,1.283,0,0,0,.907,1.572,1.249,1.249,0,0,0,.334.044,1.283,1.283,0,0,0,1.238-.951l1.412-5.262A1.283,1.283,0,0,0,44,17.977Z" fill="#373737"/>
            <path id="Path_1276191" data-name="Path 1276191" d="M34.572,18.884a1.283,1.283,0,1,0-2.478.663l1.412,5.262a1.283,1.283,0,0,0,1.238.951,1.249,1.249,0,0,0,.334-.044,1.283,1.283,0,0,0,.907-1.572Z" fill="#373737"/>
          </g>
        </g>
      </g>
    </g>
  </g>
</svg>
