<svg xmlns="http://www.w3.org/2000/svg" xmlns:xlink="http://www.w3.org/1999/xlink" width="98.993" height="88.352" viewBox="0 0 98.993 88.352">
  <defs>
    <clipPath id="clip-path">
      <rect id="Rectangle_412362" data-name="Rectangle 412362" width="90" height="79" transform="translate(3142 -7339)" fill="#fff" stroke="#707070" stroke-width="1"/>
    </clipPath>
  </defs>
  <g id="Group_1202332" data-name="Group 1202332" transform="translate(-3135.601 7343.673)">
    <g id="Group_1200596" data-name="Group 1200596" transform="translate(3135.601 -7343.673)">
      <g id="Group_1200589" data-name="Group 1200589">
        <ellipse id="Ellipse_12397" data-name="Ellipse 12397" cx="24.92" cy="24.92" rx="24.92" ry="24.92" transform="translate(49.154 38.512)" fill="#e6e51d"/>
        <ellipse id="Ellipse_12398" data-name="Ellipse 12398" cx="18.123" cy="18.123" rx="18.123" ry="18.123" fill="#e6e51d"/>
      </g>
    </g>
    <g id="Mask_Group_1099577" data-name="Mask Group 1099577" clip-path="url(#clip-path)">
      <g id="test_943353" transform="translate(3147.488 -7339.012)">
        <path id="Path_1286427" data-name="Path 1286427" d="M10.214,71.064H56.473v-57.9L44.866,1.555H1.543V71.064Z" fill="#fff"/>
        <path id="Path_1286428" data-name="Path 1286428" d="M44.864,1.7V13.161H56.322Z" fill="#feda9b"/>
        <path id="Path_1286429" data-name="Path 1286429" d="M63.285,39.56h0a14.2,14.2,0,0,0-14.2,14.2v9.518a14.2,14.2,0,0,0,14.2,14.2h0a14.2,14.2,0,0,0,14.2-14.2V53.756A14.2,14.2,0,0,0,63.285,39.56Z" fill="#72d8ff"/>
        <path id="Path_1286430" data-name="Path 1286430" d="M77.481,56.573V53.755a14.2,14.2,0,0,0-14.2-14.2h0a14.2,14.2,0,0,0-14.2,14.2v2.817h28.39Z" fill="#ade5ff"/>
        <path id="Path_1286431" data-name="Path 1286431" d="M9.932,11.43a1.543,1.543,0,1,0-1.091-.452A1.555,1.555,0,0,0,9.932,11.43Z"/>
        <path id="Path_1286432" data-name="Path 1286432" d="M40.078,11.43a1.543,1.543,0,1,0,0-3.086H17.59a1.543,1.543,0,0,0,0,3.086Z"/>
        <path id="Path_1286433" data-name="Path 1286433" d="M64.893,38.1V34.684a6.261,6.261,0,0,0-6.254-6.254h-1.5a1.543,1.543,0,1,0,0,3.086h1.5a3.171,3.171,0,0,1,3.168,3.168v3.4a15.76,15.76,0,0,0-14.26,15.668v9.518a15.647,15.647,0,0,0,1.392,6.471H3.086V3.1H43.321V13.161A1.543,1.543,0,0,0,44.864,14.7H54.928v9.018a1.543,1.543,0,0,0,3.086,0V13.159a1.544,1.544,0,0,0-.452-1.091L45.955.464A1.543,1.543,0,0,0,44.864.012H1.543A1.543,1.543,0,0,0,0,1.555V71.287A1.543,1.543,0,0,0,1.543,72.83H50.79a15.732,15.732,0,0,0,28.234-9.557V53.756A15.761,15.761,0,0,0,64.893,38.1ZM46.407,5.28l6.34,6.339h-6.34Zm29.53,57.994a12.652,12.652,0,0,1-25.3,0V53.756a12.652,12.652,0,0,1,25.3,0Z"/>
        <path id="Path_1286434" data-name="Path 1286434" d="M64.828,55.03V46.141a1.543,1.543,0,0,0-3.086,0V55.03H54.36a1.543,1.543,0,0,0,0,3.086H72.211a1.543,1.543,0,0,0,0-3.086Z"/>
        <path id="Path_1286435" data-name="Path 1286435" d="M71.076,61.731a1.543,1.543,0,0,0-1.543,1.543,6.255,6.255,0,0,1-6.247,6.247,1.543,1.543,0,0,0,0,3.086,9.344,9.344,0,0,0,9.333-9.333A1.543,1.543,0,0,0,71.076,61.731Z"/>
        <path id="Path_1286436" data-name="Path 1286436" d="M17.487,44.449a1.543,1.543,0,0,0-1.543-1.543H14.407a7.933,7.933,0,0,0,2.206-4.818,3.619,3.619,0,0,0-3.823-3.823,3.827,3.827,0,0,0-3.823,3.823,1.543,1.543,0,0,0,3.086,0,.738.738,0,0,1,.737-.737c.627,0,.737.238.737.737,0,1.527-2.3,3.913-3.931,5.118a1.543,1.543,0,0,0,.914,2.786h5.434A1.543,1.543,0,0,0,17.487,44.449Z"/>
        <path id="Path_1286437" data-name="Path 1286437" d="M8.841,23.05a1.543,1.543,0,0,0,2.182,0l.154-.154v4.3a1.543,1.543,0,0,0,3.086,0V19.171a1.543,1.543,0,0,0-2.634-1.091L8.841,20.868A1.543,1.543,0,0,0,8.841,23.05Z"/>
        <path id="Path_1286438" data-name="Path 1286438" d="M11.979,51.547H9.833a1.543,1.543,0,0,0,0,3.086h2.146a.93.93,0,0,1,.164,1.846c-.055,0-.109,0-.164,0H9.833a1.543,1.543,0,0,0,0,3.086h.842a1.539,1.539,0,0,0,.234.02h1.07c.055,0,.11,0,.164,0a.93.93,0,0,1-.164,1.846H9.833a1.543,1.543,0,1,0,0,3.086h2.146a4.013,4.013,0,0,0,3.169-6.48,4.013,4.013,0,0,0-3.169-6.481Z"/>
        <path id="Path_1286439" data-name="Path 1286439" d="M44.148,54.313a1.543,1.543,0,0,0-1.543-1.543H24.662a1.543,1.543,0,0,0,0,3.086H42.605A1.543,1.543,0,0,0,44.148,54.313Z"/>
        <path id="Path_1286440" data-name="Path 1286440" d="M24.662,60.176a1.543,1.543,0,0,0,0,3.086H36.79a1.543,1.543,0,0,0,0-3.086Z"/>
        <path id="Path_1286441" data-name="Path 1286441" d="M42.605,35.692H24.662a1.543,1.543,0,0,0,0,3.086H42.605a1.543,1.543,0,0,0,0-3.086Z"/>
        <path id="Path_1286442" data-name="Path 1286442" d="M24.662,46.184H36.79a1.543,1.543,0,0,0,0-3.086H24.662a1.543,1.543,0,0,0,0,3.086Z"/>
        <path id="Path_1286443" data-name="Path 1286443" d="M33.949,19.479a1.543,1.543,0,0,0-1.543-1.543H24.662a1.543,1.543,0,0,0,0,3.086h7.744A1.543,1.543,0,0,0,33.949,19.479Z"/>
        <path id="Path_1286444" data-name="Path 1286444" d="M24.662,25.343a1.543,1.543,0,0,0,0,3.086h7.278a1.543,1.543,0,0,0,0-3.086Z"/>
        <path id="Path_1286445" data-name="Path 1286445" d="M50.7,28.882a1.542,1.542,0,1,0,1.091-.452A1.546,1.546,0,0,0,50.7,28.882Z"/>
        <path id="Path_1286446" data-name="Path 1286446" d="M45.929,31.516a1.543,1.543,0,1,0,0-3.086h-1.7a3.171,3.171,0,0,1-3.168-3.168v-4.1a1.543,1.543,0,1,0-3.086,0v4.1a6.261,6.261,0,0,0,6.254,6.254h1.7Z"/>
      </g>
    </g>
  </g>
</svg>
