<svg xmlns="http://www.w3.org/2000/svg" xmlns:xlink="http://www.w3.org/1999/xlink" width="98.993" height="88.352" viewBox="0 0 98.993 88.352">
  <defs>
    <clipPath id="clip-path">
      <rect id="Rectangle_412011" data-name="Rectangle 412011" width="85" height="77" transform="translate(1911.366 -7337.673)" fill="#fff" stroke="#707070" stroke-width="1"/>
    </clipPath>
  </defs>
  <g id="Group_1200849" data-name="Group 1200849" transform="translate(-1902.967 7343.673)">
    <g id="Group_1200592" data-name="Group 1200592" transform="translate(1902.967 -7343.673)">
      <g id="Group_1200589" data-name="Group 1200589">
        <ellipse id="Ellipse_12397" data-name="Ellipse 12397" cx="24.92" cy="24.92" rx="24.92" ry="24.92" transform="translate(49.154 38.512)" fill="#e6e51d"/>
        <ellipse id="Ellipse_12398" data-name="Ellipse 12398" cx="18.123" cy="18.123" rx="18.123" ry="18.123" fill="#e6e51d"/>
      </g>
    </g>
    <g id="Mask_Group_1099554" data-name="Mask Group 1099554" clip-path="url(#clip-path)">
      <g id="Layer_13" data-name="Layer 13" transform="translate(1911.383 -7341.656)">
        <rect id="Rectangle_412227" data-name="Rectangle 412227" width="79.655" height="61.069" rx="5.31" transform="translate(2.654 5.31)" fill="#474747"/>
        <path id="Path_1276192" data-name="Path 1276192" d="M77,5.31H7.966a5.31,5.31,0,0,0-5.31,5.31V15.38a51,51,0,0,0,51,51H77a5.31,5.31,0,0,0,5.31-5.31V10.621A5.31,5.31,0,0,0,77,5.31Z" fill="#686868"/>
        <path id="Path_1276193" data-name="Path 1276193" d="M36.641,11.683l1.593,2.124a5.31,5.31,0,0,0,8.5,0l1.593-2.124a2.655,2.655,0,0,1,2.124-1.062H77V61.069H7.966V10.621H34.517A2.655,2.655,0,0,1,36.641,11.683Z" fill="#4fb5dc"/>
        <path id="Path_1276194" data-name="Path 1276194" d="M77,10.621H50.448a2.655,2.655,0,0,0-2.124,1.062l-1.593,2.124a5.31,5.31,0,0,1-8.5,0l-1.593-2.124a2.655,2.655,0,0,0-2.124-1.062H7.966V38.039a51.2,51.2,0,0,0,23.029,23.03H77Z" fill="#5ed3f2"/>
        <path id="Path_1276195" data-name="Path 1276195" d="M17.259,15.931h38.5a5.31,5.31,0,0,1,5.31,5.31V51.776a3.983,3.983,0,0,1-3.983,3.983H17.259a3.983,3.983,0,0,1-3.983-3.983V19.914A3.983,3.983,0,0,1,17.259,15.931Z" fill="#e2e7f6"/>
        <path id="Path_1276196" data-name="Path 1276196" d="M13.276,19.914V46.453a51.218,51.218,0,0,0,9.305,9.306H57.086a3.983,3.983,0,0,0,3.983-3.983V21.241a5.31,5.31,0,0,0-5.31-5.31h-38.5a3.983,3.983,0,0,0-3.983,3.983Z" fill="#f2f2f2"/>
        <path id="Path_1276197" data-name="Path 1276197" d="M59.741,74.345l-7.966-7.966H33.189l-7.966,7.966Z" fill="#2a2a2a"/>
        <path id="Path_1276198" data-name="Path 1276198" d="M59.741,74.345l-7.966-7.966H33.19a4.666,4.666,0,0,0,3.3,7.966Z" fill="#474747"/>
        <path id="Path_1276199" data-name="Path 1276199" d="M15.931,79.655a5.31,5.31,0,0,1,5.31-5.31H63.724a5.31,5.31,0,0,1,5.31,5.31Z" fill="#686868"/>
        <rect id="Rectangle_412228" data-name="Rectangle 412228" width="15.931" height="26.552" rx="2.655" transform="translate(39.827 22.569)" fill="#e2e7f6"/>
        <rect id="Rectangle_412229" data-name="Rectangle 412229" width="15.931" height="26.552" rx="2.655" transform="translate(39.827 22.569)" fill="#4fb5dc"/>
        <path id="Path_1276200" data-name="Path 1276200" d="M53.1,22.569H42.483a2.655,2.655,0,0,0-2.655,2.655V37.172A11.948,11.948,0,0,0,51.776,49.121H53.1a2.655,2.655,0,0,0,2.655-2.655V25.224A2.655,2.655,0,0,0,53.1,22.569Z" fill="#5ed3f2"/>
        <rect id="Rectangle_412230" data-name="Rectangle 412230" width="15.931" height="26.552" rx="2.655" transform="translate(18.585 22.569)" fill="#f6b940"/>
        <path id="Path_1276201" data-name="Path 1276201" d="M31.862,22.569H21.241a2.655,2.655,0,0,0-2.655,2.655V35.716A13.4,13.4,0,0,0,31.9,49.116a2.653,2.653,0,0,0,2.614-2.651V25.224A2.655,2.655,0,0,0,31.862,22.569Z" fill="#fad85d"/>
        <path id="Path_1276202" data-name="Path 1276202" d="M21.241,22.569H31.862a2.655,2.655,0,0,1,2.655,2.655V35.845H18.586V25.224A2.655,2.655,0,0,1,21.241,22.569Z" fill="#b52f28"/>
        <path id="Path_1276203" data-name="Path 1276203" d="M42.483,22.569H53.1a2.655,2.655,0,0,1,2.655,2.655V35.845H39.828V25.224A2.655,2.655,0,0,1,42.483,22.569Z" fill="#2862be"/>
        <circle id="Ellipse_12417" data-name="Ellipse 12417" cx="2.655" cy="2.655" r="2.655" transform="translate(23.896 26.552)" fill="#fad85d"/>
        <circle id="Ellipse_12418" data-name="Ellipse 12418" cx="2.655" cy="2.655" r="2.655" transform="translate(23.896 39.828)" fill="#b52f28"/>
        <circle id="Ellipse_12419" data-name="Ellipse 12419" cx="2.655" cy="2.655" r="2.655" transform="translate(45.137 39.828)" fill="#2862be"/>
        <path id="Path_1276204" data-name="Path 1276204" d="M45.137,26.552h5.31v5.31h-5.31Z" fill="#4fb5dc"/>
        <path id="Path_1276205" data-name="Path 1276205" d="M65.052,37.172H61.069V34.517h3.983a2.658,2.658,0,0,0,2.655-2.655V21.241h2.655V31.862A5.316,5.316,0,0,1,65.052,37.172Z" fill="#2a2a2a"/>
        <path id="Path_1276206" data-name="Path 1276206" d="M41.154,9.293H43.81v2.655H41.154Z" fill="#2a2a2a"/>
        <circle id="Ellipse_12420" data-name="Ellipse 12420" cx="2.655" cy="2.655" r="2.655" transform="translate(66.378 17.259)" fill="#f6b940"/>
        <path id="Path_1276207" data-name="Path 1276207" d="M26.552,33.19a3.983,3.983,0,1,0-3.983-3.983A3.983,3.983,0,0,0,26.552,33.19Zm0-5.31a1.328,1.328,0,1,1-1.328,1.328,1.328,1.328,0,0,1,1.328-1.328Z"/>
        <path id="Path_1276208" data-name="Path 1276208" d="M26.552,38.5a3.983,3.983,0,1,0,3.983,3.983A3.983,3.983,0,0,0,26.552,38.5Zm0,5.31a1.328,1.328,0,1,1,1.328-1.328,1.328,1.328,0,0,1-1.328,1.328Z"/>
        <path id="Path_1276209" data-name="Path 1276209" d="M47.793,38.5a3.983,3.983,0,1,0,3.983,3.983A3.983,3.983,0,0,0,47.793,38.5Zm0,5.31a1.328,1.328,0,1,1,1.328-1.328,1.328,1.328,0,0,1-1.328,1.328Z"/>
        <path id="Path_1276210" data-name="Path 1276210" d="M45.138,33.19h5.31a1.328,1.328,0,0,0,1.328-1.328v-5.31a1.328,1.328,0,0,0-1.328-1.328h-5.31a1.328,1.328,0,0,0-1.328,1.328v5.31A1.328,1.328,0,0,0,45.138,33.19Zm1.328-5.31h2.655v2.655H46.466Z"/>
        <path id="Path_1276211" data-name="Path 1276211" d="M17.259,46.466a3.987,3.987,0,0,0,3.983,3.983H31.862a3.987,3.987,0,0,0,3.983-3.983V25.224a3.987,3.987,0,0,0-3.983-3.983H21.241a3.987,3.987,0,0,0-3.983,3.983Zm14.6,1.328H21.241a1.329,1.329,0,0,1-1.328-1.328V37.172H33.19v9.293A1.329,1.329,0,0,1,31.862,47.793ZM21.241,23.9H31.862a1.329,1.329,0,0,1,1.328,1.328v9.293H19.914V25.224A1.329,1.329,0,0,1,21.241,23.9Z"/>
        <path id="Path_1276212" data-name="Path 1276212" d="M42.483,50.448H53.1a3.987,3.987,0,0,0,3.983-3.983V25.224A3.987,3.987,0,0,0,53.1,21.241H42.483A3.987,3.987,0,0,0,38.5,25.224V46.466a3.987,3.987,0,0,0,3.983,3.983ZM53.1,47.793H42.483a1.329,1.329,0,0,1-1.328-1.328V37.172H54.431v9.293A1.329,1.329,0,0,1,53.1,47.793ZM42.483,23.9H53.1a1.329,1.329,0,0,1,1.328,1.328v9.293H41.155V25.224A1.329,1.329,0,0,1,42.483,23.9Z"/>
        <path id="Path_1276213" data-name="Path 1276213" d="M77,3.983H7.966a6.646,6.646,0,0,0-6.638,6.638V61.069a6.646,6.646,0,0,0,6.638,6.638H29.984l-5.31,5.31H21.241A6.646,6.646,0,0,0,14.6,79.655a1.328,1.328,0,0,0,1.328,1.328h53.1a1.328,1.328,0,0,0,1.328-1.328,6.646,6.646,0,0,0-6.638-6.638H60.29l-5.31-5.31H77a6.646,6.646,0,0,0,6.638-6.638V10.621A6.646,6.646,0,0,0,77,3.983ZM67.479,78.328H17.485a3.991,3.991,0,0,1,3.757-2.655H63.724a3.991,3.991,0,0,1,3.755,2.655Zm-10.943-5.31H28.428l5.31-5.31H51.225ZM80.983,61.069A3.987,3.987,0,0,1,77,65.052H7.966a3.987,3.987,0,0,1-3.983-3.983V10.621A3.987,3.987,0,0,1,7.966,6.638H77a3.987,3.987,0,0,1,3.983,3.983Z"/>
        <path id="Path_1276214" data-name="Path 1276214" d="M77,9.293H50.448a4,4,0,0,0-3.186,1.593L45.669,13.01a3.983,3.983,0,0,1-6.373,0L37.7,10.886a4,4,0,0,0-3.185-1.593H7.966a1.328,1.328,0,0,0-1.328,1.328V61.069A1.328,1.328,0,0,0,7.966,62.4H77a1.328,1.328,0,0,0,1.328-1.328V10.621A1.328,1.328,0,0,0,77,9.293ZM55.759,17.259a3.987,3.987,0,0,1,3.983,3.983V51.776a2.658,2.658,0,0,1-2.655,2.655H17.259A2.658,2.658,0,0,1,14.6,51.776V19.914a2.658,2.658,0,0,1,2.655-2.655ZM75.672,59.741H9.293V11.948H34.517a1.329,1.329,0,0,1,1.061.53h0L37.172,14.6H17.259a5.316,5.316,0,0,0-5.31,5.31V51.776a5.316,5.316,0,0,0,5.31,5.31H57.086a5.316,5.316,0,0,0,5.31-5.31v-14.6h2.655a5.316,5.316,0,0,0,5.31-5.31v-8.21a3.983,3.983,0,1,0-2.655,0v8.21a2.658,2.658,0,0,1-2.655,2.655H62.4V21.241A6.646,6.646,0,0,0,55.759,14.6H47.793l1.595-2.125a1.328,1.328,0,0,1,1.06-.53H75.672ZM67.707,19.914a1.328,1.328,0,1,1,1.328,1.328,1.328,1.328,0,0,1-1.328-1.328Z"/>
        <path id="Path_1276215" data-name="Path 1276215" d="M41.154,9.293H43.81v2.655H41.154Z"/>
      </g>
    </g>
  </g>
</svg>
